SplineFontDB: 3.0
FontName: LinLibertineOI
FullName: Linux Libertine O Italic
FamilyName: Linux Libertine O
Weight: Book
Copyright: Linux Libertine by Philipp H. Poll, Open Font under Terms of following Free Software Licenses:\nGPL (General Public License) with font-exception and OFL (Open Font License).\nCreated with FontForge (http://fontforge.sf.net) Sept 2003, 2004, 2005, 2006, 2007, 2008
UComments: "2003-08-29: Created.+AAoA-2004-07-25: v(1.0) release candidate+AAoA-2005-12-28: v(1.1.0)stable+AAoA-2006-05-01: v(2.0.0)stable+AAoA-2007-01-10: v(2.3.0)stable" 
Version: 4.0.3
ItalicAngle: -12.5
UnderlinePosition: -98
UnderlineWidth: 40
Ascent: 726
Descent: 274
LayerCount: 2
Layer: 0 0 "Back"  1
Layer: 1 0 "Fore"  0
NeedsXUIDChange: 1
XUID: [1021 975 16237491 13016554]
FSType: 0
OS2Version: 0
OS2_WeightWidthSlopeOnly: 0
OS2_UseTypoMetrics: 0
CreationTime: 1155510122
ModificationTime: 1225712157
PfmFamily: 17
TTFWeight: 400
TTFWidth: 5
LineGap: 0
VLineGap: 0
OS2TypoAscent: 894
OS2TypoAOffset: 0
OS2TypoDescent: -246
OS2TypoDOffset: 0
OS2TypoLinegap: 0
OS2WinAscent: 894
OS2WinAOffset: 0
OS2WinDescent: 246
OS2WinDOffset: 0
HheadAscent: 894
HheadAOffset: 0
HheadDescent: -246
HheadDOffset: 0
OS2FamilyClass: 261
OS2Vendor: 'PfEd'
Lookup: 3 0 0 "LinLibertine-'aalt' Alle Alternativen zeigen"  {"LinLibertine-'aalt' Alle Alternativen zeigen 1"  } ['aalt' ('DFLT' <'dflt' > 'cyrl' <'dflt' > 'grek' <'dflt' > 'latn' <'AZE ' 'CRT ' 'DEU ' 'MOL ' 'ROM ' 'TRK ' 'dflt' > ) ]
Lookup: 1 0 0 "LinLibertine-'locl' Localized Forms Romaenisch"  {"LinLibertine-'locl' Localized Forms Romaenisch 1"  } ['locl' ('latn' <'MOL ' 'ROM ' > ) ]
Lookup: 1 0 0 "'smcp' Gemeine nach Kapitaelchen i > idotaccent.sc"  {"'smcp' Gemeine nach Kapitaelchen i > idotaccent.sc"  } ['smcp' ('latn' <'AZE ' 'CRT ' 'TRK ' > ) ]

StartChar: exclam
Encoding: 33 33 0
Width: 227
VWidth: 999
Flags: W
HStem: -13 106<104.797 178.927>
VStem: 87 109<4.47159 75.5284> 158 30<197.351 278.41> 178 119<516.6 630.709> 179 118<516.6 632.859>
LayerCount: 2
Fore
SplineSet
88 40 m 1xc0
 94 69 122 93 151 93 c 0
 177 93 196 74 196 49 c 0
 196 46 195 43 195 40 c 0
 190 11 162 -13 132 -13 c 0
 106 -13 87 6 87 31 c 0
 87 34 88 37 88 40 c 1xc0
252 665 m 0
 275 665 297 647 297 611 c 0x90
 297 605 297 599 295 592 c 0
 284 527 261 484 235 398 c 0
 204 291 191 231 188 217 c 0
 185 206 180 197 170 197 c 0
 160 197 158 202 158 208 c 2
 158 208 158 209 158 210 c 0xa0
 160 230 170 321 176 398 c 0
 178 425 179 447 179 466 c 0x88
 179 482 178 496 178 510 c 0x90
 178 535 179 559 185 592 c 0
 195 646 230 665 252 665 c 0
EndSplineSet
EndChar

StartChar: quotedbl
Encoding: 34 34 1
Width: 336
VWidth: 999
Flags: W
HStem: 427 218
VStem: 167 90<550.594 628.116> 294 89<547.699 629.68>
LayerCount: 2
Fore
SplineSet
291 427 m 1
 291 427 292 586 294 595 c 0
 297 617 324 645 354 645 c 0
 376 645 383 632 383 619 c 0
 383 616 383 614 383 612 c 0
 380 596 318 431 318 431 c 1
 291 427 l 1
164 426 m 1
 164 426 166 585 167 594 c 0
 171 616 197 644 228 644 c 0
 250 644 257 631 257 618 c 0
 257 615 257 613 256 611 c 2
 253 595 191 430 191 430 c 1
 164 426 l 1
EndSplineSet
EndChar

StartChar: numbersign
Encoding: 35 35 2
Width: 438
VWidth: 487
Flags: HMW
HStem: 183 49<72 146 196 290 339 414> 341 49<125 199 249 343 392 466>
DStem2: 90 13 123 13 0.318258 0.948004<10.4118 178.958 241.098 346.336 408.321 576.558> 233 13 266 13 0.316736 0.948514<10.362 178.959 240.893 346.337 408.272 576.406>
LayerCount: 2
Fore
SplineSet
376 341 m 1
 339 231 l 1
 429 231 l 1
 414 183 l 1
 324 183 l 1
 266 13 l 1
 233 13 l 1
 290 183 l 1
 180 183 l 1
 123 13 l 1
 90 13 l 1
 146 183 l 1
 56 183 l 1
 72 231 l 1
 163 231 l 1
 199 341 l 1
 109 341 l 1
 125 390 l 1
 216 390 l 1
 272 560 l 1
 306 560 l 1
 249 390 l 1
 359 390 l 1
 416 560 l 1
 449 560 l 1
 392 390 l 1
 482 390 l 1
 466 341 l 1
 376 341 l 1
307 231 m 1
 343 341 l 1
 233 341 l 1
 196 231 l 1
 307 231 l 1
EndSplineSet
EndChar

StartChar: dollar
Encoding: 36 36 3
Width: 438
VWidth: 999
Flags: W
HStem: -12 34<155.014 195 235 283.574> 541 30<261.121 302 342 379.048>
VStem: 69 27<94.5437 146> 422 27<421 435>
DStem2: 181 -81 215 -81 0.191315 0.981529<6.50471 70.4039 111.428 344.808 429.893 633.66 671.74 721.324>
LayerCount: 2
Fore
SplineSet
92 10 m 0
 77 10 77 -1 56 -1 c 1
 63 36 66 90 69 146 c 1
 96 149 l 1
 101 88 134 30 201 22 c 1
 248 264 l 1
 194 291 111 336 129 434 c 0
 146 520 241 565 308 571 c 1
 319 627 l 1
 353 627 l 1
 342 572 l 1
 391 570 431 560 457 564 c 1
 450 519 450 470 449 421 c 1
 422 417 l 1
 420 435 l 2
 414 501 391 536 336 541 c 1
 295 327 l 1
 347 306 449 258 430 156 c 0
 423 123 390 -3 229 -11 c 1
 215 -81 l 1
 181 -81 l 1
 195 -12 l 1
 141 -8 112 10 92 10 c 0
280 251 m 1
 235 22 l 1
 276 28 337 54 352 127 c 0
 368 207 317 235 280 251 c 1
263 341 m 1
 302 541 l 1
 254 533 206 497 194 438 c 0
 185 391 228 359 263 341 c 1
EndSplineSet
EndChar

StartChar: percent
Encoding: 37 37 4
Width: 637
VWidth: 999
Flags: W
HStem: -19 29<455.685 520.138> 218 32<493.086 561.522> 297 29<197.253 262.22> 478 37<351.857 527.376> 533 32<236.445 305.752> 549 20G<565.5 617.429>
VStem: 131 51<334.252 473.31> 318 31<399.222 498.503> 388 51<18.3327 158.102> 575 30<85.0924 203.979>
DStem2: 102 -5 139 -14 0.649453 0.760402<17.1862 659.688 695.081 750.806>
LayerCount: 2
Fore
SplineSet
439 77 m 0xf3c0
 439 25 466 10 484 10 c 0
 540 10 575 102 575 157 c 0
 575 209 544 218 530 218 c 0
 481 218 439 134 439 77 c 0xf3c0
388 91 m 0
 388 167 446 250 520 250 c 0
 560 250 605 231 605 159 c 0
 605 91 561 -19 478 -19 c 0
 417 -19 388 39 388 91 c 0
436 515 m 0
 478 515 545 525 586 569 c 1xf7c0
 619 548 l 1
 139 -14 l 1
 102 -5 l 1
 530 497 l 1
 491 481 456 478 427 478 c 0
 403 478 365 488 346 499 c 1
 348 491 349 482 349 474 c 0
 349 409 306 297 222 297 c 0
 159 297 131 354 131 406 c 0
 131 482 190 565 263 565 c 0xfbc0
 291 565 319 552 329 540 c 1
 383 515 418 515 436 515 c 0
182 392 m 0
 182 340 209 326 228 326 c 0
 282 326 318 415 318 473 c 0
 318 522 291 533 273 533 c 0xfbc0
 225 533 182 450 182 392 c 0
EndSplineSet
EndChar

StartChar: parenleft
Encoding: 40 40 5
Width: 295
VWidth: 999
Flags: W
VStem: 80 73<0.173466 294.877>
LayerCount: 2
Fore
SplineSet
102 0 m 0
 87 50 80 102 80 154 c 0
 80 187 83 219 88 252 c 0
 104 343 138 425 191 503 c 0
 221 549 280 632 381 707 c 1
 396 689 l 1
 311 610 268 533 247 492 c 0
 208 417 181 338 166 252 c 0
 158 205 153 159 153 115 c 0
 153 79 156 44 162 11 c 0
 169 -32 185 -108 241 -187 c 1
 220 -204 l 1
 163 -145 124 -80 102 0 c 0
EndSplineSet
Substitution2: "'case' Versalformen 1" parenleft.sc
Substitution2: "'c2sc' Versale nach Kapitaelchen 1" parenleft.sc
Substitution2: "'sinf' Wissenschaftliche Indices 1" parenleft.inferior
Substitution2: "'sups' Hochgestellte 1" parenleft.superior
AlternateSubs2: "LinLibertine-'aalt' Alle Alternativen zeigen 1" parenleft.sc
EndChar

StartChar: parenright
Encoding: 41 41 6
Width: 312
VWidth: 999
Flags: W
VStem: 266 73<209.121 503.827>
LayerCount: 2
Fore
SplineSet
317 504 m 0
 332 454 339 402 339 350 c 0
 339 317 336 285 331 252 c 0
 314 161 281 79 228 0 c 0
 198 -45 139 -128 38 -203 c 1
 23 -186 l 1
 108 -106 151 -29 172 12 c 0
 211 87 238 166 253 252 c 0
 261 299 266 345 266 389 c 0
 266 425 263 459 257 493 c 0
 250 536 234 612 178 691 c 1
 199 708 l 1
 256 649 295 583 317 504 c 0
EndSplineSet
Substitution2: "'case' Versalformen 1" parenright.sc
Substitution2: "'c2sc' Versale nach Kapitaelchen 1" parenright.sc
Substitution2: "'sinf' Wissenschaftliche Indices 1" parenright.inferior
Substitution2: "'sups' Hochgestellte 1" parenright.superior
AlternateSubs2: "LinLibertine-'aalt' Alle Alternativen zeigen 1" parenright.sc
EndChar

StartChar: asterisk
Encoding: 42 42 7
Width: 433
VWidth: 999
Flags: W
HStem: 571 67<184.973 264.954 381.607 454.388>
VStem: 299 66<626.048 712.228>
LayerCount: 2
Fore
SplineSet
298 567 m 1
 286 570 271 571 256 571 c 0
 211 571 182 577 182 602 c 0
 182 604 182 606 182 608 c 1
 185 622 197 638 220 638 c 0
 254 638 267 605 308 587 c 1
 308 590 308 594 308 598 c 0
 308 626 299 648 299 668 c 0
 299 672 300 675 300 679 c 0
 304 700 320 718 338 718 c 0
 354 718 365 709 365 691 c 0
 365 688 365 686 365 683 c 0
 360 656 336 616 328 586 c 1
 377 606 399 638 433 638 c 0
 456 638 461 623 461 612 c 0
 461 610 461 609 461 608 c 0
 456 578 420 571 386 571 c 0
 366 571 349 570 331 567 c 1
 355 533 399 521 399 488 c 0
 399 485 399 483 398 480 c 0
 395 462 378 451 364 451 c 0
 325 451 329 516 311 555 c 1
 278 510 260 451 223 451 c 0
 208 451 198 462 198 475 c 0
 198 477 198 478 198 479 c 0
 206 522 258 530 298 567 c 1
EndSplineSet
EndChar

StartChar: plus
Encoding: 43 43 8
Width: 527
VWidth: 999
Flags: HMW
HStem: 207 49<111 276 334 498>
DStem2: 245 34 294 34 0.173647 0.984808<8.56362 175.567 234.224 402.105>
LayerCount: 2
Fore
SplineSet
334 256 m 1
 507 256 l 1
 498 207 l 1
 325 207 l 1
 294 34 l 1
 245 34 l 1
 276 207 l 1
 103 207 l 1
 111 256 l 1
 285 256 l 1
 315 430 l 1
 364 430 l 1
 334 256 l 1
EndSplineSet
Substitution2: "'sinf' Wissenschaftliche Indices 1" plus.inferior
Substitution2: "'sups' Hochgestellte 1" plus.superior
AlternateSubs2: "LinLibertine-'aalt' Alle Alternativen zeigen 1" plus.superior plus.inferior uni2098
EndChar

StartChar: slash
Encoding: 47 47 9
Width: 291
VWidth: 999
Flags: HMW
HStem: 672 10G<356 402>
DStem2: 0 -21 42 -21 0.45658 0.889682<18.9498 790.312>
LayerCount: 2
Fore
SplineSet
402 682 m 1
 42 -21 l 1
 0 -21 l 1
 361 682 l 1
 402 682 l 1
EndSplineSet
Ligature2: "'frac' Brueche 1" uni2215
AlternateSubs2: "LinLibertine-'aalt' Alle Alternativen zeigen 1" uni2215
EndChar

StartChar: one
Encoding: 49 49 10
Width: 438
VWidth: 999
Flags: W
HStem: -1 30<125.093 231.726 310.616 397> 460 32<204.344 252.311> 558 20G<363.5 411>
VStem: 122 289
DStem2: 242 75 313 75 0.191235 0.981544<-10.2753 382.077>
LayerCount: 2
Fore
SplineSet
297 474 m 0
 279 474 228 471 205 460 c 1
 202 492 l 1
 294 517 335 542 392 578 c 1
 411 578 l 1
 313 75 l 2
 312 65 310 57 310 51 c 0
 310 34 318 29 342 29 c 2
 395 29 l 2
 398 29 403 27 401 21 c 1
 397 -1 l 1
 260 1 l 1
 122 -1 l 1
 125 21 l 1
 127 24 128 29 135 29 c 2
 194 29 l 2
 232 29 236 46 242 75 c 2
 309 419 l 2
 311 432 312 443 312 451 c 0
 312 466 308 474 297 474 c 0
EndSplineSet
Substitution2: "LinLibertine-'onum' Minuskelziffern 1" one.taboldstyle
Substitution2: "LinLibertine-'pnum' Proportionalziffern 1" one.fitted
Substitution2: "'sinf' Wissenschaftliche Indices 1" one.inferior
Substitution2: "'sups' Hochgestellte 1" one.superior
AlternateSubs2: "LinLibertine-'aalt' Alle Alternativen zeigen 1" one.oldstyle one.superior one.fitted
EndChar

StartChar: two
Encoding: 50 50 11
Width: 438
VWidth: 487
Flags: W
HStem: 0 58<137 355.219> 547 31<254.4 359.255>
VStem: 143 75<411.79 490.449> 395 78<382.848 518.993>
DStem2: 57 0 124.142 0 0.21644 0.976296<73.9403 105.612 444.415 541.326> 196 194 231 176 0.775484 0.631367<-105.132 232.992>
LayerCount: 2
Fore
SplineSet
144 443 m 1
 155 500 226 578 331 578 c 0
 399 578 473 548 473 462 c 0
 473 374 393 308 344 268 c 2
 231 176 l 2
 226 171 146 103 137 58 c 1
 306 58 l 2
 340 58 361 75 386 130 c 1
 411 126 l 1
 366 0 l 1
 57 0 l 1
 67 56 85 99 196 194 c 2
 281 267 l 2
 337 315 395 370 395 454 c 0
 395 519 348 547 318 547 c 0
 249 547 223 511 219 487 c 0
 217 479 218 471 218 464 c 1
 219 457 220 450 218 442 c 0
 213 416 191 406 175 406 c 0
 156 406 143 419 143 436 c 0
 143 439 143 441 144 443 c 1
EndSplineSet
Substitution2: "LinLibertine-'onum' Minuskelziffern 1" two.taboldstyle
Substitution2: "LinLibertine-'pnum' Proportionalziffern 1" two.fitted
Substitution2: "'sinf' Wissenschaftliche Indices 1" two.inferior
Substitution2: "'sups' Hochgestellte 1" two.superior
AlternateSubs2: "LinLibertine-'aalt' Alle Alternativen zeigen 1" two.oldstyle two.superior two.fitted
EndChar

StartChar: three
Encoding: 51 51 12
Width: 438
VWidth: 487
Flags: W
HStem: -12 31<146.226 249.575> 298 30<219 249.531> 547 31<256.955 358.222>
VStem: 144 65<430.739 499.455> 358 76<137.726 273.481> 380 67<425.697 532.094>
LayerCount: 2
Fore
SplineSet
95 83 m 0xf8
 141 83 115 19 196 19 c 0
 259 19 358 95 358 213 c 0xf8
 358 289 297 302 250 302 c 0
 240 302 230 300 218 298 c 1
 219 328 l 1
 289 339 380 411 380 483 c 0
 380 526 349 547 313 547 c 0
 289 547 221 533 209 472 c 0
 206 454 193 423 167 423 c 0
 147 423 144 440 144 449 c 0
 144 479 195 578 339 578 c 0
 423 578 447 532 447 494 c 0xf4
 447 456 433 403 331 345 c 1
 379 338 434 305 434 228 c 0
 434 116 337 -12 178 -12 c 0
 124 -12 54 11 54 46 c 0
 54 65 76 83 95 83 c 0xf8
EndSplineSet
Substitution2: "LinLibertine-'onum' Minuskelziffern 1" three.taboldstyle
Substitution2: "LinLibertine-'pnum' Proportionalziffern 1" three.fitted
Substitution2: "'sinf' Wissenschaftliche Indices 1" three.inferior
Substitution2: "'sups' Hochgestellte 1" three.superior
AlternateSubs2: "LinLibertine-'aalt' Alle Alternativen zeigen 1" three.oldstyle three.superior three.fitted
EndChar

StartChar: four
Encoding: 52 52 13
Width: 438
VWidth: 487
Flags: W
HStem: -1 29<190.688 261.372 335.784 391> 153 47<139 288 364 431> 558 20G<368 370.5>
DStem2: 254.26 -1 321.26 -1 0.21644 0.976296<67.5413 157.652 219.988 400.417>
LayerCount: 2
Fore
SplineSet
329 355 m 2
 331 362 333 370 342 375 c 0
 355 383 375 392 390 392 c 0
 398 392 401 388 401 380 c 0
 401 375 400 369 398 361 c 2
 364 200 l 1
 446 200 l 1
 431 153 l 1
 355 153 l 1
 337 70 l 2
 336 62 335 56 335 50 c 0
 335 35 342 28 363 28 c 2
 389 28 l 2
 395 28 396 23 395 21 c 1
 391 -1 l 1
 391 -1 326 1 285 1 c 0
 247 1 188 -1 188 -1 c 1
 192 21 l 2
 192 23 194 28 200 28 c 2
 228 28 l 2
 259 28 264 41 270 70 c 2
 288 153 l 1
 91 153 l 2
 87 153 86 155 84 159 c 2
 78 170 l 1
 70 191 l 1
 69 191 70 192 70 193 c 0
 70 194 71 195 72 196 c 0
 151 268 310 491 361 573 c 0
 364 577 366 578 370 578 c 0
 371 578 390 569 402 567 c 1
 333 446 235 316 139 200 c 1
 297 200 l 1
 329 355 l 2
EndSplineSet
Substitution2: "LinLibertine-'onum' Minuskelziffern 1" four.taboldstyle
Substitution2: "LinLibertine-'pnum' Proportionalziffern 1" four.fitted
Substitution2: "'sinf' Wissenschaftliche Indices 1" four.inferior
Substitution2: "'sups' Hochgestellte 1" four.superior
AlternateSubs2: "LinLibertine-'aalt' Alle Alternativen zeigen 1" four.oldstyle four.superior four.fitted
EndChar

StartChar: five
Encoding: 53 53 14
Width: 438
VWidth: 487
Flags: HMW
HStem: -12 34<161 266> 323 47<190 309> 510 68<238 314 318 349 352 451>
VStem: 347 75<119 284>
DStem2: 129 300 189 355 0.297205 0.954814<70.3872 239.065>
LayerCount: 2
Fore
SplineSet
206 22 m 0
 290 22 347 106 347 205 c 0
 347 280 306 323 254 323 c 0
 208 323 171 316 129 300 c 1
 214 573 l 1
 247 570 280 568 315 568 c 0
 365 568 418 572 474 578 c 1
 479 575 l 1
 451 510 l 1
 411 506 379 505 351 505 c 0
 306 505 272 509 238 513 c 1
 189 355 l 1
 211 363 249 370 288 370 c 0
 378 370 422 295 422 216 c 0
 422 107 342 -12 197 -12 c 0
 143 -12 62 17 62 54 c 0
 62 71 78 91 102 91 c 0
 143 91 139 22 206 22 c 0
EndSplineSet
Substitution2: "LinLibertine-'onum' Minuskelziffern 1" five.taboldstyle
Substitution2: "LinLibertine-'pnum' Proportionalziffern 1" five.fitted
Substitution2: "'sinf' Wissenschaftliche Indices 1" five.inferior
Substitution2: "'sups' Hochgestellte 1" five.superior
AlternateSubs2: "LinLibertine-'aalt' Alle Alternativen zeigen 1" five.oldstyle five.superior five.fitted
EndChar

StartChar: six
Encoding: 54 54 15
Width: 438
VWidth: 487
Flags: W
HStem: -12 29<197.135 287.768> 307 32<230.714 328.026> 547 31<402.154 486>
VStem: 82 70<57.1026 264.241> 365 74<115.72 277.832>
LayerCount: 2
Fore
SplineSet
244 17 m 0
 322 17 365 124 365 198 c 0
 365 247 351 307 275 307 c 0
 254 307 215 305 167 262 c 1
 161 239 152 193 152 147 c 0
 152 45 203 17 244 17 c 0
439 210 m 0
 439 124 376 -12 228 -12 c 0
 165 -12 82 19 82 150 c 0
 82 183 86 351 239 481 c 0
 316 546 389 573 488 578 c 1
 486 547 l 1
 419 541 360 526 303 479 c 0
 248 434 202 370 175 290 c 1
 204 318 263 339 301 339 c 0
 417 339 439 264 439 210 c 0
EndSplineSet
Substitution2: "LinLibertine-'onum' Minuskelziffern 1" six.taboldstyle
Substitution2: "LinLibertine-'pnum' Proportionalziffern 1" six.fitted
Substitution2: "'sinf' Wissenschaftliche Indices 1" six.inferior
Substitution2: "'sups' Hochgestellte 1" six.superior
AlternateSubs2: "LinLibertine-'aalt' Alle Alternativen zeigen 1" six.oldstyle six.superior six.fitted
EndChar

StartChar: seven
Encoding: 55 55 16
Width: 438
VWidth: 487
Flags: HMW
HStem: -12 10G<115 182> 439 10G<132 172> 508 59<205 428> 568 10G<176 205 488 510>
LayerCount: 2
Fore
SplineSet
249 508 m 2
 205 508 187 490 158 439 c 1
 132 443 l 1
 152 484 169 522 183 578 c 1
 205 578 l 1
 205 573 209 567 232 567 c 2
 423 567 l 2
 458 567 480 568 497 573 c 1
 510 566 l 1
 354 308 268 152 182 -9 c 1
 117 -12 l 1
 115 -6 l 1
 206 138 319 324 428 508 c 1
 249 508 l 2
EndSplineSet
Substitution2: "LinLibertine-'onum' Minuskelziffern 1" seven.taboldstyle
Substitution2: "LinLibertine-'pnum' Proportionalziffern 1" seven.fitted
Substitution2: "'sinf' Wissenschaftliche Indices 1" seven.inferior
Substitution2: "'sups' Hochgestellte 1" seven.superior
AlternateSubs2: "LinLibertine-'aalt' Alle Alternativen zeigen 1" seven.oldstyle seven.superior seven.fitted
EndChar

StartChar: nine
Encoding: 57 57 17
Width: 438
VWidth: 487
Flags: W
HStem: -12 31<58 141.846> 227 32<215.974 313.286> 549 29<256.232 346.865>
VStem: 105 74<288.168 450.28> 392 70<301.759 508.897>
LayerCount: 2
Fore
SplineSet
300 549 m 0
 222 549 179 442 179 368 c 0
 179 319 193 259 269 259 c 0
 290 259 329 261 377 304 c 1
 383 327 392 373 392 419 c 0
 392 521 341 549 300 549 c 0
105 356 m 0
 105 442 168 578 316 578 c 0
 379 578 462 547 462 416 c 0
 462 383 458 215 305 85 c 0
 228 20 155 -7 56 -12 c 1
 58 19 l 1
 125 25 184 40 241 87 c 0
 296 132 342 196 369 276 c 1
 340 248 281 227 243 227 c 0
 127 227 105 302 105 356 c 0
EndSplineSet
Substitution2: "LinLibertine-'onum' Minuskelziffern 1" nine.taboldstyle
Substitution2: "LinLibertine-'pnum' Proportionalziffern 1" nine.fitted
Substitution2: "'sinf' Wissenschaftliche Indices 1" nine.inferior
Substitution2: "'sups' Hochgestellte 1" nine.superior
AlternateSubs2: "LinLibertine-'aalt' Alle Alternativen zeigen 1" nine.oldstyle nine.superior nine.fitted
EndChar

StartChar: colon
Encoding: 58 58 18
Width: 219
VWidth: 999
Flags: W
HStem: 39 106<96.482 171.507> 301 106<142.482 217.507>
VStem: 80 108<55.5477 129.279> 126 108<317.548 391.279>
LayerCount: 2
Fore
SplineSet
188 407 m 0xe0
 214 407 234 388 234 363 c 0
 234 333 207 301 172 301 c 0
 146 301 126 321 126 347 c 0xd0
 126 374 152 407 188 407 c 0xe0
142 145 m 0
 168 145 188 126 188 101 c 0xe0
 188 71 161 39 126 39 c 0xd0
 100 39 80 59 80 85 c 0xe0
 80 112 106 145 142 145 c 0
EndSplineSet
EndChar

StartChar: semicolon
Encoding: 59 59 19
Width: 219
VWidth: 999
Flags: W
HStem: -132 23<33.5631 60.7334> 4 91<80.9365 135.616> 301 106<141.482 216.507>
VStem: 125 108<317.548 391.279> 136 48<-50.3292 51>
LayerCount: 2
Fore
SplineSet
71 45 m 0xe8
 71 76 100 95 130 95 c 0
 161 95 184 71 184 31 c 0
 184 -21 156 -111 40 -132 c 1
 32 -126 29 -118 32 -109 c 1
 84 -97 136 -50 136 -22 c 0
 136 -4 121 0 105 4 c 0
 86 9 71 21 71 45 c 0xe8
187 407 m 0
 213 407 233 388 233 363 c 0
 233 333 206 301 171 301 c 0
 145 301 125 321 125 347 c 0xf0
 125 374 151 407 187 407 c 0
EndSplineSet
EndChar

StartChar: less
Encoding: 60 60 20
Width: 487
VWidth: 999
Flags: HMW
DStem2: 164 239 87 215 0.931794 -0.362988<0 318.177> 95 263 164 239 0.946433 0.322901<57.4341 414.129>
LayerCount: 2
Fore
SplineSet
164 239 m 1
 460 123 l 1
 452 73 l 1
 87 215 l 1
 95 263 l 1
 510 404 l 1
 501 354 l 1
 164 239 l 1
EndSplineSet
EndChar

StartChar: equal
Encoding: 61 61 21
Width: 527
VWidth: 999
Flags: HMW
HStem: 144 49<100 487> 269 49<122 509>
LayerCount: 2
Fore
SplineSet
496 193 m 1
 487 144 l 1
 91 144 l 1
 100 193 l 1
 496 193 l 1
518 318 m 1
 509 269 l 1
 113 269 l 1
 122 318 l 1
 518 318 l 1
EndSplineSet
Substitution2: "'sinf' Wissenschaftliche Indices 1" equal.inferior
Substitution2: "'sups' Hochgestellte 1" equal.superior
AlternateSubs2: "LinLibertine-'aalt' Alle Alternativen zeigen 1" equal.superior
EndChar

StartChar: greater
Encoding: 62 62 22
Width: 487
VWidth: 999
Flags: HMW
DStem2: 70 121 62 71 0.946433 0.322901<0 356.233> 120 402 111 352 0.931958 -0.362567<9.86646 328.044>
LayerCount: 2
Fore
SplineSet
407 236 m 1
 111 352 l 1
 120 402 l 1
 485 260 l 1
 477 212 l 1
 62 71 l 1
 70 121 l 1
 407 236 l 1
EndSplineSet
EndChar

StartChar: question
Encoding: 63 63 23
Width: 405
VWidth: 487
Flags: W
HStem: -11 106<181.482 256.507> 629 30<257.537 367.391>
VStem: 146 73<505.01 579.044> 165 108<5.54769 79.2786> 224 26<174.08 224.25> 408 78<458.865 596.444>
LayerCount: 2
Fore
SplineSet
146 520 m 0xec
 146 568 207 659 338 659 c 0
 428 659 486 612 486 539 c 0
 486 398 326 355 289 301 c 0
 271 276 262 252 257 228 c 1
 250 184 l 2
 249 177 243 174 235 174 c 0
 228 174 223 177 224 184 c 2
 232 230 l 2
 267 419 408 390 408 530 c 0
 408 584 373 629 323 629 c 0
 254 629 219 593 219 563 c 0
 219 557 221 551 224 546 c 0
 226 542 227 537 227 532 c 0
 227 512 211 487 180 487 c 0
 166 487 146 493 146 520 c 0xec
227 95 m 0
 253 95 273 76 273 51 c 0
 273 21 246 -11 211 -11 c 0
 185 -11 165 9 165 35 c 0xd4
 165 62 191 95 227 95 c 0
EndSplineSet
EndChar

StartChar: at
Encoding: 64 64 24
Width: 829
VWidth: 999
Flags: W
HStem: -158 33<316.585 497.761> 27 35<504.966 628.994> 29 41<360.273 429.812> 379 31<495.334 585.38> 581 30<458.791 627.306>
LayerCount: 2
Fore
SplineSet
596 316 m 0xb8
 604 354 581 379 548 379 c 0
 532 379 491 370 456 339 c 0
 397 288 368 224 355 162 c 0
 345 114 350 70 408 70 c 0
 440 70 499 127 542 200 c 0
 562 231 588 282 596 316 c 0xb8
557 74 m 0
 555 64 562 62 564 62 c 0
 660 62 729 109 764 275 c 0
 808 481 666 581 549 581 c 0
 408 581 230 478 179 241 c 0
 147 91 172 -125 412 -125 c 0
 491 -125 554 -102 613 -59 c 1
 622 -77 l 1
 556 -123 492 -158 387 -158 c 0
 166 -158 56 10 101 223 c 0
 147 438 355 611 565 611 c 0
 765 611 879 469 839 282 c 0
 814 168 719 27 517 27 c 0xd8
 491 27 489 52 493 68 c 0
 496 83 507 106 520 131 c 1
 518 132 l 1
 461 58 405 29 373 29 c 0
 280 29 277 113 285 153 c 0
 315 296 458 410 557 410 c 0
 587 410 615 393 619 367 c 1
 629 391 l 1
 681 404 l 1
 693 399 l 1
 583 141 l 2
 572 114 559 83 557 74 c 0
EndSplineSet
EndChar

StartChar: A
Encoding: 65 65 25
Width: 703
VWidth: 999
Flags: W
HStem: -1 29<12.6875 83.875 153.319 225 446.688 530.389 638 694> 244 39<293.004 495>
DStem2: 117 81 161 72 0.516566 0.856247<-9.0364 228.241 271.704 570.497> 509 628 444 550 0.19716 -0.980371<63.6536 335.468 375.083 561.208>
LayerCount: 2
Fore
SplineSet
161 72 m 2
 156 65 152 56 152 49 c 0
 152 35 167 28 195 28 c 2
 224 28 l 2
 228 28 230 25 230 20 c 1
 227 1 l 1
 225 -1 l 1
 225 -1 126 1 102 1 c 0
 77 1 12 -1 12 -1 c 1
 10 1 l 1
 14 20 l 2
 15 25 18 28 23 28 c 2
 35 28 l 2
 76 28 97 47 117 81 c 2
 447 628 l 2
 462 653 472 662 480 662 c 0
 497 662 503 654 509 628 c 2
 618 86 l 2
 626 47 642 28 682 28 c 2
 693 28 l 2
 697 28 701 24 701 20 c 2
 698 1 l 1
 694 -1 l 1
 694 -1 619 1 580 1 c 0
 544 1 446 -1 446 -1 c 1
 444 1 l 1
 448 20 l 2
 449 25 452 28 457 28 c 2
 485 28 l 2
 515 28 537 38 537 61 c 0
 537 65 537 68 536 72 c 2
 502 244 l 1
 292 244 l 2
 268 244 259 238 252 227 c 2
 161 72 l 2
317 283 m 2
 495 283 l 1
 444 550 l 1
 296 301 l 2
 294 297 293 295 293 292 c 0
 293 287 299 283 317 283 c 2
EndSplineSet
Position2: "'cpsp' Versalabstaende 1" dx=2 dy=0 dh=5 dv=0
Substitution2: "'c2sc' Versale nach Kapitaelchen 1" a.sc
EndChar

StartChar: B
Encoding: 66 66 26
Width: 609
VWidth: 999
Flags: W
HStem: -1 34<51.5781 143.637 230.309 410.232> 338 35<284 452.441> 611 33<325.75 493.939> 620 27<163 237.179>
VStem: 529 89<132.549 284.15> 536 77<444.978 579.882>
LayerCount: 2
Fore
SplineSet
618 215 m 0xe8
 618 110 548 -1 325 -1 c 0
 253 -1 207 1 177 1 c 2
 49 -1 l 1
 52 19 l 2
 53 22 55 27 61 27 c 2
 91 27 l 2
 130 27 145 38 150 73 c 2
 239 575 l 2
 240 581 241 586 241 591 c 0
 241 612 229 620 195 620 c 2
 166 620 l 1
 160 621 159 623 159 627 c 2
 163 647 l 1xd8
 164 647 259 644 291 644 c 0
 324 644 382 646 417 646 c 0
 577 646 613 583 613 523 c 0xe4
 613 424 523 372 494 359 c 1
 580 339 618 287 618 215 c 0xe8
313 33 m 0
 479 33 529 142 529 215 c 0
 529 289 476 338 372 338 c 2
 278 338 l 1
 231 72 l 2
 230 67 229 62 229 58 c 0
 229 37 245 33 313 33 c 0
363 373 m 2
 501 373 536 458 536 520 c 0
 536 597 469 611 418 611 c 0xe4
 332 611 326 608 320 575 c 2
 284 373 l 1
 363 373 l 2
EndSplineSet
Position2: "'cpsp' Versalabstaende 1" dx=2 dy=0 dh=5 dv=0
Substitution2: "'c2sc' Versale nach Kapitaelchen 1" b.sc
EndChar

StartChar: C
Encoding: 67 67 27
Width: 654
VWidth: 999
Flags: W
HStem: -12 41<289.105 471.842> 621 37<388.596 562.857>
VStem: 97 89<141.236 369.83> 655 32<448 521.28>
LayerCount: 2
Fore
SplineSet
364 -12 m 0
 177 -12 97 112 97 250 c 0
 97 271 99 293 103 315 c 0
 138 512 317 658 482 658 c 0
 605 658 634 613 693 613 c 1
 687 448 l 1
 655 444 l 1
 648 543 610 621 464 621 c 0
 385 621 229 537 193 334 c 0
 188 309 186 284 186 260 c 0
 186 139 241 29 370 29 c 0
 463 29 536 62 621 140 c 1
 641 125 l 1
 558 36 460 -12 364 -12 c 0
EndSplineSet
Position2: "'cpsp' Versalabstaende 1" dx=2 dy=0 dh=5 dv=0
Substitution2: "'c2sc' Versale nach Kapitaelchen 1" c.sc
EndChar

StartChar: D
Encoding: 68 68 28
Width: 723
VWidth: 999
Flags: W
HStem: -1 34<51.5781 142.698 232.399 448.77> 613 33<160.741 240.676 331.826 509.449>
VStem: 652 94<241.529 474.612>
DStem2: 151 73 231 72 0.174569 0.984645<2.11436 525.482>
LayerCount: 2
Fore
SplineSet
231 72 m 2
 230 68 230 64 230 61 c 0
 230 38 250 33 334 33 c 0
 588 33 652 210 652 363 c 0
 652 492 590 613 412 613 c 0
 362 613 326 609 320 574 c 2
 231 72 l 2
52 19 m 2
 53 24 57 28 62 28 c 2
 91 28 l 2
 129 28 145 41 151 73 c 2
 239 573 l 2
 241 581 241 585 241 591 c 0
 241 612 229 618 196 618 c 2
 167 618 l 2
 163 618 160 620 160 625 c 1
 160 625 162 639 164 646 c 1
 291 645 l 2
 348 645 408 646 455 646 c 0
 627 646 746 524 746 366 c 0
 746 172 604 -1 358 -1 c 0
 256 -1 214 1 177 1 c 2
 49 -1 l 1
 52 19 l 2
EndSplineSet
Position2: "'cpsp' Versalabstaende 1" dx=2 dy=0 dh=5 dv=0
Substitution2: "'c2sc' Versale nach Kapitaelchen 1" d.sc
EndChar

StartChar: E
Encoding: 69 69 29
Width: 566
VWidth: 999
Flags: HMW
HStem: 0 39<194 457> 1 27<15 99> 327 34<246 413> 606 38<288 518> 618 29<126 199>
DStem2: 114 72 195 72 0.173403 0.984851<-13.6891 272.782 307.46 545.737>
LayerCount: 2
Fore
SplineSet
460 606 m 2x30
 325 606 l 2
 301 606 288 598 283 574 c 2
 246 361 l 1
 382 361 l 2
 417 361 429 377 440 405 c 2
 453 435 l 2
 454 439 458 443 461 443 c 2
 483 443 l 2
 486 443 486 441 486 439 c 1
 479 414 467 377 461 344 c 0
 456 310 453 265 453 248 c 1
 449 245 l 1
 426 245 l 2
 421 245 419 249 419 252 c 2
 419 283 l 2
 418 312 410 327 376 327 c 2
 240 327 l 1
 195 72 l 2
 190 45 203 39 225 39 c 2
 391 39 l 2
 467 39 506 98 539 170 c 1
 569 165 l 1
 548 113 527 56 513 0 c 1
 219 0 l 1xb0
 142 1 l 1
 12 -1 l 1
 16 21 l 2
 17 24 19 28 25 28 c 2
 55 28 l 2
 95 28 109 44 114 72 c 2
 203 573 l 2
 208 604 197 618 159 618 c 2
 129 618 l 2x68
 122 618 122 622 123 625 c 2
 126 646 l 1
 256 645 l 1
 333 646 l 1
 590 646 l 1
 585 593 583 532 583 491 c 1
 554 486 l 1
 543 555 535 606 460 606 c 2x30
EndSplineSet
Position2: "'cpsp' Versalabstaende 1" dx=2 dy=0 dh=5 dv=0
Substitution2: "'c2sc' Versale nach Kapitaelchen 1" e.sc
EndChar

StartChar: F
Encoding: 70 70 30
Width: 487
VWidth: 999
Flags: W
HStem: -1 29<15.0156 99.9487 198.152 270> 327 34<246 416.832> 423 20G<463 488.5> 606 40<287.062 515.748> 618 28<129 200.602>
VStem: 423 34<248 320.549> 549 30<491 556.449>
DStem2: 114 72 195 72 0.174569 0.984645<-21.6172 273.08 307.605 546.438>
LayerCount: 2
Fore
SplineSet
283 574 m 2xf6
 246 361 l 1
 386 361 l 2
 421 361 433 377 444 405 c 2
 457 435 l 2
 458 439 461 443 465 443 c 2
 487 443 l 2
 490 443 490 441 490 439 c 1
 483 416 471 377 465 344 c 0
 459 310 458 279 457 248 c 1
 453 245 l 1
 430 245 l 2
 425 245 423 249 423 252 c 2
 423 283 l 2
 422 312 414 327 380 327 c 2
 240 327 l 1
 195 72 l 2
 189 41 202 28 242 28 c 2
 268 28 l 2
 272 28 276 25 275 20 c 2
 271 1 l 1
 270 -1 l 1
 144 1 l 2
 108 1 15 -1 15 -1 c 1
 13 1 l 1
 16 20 l 2
 17 25 21 28 25 28 c 2
 52 28 l 2
 93 28 109 44 114 72 c 2
 203 574 l 2
 208 603 202 618 159 618 c 2
 129 618 l 2
 122 618 122 623 123 625 c 1
 126 645 l 1
 129 646 l 1xee
 254 645 l 1
 329 646 l 1xf6
 585 646 l 1xee
 581 593 579 532 579 491 c 1
 549 486 l 1
 539 555 531 606 456 606 c 2
 325 606 l 2
 301 606 288 598 283 574 c 2xf6
EndSplineSet
Position2: "'cpsp' Versalabstaende 1" dx=2 dy=0 dh=5 dv=0
Substitution2: "'c2sc' Versale nach Kapitaelchen 1" f.sc
EndChar

StartChar: G
Encoding: 71 71 31
Width: 709
VWidth: 999
Flags: HMW
HStem: -12 37<326 511> 271 36<523 595 687 741> 621 37<401 586>
VStem: 98 91<164 367> 678 31<448 521>
DStem2: 570 74 657 111 0.199368 0.979925<48.8994 167.574>
LayerCount: 2
Fore
SplineSet
507 658 m 0
 630 658 656 613 716 613 c 1
 709 448 l 1
 678 444 l 1
 670 543 632 621 487 621 c 0
 352 621 224 502 193 327 c 0
 190 310 188 292 188 274 c 0
 188 154 259 24 414 24 c 0
 468 24 530 42 570 74 c 1
 597 227 l 2
 598 231 598 235 598 239 c 0
 598 261 583 271 550 271 c 2
 523 271 l 2
 519 271 516 274 517 279 c 2
 521 305 l 1
 523 307 l 1
 523 307 610 305 649 305 c 0
 685 305 743 307 743 307 c 1
 744 305 l 1
 740 279 l 2
 739 274 735 271 730 271 c 2
 729 271 l 2
 695 271 682 255 677 227 c 2
 657 111 l 1
 656 109 656 108 656 106 c 0
 656 97 661 90 668 83 c 1
 590 25 503 -12 385 -12 c 0
 206 -12 98 104 98 251 c 0
 98 269 99 288 103 307 c 0
 142 527 336 658 507 658 c 0
EndSplineSet
Position2: "'cpsp' Versalabstaende 1" dx=2 dy=0 dh=5 dv=0
Substitution2: "'c2sc' Versale nach Kapitaelchen 1" g.sc
EndChar

StartChar: grave
Encoding: 96 96 32
Width: 392
VWidth: 999
Flags: HMW
LayerCount: 2
Fore
SplineSet
301 698 m 1
 349 573 l 2
 351 567 352 562 352 558 c 0
 352 555 352 552 351 549 c 0
 350 544 342 538 335 538 c 0
 328 538 322 543 309 558 c 2
 214 667 l 1
 218 677 l 1
 229 683 251 701 287 701 c 0
 292 701 298 700 301 698 c 1
EndSplineSet
Substitution2: "'case' Versalformen 1" grave.cap
EndChar

StartChar: ograve
Encoding: 242 242 33
Width: 447
VWidth: 999
Flags: W
HStem: -10 35<199.842 295.783> 406 33<249.303 355.467>
VStem: 78 84<59.8814 274.021> 384 81<164.708 379.418>
LayerCount: 2
Fore
SplineSet
162 170 m 0
 162 42 212 25 243 25 c 0
 355 25 384 205 384 270 c 0
 384 334 384 406 306 406 c 0
 192 406 162 260 162 170 c 0
78 162 m 0
 78 282 157 439 324 439 c 0
 447 439 465 349 465 277 c 0
 465 119 346 -10 218 -10 c 0
 91 -10 78 109 78 162 c 0
343 671 m 1
 412 545 l 2
 418 535 419 528 419 521 c 0
 419 516 412 510 404 510 c 0
 398 510 391 515 375 530 c 2
 261 639 l 1
 263 650 l 1
 271 656 294 673 328 673 c 0
 333 673 339 672 343 671 c 1
EndSplineSet
Substitution2: "'smcp' Gemeine nach Kapitaelchen 1" ograve.sc
AlternateSubs2: "LinLibertine-'aalt' Alle Alternativen zeigen 1" ograve.sc
EndChar

StartChar: oacute
Encoding: 243 243 34
Width: 447
VWidth: 999
Flags: W
HStem: -10 35<199.842 295.783> 406 33<249.303 355.467> 639 20G<354.5 374.5>
VStem: 78 84<59.8814 274.021> 384 81<164.708 379.418>
LayerCount: 2
Fore
SplineSet
162 170 m 0
 162 42 212 25 243 25 c 0
 355 25 384 205 384 270 c 0
 384 334 384 406 306 406 c 0
 192 406 162 260 162 170 c 0
78 162 m 0
 78 282 157 439 324 439 c 0
 447 439 465 349 465 277 c 0
 465 119 346 -10 218 -10 c 0
 91 -10 78 109 78 162 c 0
348 658 m 1
 350 658 353 659 356 659 c 0
 393 659 410 630 414 627 c 1
 415 616 l 1
 286 525 l 2
 269 514 262 510 256 510 c 0
 246 510 241 518 241 522 c 0
 241 527 243 537 251 545 c 2
 348 658 l 1
EndSplineSet
Substitution2: "'smcp' Gemeine nach Kapitaelchen 1" oacute.sc
AlternateSubs2: "LinLibertine-'aalt' Alle Alternativen zeigen 1" oacute.sc
EndChar

StartChar: ocircumflex
Encoding: 244 244 35
Width: 447
VWidth: 999
Flags: W
HStem: -10 35<199.842 295.783> 406 33<249.303 355.467> 633 20G<311 389>
VStem: 78 84<59.8814 274.021> 384 81<164.708 379.418>
LayerCount: 2
Fore
SplineSet
162 170 m 0
 162 42 212 25 243 25 c 0
 355 25 384 205 384 270 c 0
 384 334 384 406 306 406 c 0
 192 406 162 260 162 170 c 0
78 162 m 0
 78 282 157 439 324 439 c 0
 447 439 465 349 465 277 c 0
 465 119 346 -10 218 -10 c 0
 91 -10 78 109 78 162 c 0
380 653 m 1
 398 606 425 563 451 523 c 1
 428 510 l 1
 396 539 368 564 342 600 c 1
 296 562 258 537 214 510 c 1
 198 523 l 1
 242 563 291 607 331 653 c 1
 380 653 l 1
EndSplineSet
Substitution2: "'smcp' Gemeine nach Kapitaelchen 1" ocircumflex.sc
AlternateSubs2: "LinLibertine-'aalt' Alle Alternativen zeigen 1" ocircumflex.sc
EndChar

StartChar: otilde
Encoding: 245 245 36
Width: 447
VWidth: 999
Flags: W
HStem: -10 35<199.842 295.783> 406 33<249.303 355.467> 526 44<341.023 424.308> 574 46<220.35 306.544>
VStem: 78 84<59.8814 274.021> 384 81<164.708 379.418>
LayerCount: 2
Fore
SplineSet
162 170 m 0
 162 42 212 25 243 25 c 0
 355 25 384 205 384 270 c 0
 384 334 384 406 306 406 c 0
 192 406 162 260 162 170 c 0
78 162 m 0
 78 282 157 439 324 439 c 0
 447 439 465 349 465 277 c 0
 465 119 346 -10 218 -10 c 0
 91 -10 78 109 78 162 c 0
388 570 m 0
 409 570 426 580 450 622 c 1
 472 616 l 1
 446 556 411 526 364 526 c 0
 342 526 325 538 307 552 c 0
 291 563 275 574 257 574 c 0
 231 574 215 559 198 526 c 1
 175 531 l 1
 203 590 232 620 275 620 c 0
 306 620 324 606 341 592 c 0
 354 580 369 570 388 570 c 0
EndSplineSet
Substitution2: "'smcp' Gemeine nach Kapitaelchen 1" otilde.sc
AlternateSubs2: "LinLibertine-'aalt' Alle Alternativen zeigen 1" otilde.sc
EndChar

StartChar: odieresis
Encoding: 246 246 37
Width: 447
VWidth: 999
Flags: W
HStem: -10 35<199.842 295.783> 406 33<249.303 355.467> 527 90<217.25 285.75 377.555 446.75>
VStem: 78 84<59.8814 274.021> 205 93<538.254 605.746> 366 93<538.285 606.715> 384 81<164.708 379.418>
LayerCount: 2
Fore
SplineSet
205 564 m 0xf8
 205 585 226 617 257 617 c 0
 279 617 298 601 298 580 c 0
 298 559 277 527 246 527 c 0
 224 527 205 543 205 564 c 0xf8
366 564 m 0xfc
 366 586 387 618 418 618 c 0
 440 618 459 602 459 581 c 0
 459 559 438 527 407 527 c 0
 385 527 366 543 366 564 c 0xfc
162 170 m 0
 162 42 212 25 243 25 c 0
 355 25 384 205 384 270 c 0xfa
 384 334 384 406 306 406 c 0
 192 406 162 260 162 170 c 0
78 162 m 0
 78 282 157 439 324 439 c 0
 447 439 465 349 465 277 c 0
 465 119 346 -10 218 -10 c 0
 91 -10 78 109 78 162 c 0
EndSplineSet
Substitution2: "'smcp' Gemeine nach Kapitaelchen 1" odieresis.sc
AlternateSubs2: "LinLibertine-'aalt' Alle Alternativen zeigen 1" odieresis.sc
EndChar

StartChar: divide
Encoding: 247 247 38
Width: 527
VWidth: 999
Flags: W
HStem: 34 98<246.541 315.149> 219 49<128 512> 359 99<318.541 387.149>
VStem: 230 101<50.3086 115.691> 302 101<375.618 441.777>
LayerCount: 2
Fore
SplineSet
230 72 m 0xf0
 230 102 259 132 292 132 c 0
 315 132 331 116 331 94 c 0
 331 60 298 34 269 34 c 0
 246 34 230 50 230 72 c 0xf0
302 397 m 0xe8
 302 428 331 458 364 458 c 0
 387 458 403 441 403 419 c 0
 403 386 370 359 341 359 c 0
 317 359 302 375 302 397 c 0xe8
523 268 m 1
 512 219 l 1
 116 219 l 1
 128 268 l 1
 523 268 l 1
EndSplineSet
EndChar

StartChar: ugrave
Encoding: 249 249 39
Width: 521
VWidth: 999
Flags: W
HStem: -10 52<174.953 264.496 405.004 464.455> 382 57<169.137 243> 422 20G<512.5 518.365>
VStem: 120 78<43.3997 182.18> 186 81<295.008 419.297> 363 75<14.6797 152.312>
DStem2: 97.4109 -10 172.307 -10 0.21644 0.976296<116.233 387.751> 350.057 -10 419.628 -10 0.21644 0.976296<86.8685 168.541 203.326 456.772>
LayerCount: 2
Fore
SplineSet
226 439 m 0xcc
 260 439 267 426 267 402 c 0xcc
 267 383 260 350 251 316 c 2
 208 151 l 2
 201 124 198 102 198 86 c 0
 198 53 211 42 229 42 c 0
 279 42 330 117 404 243 c 1
 448 433 l 1
 459 433 502 438 523 442 c 1
 450 127 l 2
 442 95 438 69 438 59 c 0
 438 48 449 45 451 45 c 0
 462 45 478 67 504 106 c 1
 527 90 l 1
 491 27 452 -10 406 -10 c 0
 372 -10 363 16 363 35 c 0
 363 47 366 70 374 98 c 2
 389 154 l 1
 386 156 l 1
 315 52 276 -10 187 -10 c 0
 149 -10 120 13 120 70 c 0xb4
 120 89 123 111 130 137 c 2
 175 308 l 2
 184 341 186 358 186 368 c 0
 186 379 180 382 173 382 c 0
 162 382 143 363 112 327 c 1
 90 344 l 1
 125 392 181 439 226 439 c 0xcc
350 671 m 1
 419 545 l 2
 425 535 426 528 426 521 c 0
 426 516 419 510 411 510 c 0
 405 510 398 515 382 530 c 2
 268 639 l 1
 270 650 l 1
 278 656 301 673 335 673 c 0
 340 673 346 672 350 671 c 1
EndSplineSet
Substitution2: "'smcp' Gemeine nach Kapitaelchen 1" ugrave.sc
AlternateSubs2: "LinLibertine-'aalt' Alle Alternativen zeigen 1" ugrave.sc
EndChar

StartChar: uacute
Encoding: 250 250 40
Width: 521
VWidth: 999
Flags: W
HStem: -10 52<174.953 264.496 405.004 464.455> 382 57<169.137 243> 422 20G<512.5 518.365> 639 20G<437.5 457.5>
VStem: 120 78<43.3997 182.18> 186 81<295.008 419.297> 363 75<14.6797 152.312>
DStem2: 97.4109 -10 172.307 -10 0.21644 0.976296<116.233 387.751> 350.057 -10 419.628 -10 0.21644 0.976296<86.8685 168.541 203.326 456.772>
LayerCount: 2
Fore
SplineSet
226 439 m 0xd6
 260 439 267 426 267 402 c 0xd6
 267 383 260 350 251 316 c 2
 208 151 l 2
 201 124 198 102 198 86 c 0
 198 53 211 42 229 42 c 0
 279 42 330 117 404 243 c 1
 448 433 l 1
 459 433 502 438 523 442 c 1
 450 127 l 2
 442 95 438 69 438 59 c 0
 438 48 449 45 451 45 c 0
 462 45 478 67 504 106 c 1
 527 90 l 1
 491 27 452 -10 406 -10 c 0
 372 -10 363 16 363 35 c 0
 363 47 366 70 374 98 c 2
 389 154 l 1
 386 156 l 1
 315 52 276 -10 187 -10 c 0
 149 -10 120 13 120 70 c 0xba
 120 89 123 111 130 137 c 2
 175 308 l 2
 184 341 186 358 186 368 c 0
 186 379 180 382 173 382 c 0
 162 382 143 363 112 327 c 1
 90 344 l 1
 125 392 181 439 226 439 c 0xd6
431 658 m 1
 433 658 436 659 439 659 c 0
 476 659 493 630 497 627 c 1
 498 616 l 1
 369 525 l 2
 352 514 345 510 339 510 c 0
 329 510 324 518 324 522 c 0
 324 527 326 537 334 545 c 2
 431 658 l 1
EndSplineSet
Substitution2: "'smcp' Gemeine nach Kapitaelchen 1" uacute.sc
AlternateSubs2: "LinLibertine-'aalt' Alle Alternativen zeigen 1" uacute.sc
EndChar

StartChar: ucircumflex
Encoding: 251 251 41
Width: 521
VWidth: 999
Flags: W
HStem: -10 52<174.953 264.496 405.004 464.455> 382 57<169.137 243> 422 20G<512.5 518.365> 633 20G<359 437>
VStem: 120 78<43.3997 182.18> 186 81<295.008 419.297> 363 75<14.6797 152.312>
DStem2: 97.4109 -10 172.307 -10 0.21644 0.976296<116.233 387.751> 350.057 -10 419.628 -10 0.21644 0.976296<86.8685 168.541 203.326 456.772>
LayerCount: 2
Fore
SplineSet
226 439 m 0xd6
 260 439 267 426 267 402 c 0xd6
 267 383 260 350 251 316 c 2
 208 151 l 2
 201 124 198 102 198 86 c 0
 198 53 211 42 229 42 c 0
 279 42 330 117 404 243 c 1
 448 433 l 1
 459 433 502 438 523 442 c 1
 450 127 l 2
 442 95 438 69 438 59 c 0
 438 48 449 45 451 45 c 0
 462 45 478 67 504 106 c 1
 527 90 l 1
 491 27 452 -10 406 -10 c 0
 372 -10 363 16 363 35 c 0
 363 47 366 70 374 98 c 2
 389 154 l 1
 386 156 l 1
 315 52 276 -10 187 -10 c 0
 149 -10 120 13 120 70 c 0xba
 120 89 123 111 130 137 c 2
 175 308 l 2
 184 341 186 358 186 368 c 0
 186 379 180 382 173 382 c 0
 162 382 143 363 112 327 c 1
 90 344 l 1
 125 392 181 439 226 439 c 0xd6
428 653 m 1
 446 606 473 563 499 523 c 1
 476 510 l 1
 444 539 416 564 390 600 c 1
 344 562 306 537 262 510 c 1
 246 523 l 1
 290 563 339 607 379 653 c 1
 428 653 l 1
EndSplineSet
Substitution2: "'smcp' Gemeine nach Kapitaelchen 1" ucircumflex.sc
AlternateSubs2: "LinLibertine-'aalt' Alle Alternativen zeigen 1" ucircumflex.sc
EndChar

StartChar: ebreve
Encoding: 277 277 42
Width: 411
VWidth: 999
Flags: W
HStem: -10 48<199.431 306.395> 408 31<261.679 358.161> 501 57<287.772 414.501> 630 20G<234 263.5 472.5 504>
VStem: 83 83<72.8728 229.761> 232 31<589.773 638.849> 365 70<305.657 404.017> 481 23<626.727 640.261>
LayerCount: 2
Fore
SplineSet
365 370 m 0
 365 399 349 408 313 408 c 0
 265 408 206 377 171 226 c 1
 248 232 365 275 365 370 c 0
167 199 m 1
 166 191 166 170 166 165 c 0
 166 74 205 38 250 38 c 0
 298 38 334 66 388 124 c 1
 410 108 l 1
 354 31 295 -10 214 -10 c 0
 112 -10 83 57 83 142 c 0
 83 269 165 439 336 439 c 0
 417 439 435 404 435 369 c 0
 435 331 428 250 167 199 c 1
264 650 m 1
 263 644 263 639 263 634 c 0
 263 590 298 558 352 558 c 0
 398 558 464 588 481 650 c 1
 504 636 l 1
 471 535 389 501 339 501 c 0
 270 501 232 546 232 611 c 0
 232 619 233 627 234 636 c 1
 264 650 l 1
EndSplineSet
EndChar

StartChar: Edotaccent
Encoding: 278 278 43
Width: 566
VWidth: 999
Flags: W
HStem: 0 39<194.106 457.518> 1 27<14.875 99.2852> 327 34<246 412.832> 423 20G<459.5 484.5> 606 40<287.062 519.801> 618 28<126 199.454> 692 96<392.441 464.536>
VStem: 380 97<704.681 775.152> 419 34<248 320.517> 554 29<491 551.467>
DStem2: 114 72 195 72 0.172666 0.98498<-13.7509 272.926 307.451 546.274>
LayerCount: 2
Fore
SplineSet
460 606 m 2x3ac0
 325 606 l 2
 301 606 288 598 283 574 c 2
 246 361 l 1
 382 361 l 2
 417 361 429 377 440 405 c 2
 453 435 l 2
 454 439 458 443 461 443 c 2
 483 443 l 2
 486 443 486 441 486 439 c 1
 479 414 467 377 461 344 c 0
 456 310 453 265 453 248 c 1
 449 245 l 1
 426 245 l 2
 421 245 419 249 419 252 c 2
 419 283 l 2
 418 312 410 327 376 327 c 2
 240 327 l 1
 195 72 l 2
 190 45 203 39 225 39 c 2
 391 39 l 2
 467 39 506 98 539 170 c 1
 569 165 l 1
 548 113 527 56 513 0 c 1
 219 0 l 1xbac0
 142 1 l 1
 12 -1 l 1
 16 21 l 2
 17 24 19 28 25 28 c 2
 55 28 l 2
 95 28 109 44 114 72 c 2
 203 573 l 2
 208 604 197 618 159 618 c 2
 129 618 l 2
 122 618 122 622 123 625 c 2
 126 646 l 1x76c0
 256 645 l 1
 333 646 l 1x3ac0
 590 646 l 1x36c0
 585 593 583 532 583 491 c 1
 554 486 l 1
 543 555 535 606 460 606 c 2x3ac0
436 788 m 0
 458 788 477 772 477 747 c 0
 477 717 450 692 422 692 c 0
 397 692 380 710 380 732 c 0x3340
 380 760 404 788 436 788 c 0
EndSplineSet
Position2: "'cpsp' Versalabstaende 1" dx=2 dy=0 dh=5 dv=0
EndChar

StartChar: edotaccent
Encoding: 279 279 44
Width: 411
VWidth: 999
Flags: W
HStem: -10 48<199.431 306.395> 408 31<261.679 358.161> 523 96<306.441 378.536>
VStem: 83 83<72.8728 229.761> 294 97<535.681 606.152> 365 70<305.657 404.017>
LayerCount: 2
Fore
SplineSet
365 370 m 0xf4
 365 399 349 408 313 408 c 0
 265 408 206 377 171 226 c 1
 248 232 365 275 365 370 c 0xf4
167 199 m 1
 166 191 166 170 166 165 c 0
 166 74 205 38 250 38 c 0
 298 38 334 66 388 124 c 1
 410 108 l 1
 354 31 295 -10 214 -10 c 0
 112 -10 83 57 83 142 c 0
 83 269 165 439 336 439 c 0
 417 439 435 404 435 369 c 0
 435 331 428 250 167 199 c 1
350 619 m 0
 372 619 391 603 391 578 c 0
 391 548 364 523 336 523 c 0
 311 523 294 541 294 563 c 0xf8
 294 591 318 619 350 619 c 0
EndSplineSet
EndChar

StartChar: Eogonek
Encoding: 280 280 45
Width: 566
VWidth: 999
Flags: W
HStem: -224 39<385.181 468.941> 0 39<194.106 411 439.24 457.518> 1 27<14.875 99.2852> 327 34<246 412.832> 423 20G<459.5 484.5> 606 40<287.062 519.801> 618 28<126 199.454>
VStem: 311 60<-173.091 -73.8907> 419 34<248 320.517> 554 29<491 551.467>
DStem2: 114 72 195 72 0.172666 0.98498<-13.7509 272.926 307.451 546.274>
LayerCount: 2
Fore
SplineSet
404 -224 m 0xddc0
 351 -224 311 -193 311 -139 c 0
 311 -92 351 -33 411 0 c 1
 219 0 l 1xddc0
 142 1 l 1
 12 -1 l 1
 16 21 l 2
 17 24 19 28 25 28 c 2
 55 28 l 2
 95 28 109 44 114 72 c 2
 203 573 l 2
 208 604 197 618 159 618 c 2
 129 618 l 2
 122 618 122 622 123 625 c 2
 126 646 l 1xbbc0
 256 645 l 1
 333 646 l 1x9dc0
 590 646 l 1x9bc0
 585 593 583 532 583 491 c 1
 554 486 l 1
 543 555 535 606 460 606 c 2
 325 606 l 2
 301 606 288 598 283 574 c 2
 246 361 l 1
 382 361 l 2
 417 361 429 377 440 405 c 2
 453 435 l 2
 454 439 458 443 461 443 c 2
 483 443 l 2
 486 443 486 441 486 439 c 1
 479 414 467 377 461 344 c 0
 456 310 453 265 453 248 c 1
 449 245 l 1
 426 245 l 2
 421 245 419 249 419 252 c 2
 419 283 l 2
 418 312 410 327 376 327 c 2
 240 327 l 1
 195 72 l 2
 190 45 203 39 225 39 c 2
 391 39 l 2
 467 39 506 98 539 170 c 1
 569 165 l 1
 548 113 527 56 513 0 c 1
 506 0 l 2
 426 0 371 -75 371 -126 c 0
 371 -158 393 -185 429 -185 c 0
 459 -185 479 -170 499 -149 c 1
 514 -157 l 1
 490 -204 440 -224 404 -224 c 0xddc0
EndSplineSet
Position2: "'cpsp' Versalabstaende 1" dx=2 dy=0 dh=5 dv=0
Substitution2: "'c2sc' Versale nach Kapitaelchen 1" eogonek.sc
EndChar

StartChar: eogonek
Encoding: 281 281 46
Width: 437
VWidth: 999
Flags: W
HStem: -208 38<242.035 318.34> -12 48<201.262 290.101> 411 31<285.04 388.453>
VStem: 75 83<81.9025 213.539> 171 61<-161.42 -77.3046> 398 70<311.048 403.909>
LayerCount: 2
Fore
SplineSet
164 211 m 1
 240 218 398 260 398 371 c 0
 398 400 373 411 338 411 c 0
 289 411 198 363 164 211 c 1
468 370 m 0
 468 332 433 219 159 185 c 1
 158 177 158 170 158 165 c 0
 158 74 212 36 257 36 c 0
 305 36 349 64 402 122 c 1
 424 106 l 1
 399 71 372 44 342 24 c 1
 302 -7 232 -69 232 -125 c 0
 232 -148 251 -170 284 -170 c 0
 314 -170 333 -156 358 -134 c 1
 372 -141 l 1
 335 -186 295 -208 254 -208 c 0
 206 -208 171 -186 171 -142 c 0
 171 -93 212 -46 255 -10 c 1
 244 -11 233 -12 221 -12 c 0
 119 -12 75 57 75 142 c 0
 75 269 189 442 360 442 c 0
 441 442 468 405 468 370 c 0
EndSplineSet
Substitution2: "'smcp' Gemeine nach Kapitaelchen 1" eogonek.sc
AlternateSubs2: "LinLibertine-'aalt' Alle Alternativen zeigen 1" eogonek.sc
EndChar

StartChar: Ecaron
Encoding: 282 282 47
Width: 566
VWidth: 999
Flags: W
HStem: 0 39<194.106 457.518> 1 27<14.875 99.2852> 327 34<246 412.832> 423 20G<459.5 484.5> 606 40<287.062 519.801> 618 28<126 199.454> 697 21G<378.5 451>
VStem: 419 34<248 320.517> 554 29<491 551.467>
DStem2: 114 72 195 72 0.172666 0.98498<-13.7509 272.926 307.451 546.274>
LayerCount: 2
Fore
SplineSet
460 606 m 2x3b80
 325 606 l 2
 301 606 288 598 283 574 c 2
 246 361 l 1
 382 361 l 2
 417 361 429 377 440 405 c 2
 453 435 l 2
 454 439 458 443 461 443 c 2
 483 443 l 2
 486 443 486 441 486 439 c 1
 479 414 467 377 461 344 c 0
 456 310 453 265 453 248 c 1
 449 245 l 1
 426 245 l 2
 421 245 419 249 419 252 c 2
 419 283 l 2
 418 312 410 327 376 327 c 2
 240 327 l 1
 195 72 l 2
 190 45 203 39 225 39 c 2
 391 39 l 2
 467 39 506 98 539 170 c 1
 569 165 l 1
 548 113 527 56 513 0 c 1
 219 0 l 1xbb80
 142 1 l 1
 12 -1 l 1
 16 21 l 2
 17 24 19 28 25 28 c 2
 55 28 l 2
 95 28 109 44 114 72 c 2
 203 573 l 2
 208 604 197 618 159 618 c 2
 129 618 l 2
 122 618 122 622 123 625 c 2
 126 646 l 1x7780
 256 645 l 1
 333 646 l 1x3b80
 590 646 l 1x3780
 585 593 583 532 583 491 c 1
 554 486 l 1
 543 555 535 606 460 606 c 2x3b80
389 697 m 1
 368 734 340 764 310 792 c 1
 330 812 l 1
 366 795 395 776 423 751 c 1
 465 777 502 796 544 812 c 1
 554 792 l 1
 510 763 470 731 432 697 c 1
 389 697 l 1
EndSplineSet
Position2: "'cpsp' Versalabstaende 1" dx=2 dy=0 dh=5 dv=0
Substitution2: "'c2sc' Versale nach Kapitaelchen 1" ecaron.sc
EndChar

StartChar: ecaron
Encoding: 283 283 48
Width: 411
VWidth: 999
Flags: W
HStem: -10 48<199.431 306.395> 408 31<261.679 358.161> 625 20G<231 271 446.5 484>
VStem: 83 83<72.8728 229.761> 365 70<305.657 404.017>
LayerCount: 2
Fore
SplineSet
365 370 m 0
 365 399 349 408 313 408 c 0
 265 408 206 377 171 226 c 1
 248 232 365 275 365 370 c 0
167 199 m 1
 166 191 166 170 166 165 c 0
 166 74 205 38 250 38 c 0
 298 38 334 66 388 124 c 1
 410 108 l 1
 354 31 295 -10 214 -10 c 0
 112 -10 83 57 83 142 c 0
 83 269 165 439 336 439 c 0
 417 439 435 404 435 369 c 0
 435 331 428 250 167 199 c 1
302 502 m 1
 284 548 257 594 231 631 c 1
 255 645 l 1
 287 616 313 590 339 554 c 1
 385 592 425 618 468 645 c 1
 484 631 l 1
 440 592 392 547 352 502 c 1
 302 502 l 1
EndSplineSet
Substitution2: "'smcp' Gemeine nach Kapitaelchen 1" ecaron.sc
AlternateSubs2: "LinLibertine-'aalt' Alle Alternativen zeigen 1" ecaron.sc
EndChar

StartChar: Gcircumflex
Encoding: 284 284 49
Width: 709
VWidth: 999
Flags: W
HStem: -12 36<326.533 510.141> 271 36<523 595.141 686.686 741.5> 621 37<400.897 586.302> 690 21G<369.429 399 573.5 611>
VStem: 98 90<164.407 366.727> 598 58<109.859 230.858> 678 31<448 517.377>
DStem2: 550.934 -12 629.732 -12 0.21644 0.976296<138.034 255.054>
LayerCount: 2
Fore
SplineSet
507 658 m 0
 630 658 656 613 716 613 c 1
 709 448 l 1
 678 444 l 1
 670 543 632 621 487 621 c 0
 352 621 224 502 193 327 c 0
 190 310 188 292 188 274 c 0
 188 154 259 24 414 24 c 0
 468 24 530 42 570 74 c 1
 597 227 l 2
 598 231 598 235 598 239 c 0
 598 261 583 271 550 271 c 2
 523 271 l 2
 519 271 516 274 517 279 c 2
 521 305 l 1
 523 307 l 1
 523 307 610 305 649 305 c 0
 685 305 743 307 743 307 c 1
 744 305 l 1
 740 279 l 2
 739 274 735 271 730 271 c 2
 729 271 l 2
 695 271 682 255 677 227 c 2
 657 111 l 1
 656 109 656 108 656 106 c 0
 656 97 661 90 668 83 c 1
 590 25 503 -12 385 -12 c 0
 206 -12 98 104 98 251 c 0
 98 269 99 288 103 307 c 0
 142 527 336 658 507 658 c 0
533 805 m 1
 554 769 581 738 612 711 c 1
 591 690 l 1
 556 708 526 727 499 752 c 1
 456 725 420 707 378 690 c 1
 369 711 l 1
 412 739 452 771 490 805 c 1
 533 805 l 1
EndSplineSet
Position2: "'cpsp' Versalabstaende 1" dx=2 dy=0 dh=5 dv=0
EndChar

StartChar: gcircumflex
Encoding: 285 285 50
Width: 477
VWidth: 999
Flags: W
HStem: -238 39<129.775 306.274> -10 53<145.75 304.242> 124 28<223.168 311.012> 412 27<249.083 334.49> 415 40<431.56 505.5> 625 20G<310 388>
VStem: 7 67<-157.52 -72.7153> 86 56<47.9506 113.261> 123 73<177.28 346.731> 366 72<215.942 387.163> 392 55<-125.226 -39.7707>
LayerCount: 2
Fore
SplineSet
131 -9 m 1xe620
 106 -27 74 -65 74 -113 c 0
 74 -165 138 -199 250 -199 c 0
 338 -199 392 -125 392 -87 c 0
 392 -52 373 -10 225 -10 c 2
 167 -12 l 2
 153 -12 144 -12 131 -9 c 1xe620
438 305 m 0xeec0
 438 183 344 124 253 124 c 0
 216 124 195 131 174 145 c 1
 156 124 142 105 142 82 c 0
 142 54 163 43 193 43 c 0
 202 43 219 44 238 47 c 0
 262 49 289 51 305 51 c 0
 426 51 447 -24 447 -50 c 0
 447 -149 336 -238 199 -238 c 0
 118 -238 7 -217 7 -136 c 0
 7 -76 61 -30 114 -1 c 1
 88 14 86 40 86 50 c 0xef20
 86 90 118 136 153 163 c 1
 132 196 123 228 123 271 c 0
 123 361 206 439 309 439 c 0xf680
 355 439 376 424 397 407 c 1
 435 450 484 455 494 455 c 0
 517 455 533 440 533 421 c 0
 533 401 520 388 502 388 c 0
 484 388 479 397 474 405 c 0
 471 410 468 415 459 415 c 0
 451 415 432 403 416 386 c 1
 433 362 438 328 438 305 c 0xeec0
366 305 m 0xf6c0
 366 365 347 412 296 412 c 0
 227 412 196 344 196 269 c 0
 196 219 199 152 263 152 c 0
 336 152 366 224 366 305 c 0xf6c0
379 645 m 1
 397 598 424 555 450 515 c 1
 427 502 l 1
 395 531 367 556 341 592 c 1
 295 554 257 529 213 502 c 1
 197 515 l 1
 241 555 290 599 330 645 c 1
 379 645 l 1
EndSplineSet
EndChar

StartChar: Gbreve
Encoding: 286 286 51
Width: 709
VWidth: 999
Flags: W
HStem: -12 36<326.533 510.141> 271 36<523 595.141 686.686 741.5> 621 37<400.897 586.302> 693 52<435.968 585.63>
VStem: 98 90<164.407 366.727> 387 28<774.252 806> 598 58<109.859 230.858> 631 27<785.883 806> 678 31<448 517.377>
DStem2: 550.934 -12 629.732 -12 0.21644 0.976296<138.034 255.054>
LayerCount: 2
Fore
SplineSet
507 658 m 0xfe80
 630 658 656 613 716 613 c 1
 709 448 l 1
 678 444 l 1
 670 543 632 621 487 621 c 0
 352 621 224 502 193 327 c 0
 190 310 188 292 188 274 c 0
 188 154 259 24 414 24 c 0
 468 24 530 42 570 74 c 1
 597 227 l 2
 598 231 598 235 598 239 c 0
 598 261 583 271 550 271 c 2
 523 271 l 2
 519 271 516 274 517 279 c 2
 521 305 l 1
 523 307 l 1
 523 307 610 305 649 305 c 0
 685 305 743 307 743 307 c 1
 744 305 l 1
 740 279 l 2
 739 274 735 271 730 271 c 2
 729 271 l 2
 695 271 682 255 677 227 c 2
 657 111 l 1
 656 109 656 108 656 106 c 0
 656 97 661 90 668 83 c 1
 590 25 503 -12 385 -12 c 0
 206 -12 98 104 98 251 c 0
 98 269 99 288 103 307 c 0
 142 527 336 658 507 658 c 0xfe80
503 693 m 0
 423 693 387 738 387 795 c 0
 387 799 387 803 387 806 c 1
 415 806 l 1
 415 802 417 745 512 745 c 0
 563 745 617 769 631 806 c 1
 658 806 l 1xfd80
 641 731 564 693 503 693 c 0
EndSplineSet
Position2: "'cpsp' Versalabstaende 1" dx=2 dy=0 dh=5 dv=0
Substitution2: "'c2sc' Versale nach Kapitaelchen 1" gbreve.sc
EndChar

StartChar: gbreve
Encoding: 287 287 52
Width: 477
VWidth: 999
Flags: W
HStem: -238 39<129.775 306.274> -10 53<145.75 304.242> 124 28<223.168 311.012> 412 27<249.083 334.49> 415 40<431.56 505.5> 497 57<267.772 394.501> 626 20G<214 243.5 452.5 484>
VStem: 7 67<-157.52 -72.7153> 86 56<47.9506 113.261> 123 73<177.28 346.731> 212 31<585.773 634.849> 366 72<215.942 387.163> 392 55<-125.226 -39.7707> 461 23<622.727 636.261>
LayerCount: 2
Fore
SplineSet
131 -9 m 1xe72c
 106 -27 74 -65 74 -113 c 0
 74 -165 138 -199 250 -199 c 0
 338 -199 392 -125 392 -87 c 0
 392 -52 373 -10 225 -10 c 2
 167 -12 l 2
 153 -12 144 -12 131 -9 c 1xe72c
438 305 m 0xef74
 438 183 344 124 253 124 c 0
 216 124 195 131 174 145 c 1
 156 124 142 105 142 82 c 0
 142 54 163 43 193 43 c 0
 202 43 219 44 238 47 c 0
 262 49 289 51 305 51 c 0
 426 51 447 -24 447 -50 c 0
 447 -149 336 -238 199 -238 c 0
 118 -238 7 -217 7 -136 c 0
 7 -76 61 -30 114 -1 c 1
 88 14 86 40 86 50 c 0xefac
 86 90 118 136 153 163 c 1
 132 196 123 228 123 271 c 0
 123 361 206 439 309 439 c 0xf764
 355 439 376 424 397 407 c 1
 435 450 484 455 494 455 c 0
 517 455 533 440 533 421 c 0
 533 401 520 388 502 388 c 0
 484 388 479 397 474 405 c 0
 471 410 468 415 459 415 c 0
 451 415 432 403 416 386 c 1
 433 362 438 328 438 305 c 0xef74
366 305 m 0xf774
 366 365 347 412 296 412 c 0
 227 412 196 344 196 269 c 0
 196 219 199 152 263 152 c 0
 336 152 366 224 366 305 c 0xf774
244 646 m 1
 243 640 243 635 243 630 c 0
 243 586 278 554 332 554 c 0
 378 554 444 584 461 646 c 1
 484 632 l 1
 451 531 369 497 319 497 c 0
 250 497 212 542 212 607 c 0
 212 615 213 623 214 632 c 1
 244 646 l 1
EndSplineSet
Substitution2: "'smcp' Gemeine nach Kapitaelchen 1" gbreve.sc
AlternateSubs2: "LinLibertine-'aalt' Alle Alternativen zeigen 1" gbreve.sc
EndChar

StartChar: Gdotaccent
Encoding: 288 288 53
Width: 709
VWidth: 999
Flags: W
HStem: -12 36<326.533 510.141> 271 36<523 595.141 686.686 741.5> 621 37<400.897 586.302> 705 96<487.441 559.536>
VStem: 98 90<164.407 366.727> 475 97<717.681 788.152> 598 58<109.859 230.858> 678 31<448 517.377>
DStem2: 550.934 -12 629.732 -12 0.21644 0.976296<138.034 255.054>
LayerCount: 2
Fore
SplineSet
507 658 m 0
 630 658 656 613 716 613 c 1
 709 448 l 1
 678 444 l 1
 670 543 632 621 487 621 c 0
 352 621 224 502 193 327 c 0
 190 310 188 292 188 274 c 0
 188 154 259 24 414 24 c 0
 468 24 530 42 570 74 c 1
 597 227 l 2
 598 231 598 235 598 239 c 0
 598 261 583 271 550 271 c 2
 523 271 l 2
 519 271 516 274 517 279 c 2
 521 305 l 1
 523 307 l 1
 523 307 610 305 649 305 c 0
 685 305 743 307 743 307 c 1
 744 305 l 1
 740 279 l 2
 739 274 735 271 730 271 c 2
 729 271 l 2
 695 271 682 255 677 227 c 2
 657 111 l 1
 656 109 656 108 656 106 c 0
 656 97 661 90 668 83 c 1
 590 25 503 -12 385 -12 c 0
 206 -12 98 104 98 251 c 0
 98 269 99 288 103 307 c 0
 142 527 336 658 507 658 c 0
531 801 m 0
 553 801 572 785 572 760 c 0
 572 730 545 705 517 705 c 0
 492 705 475 723 475 745 c 0
 475 773 499 801 531 801 c 0
EndSplineSet
Position2: "'cpsp' Versalabstaende 1" dx=2 dy=0 dh=5 dv=0
EndChar

StartChar: gdotaccent
Encoding: 289 289 54
Width: 477
VWidth: 999
Flags: W
HStem: -238 39<129.775 306.274> -10 53<145.75 304.242> 124 28<223.168 311.012> 412 27<249.083 334.49> 415 40<431.56 505.5> 523 95<304.035 375.92>
VStem: 7 67<-157.52 -72.7153> 86 56<47.9506 113.261> 123 73<177.28 346.731> 292 96<534.847 606.375> 366 72<215.942 387.163> 392 55<-125.226 -39.7707>
LayerCount: 2
Fore
SplineSet
131 -9 m 1xe610
 106 -27 74 -65 74 -113 c 0
 74 -165 138 -199 250 -199 c 0
 338 -199 392 -125 392 -87 c 0
 392 -52 373 -10 225 -10 c 2
 167 -12 l 2
 153 -12 144 -12 131 -9 c 1xe610
438 305 m 0xeea0
 438 183 344 124 253 124 c 0
 216 124 195 131 174 145 c 1
 156 124 142 105 142 82 c 0
 142 54 163 43 193 43 c 0
 202 43 219 44 238 47 c 0
 262 49 289 51 305 51 c 0
 426 51 447 -24 447 -50 c 0
 447 -149 336 -238 199 -238 c 0
 118 -238 7 -217 7 -136 c 0
 7 -76 61 -30 114 -1 c 1
 88 14 86 40 86 50 c 0xef10
 86 90 118 136 153 163 c 1
 132 196 123 228 123 271 c 0
 123 361 206 439 309 439 c 0xf680
 355 439 376 424 397 407 c 1
 435 450 484 455 494 455 c 0
 517 455 533 440 533 421 c 0
 533 401 520 388 502 388 c 0
 484 388 479 397 474 405 c 0
 471 410 468 415 459 415 c 0
 451 415 432 403 416 386 c 1
 433 362 438 328 438 305 c 0xeea0
366 305 m 0xf6a0
 366 365 347 412 296 412 c 0
 227 412 196 344 196 269 c 0
 196 219 199 152 263 152 c 0
 336 152 366 224 366 305 c 0xf6a0
347 618 m 0
 370 618 388 603 388 578 c 0
 388 548 362 523 334 523 c 0
 308 523 292 541 292 563 c 0xe640
 292 591 315 618 347 618 c 0
EndSplineSet
EndChar

StartChar: Gcommaaccent
Encoding: 290 290 55
Width: 709
VWidth: 999
Flags: W
HStem: -231 17<281 313.602> -134 81<316.782 378.392> -12 36<326.533 510.141> 271 36<523 595.141 686.686 741.5> 621 37<400.897 586.302>
VStem: 98 90<164.407 366.727> 598 58<109.859 230.858> 678 31<448 517.377>
DStem2: 502.383 -231 581.18 -231 0.21644 0.976296<362.351 479.371>
LayerCount: 2
Fore
SplineSet
507 658 m 0
 630 658 656 613 716 613 c 1
 709 448 l 1
 678 444 l 1
 670 543 632 621 487 621 c 0
 352 621 224 502 193 327 c 0
 190 310 188 292 188 274 c 0
 188 154 259 24 414 24 c 0
 468 24 530 42 570 74 c 1
 597 227 l 2
 598 231 598 235 598 239 c 0
 598 261 583 271 550 271 c 2
 523 271 l 2
 519 271 516 274 517 279 c 2
 521 305 l 1
 523 307 l 1
 523 307 610 305 649 305 c 0
 685 305 743 307 743 307 c 1
 744 305 l 1
 740 279 l 2
 739 274 735 271 730 271 c 2
 729 271 l 2
 695 271 682 255 677 227 c 2
 657 111 l 1
 656 109 656 108 656 106 c 0
 656 97 661 90 668 83 c 1
 590 25 503 -12 385 -12 c 0
 206 -12 98 104 98 251 c 0
 98 269 99 288 103 307 c 0
 142 527 336 658 507 658 c 0
320 -203 m 0
 328 -199 337 -192 349 -182 c 0
 357 -174 364 -165 370 -154 c 0
 375 -146 377 -140 378 -135 c 0
 379 -131 379 -128 379 -125 c 1
 366 -131 355 -134 348 -134 c 0
 334 -134 324 -132 317 -126 c 0
 309 -120 306 -112 306 -103 c 0
 306 -100 306 -96 307 -93 c 0
 310 -82 316 -74 325 -67 c 0
 337 -57 352 -53 368 -53 c 0
 378 -53 387 -55 393 -59 c 0
 401 -64 406 -72 410 -81 c 0
 414 -88 415 -97 415 -106 c 0
 415 -112 415 -119 413 -125 c 0
 410 -138 404 -149 398 -161 c 0
 389 -176 379 -188 369 -196 c 0
 356 -208 344 -215 332 -220 c 0
 312 -228 300 -230 281 -231 c 1
 281 -214 l 1
 288 -213 298 -213 320 -203 c 0
EndSplineSet
Position2: "'cpsp' Versalabstaende 1" dx=2 dy=0 dh=5 dv=0
EndChar

StartChar: gcommaaccent
Encoding: 291 291 56
Width: 477
VWidth: 999
Flags: W
HStem: -238 39<129.775 306.274> -10 53<145.75 304.242> 124 28<223.168 311.012> 412 27<249.083 334.49> 415 40<431.56 505.5> 511 82<310.653 371.771> 673 17<379.522 409>
VStem: 7 67<-157.52 -72.7153> 86 56<47.9506 113.261> 123 73<177.28 346.731> 274 110<523.669 583.305> 366 72<215.942 387.163> 392 55<-125.226 -39.7707>
LayerCount: 2
Fore
SplineSet
131 -9 m 1xe708
 106 -27 74 -65 74 -113 c 0
 74 -165 138 -199 250 -199 c 0
 338 -199 392 -125 392 -87 c 0
 392 -52 373 -10 225 -10 c 2
 167 -12 l 2
 153 -12 144 -12 131 -9 c 1xe708
438 305 m 0xef50
 438 183 344 124 253 124 c 0
 216 124 195 131 174 145 c 1
 156 124 142 105 142 82 c 0
 142 54 163 43 193 43 c 0
 202 43 219 44 238 47 c 0
 262 49 289 51 305 51 c 0
 426 51 447 -24 447 -50 c 0
 447 -149 336 -238 199 -238 c 0
 118 -238 7 -217 7 -136 c 0
 7 -76 61 -30 114 -1 c 1
 88 14 86 40 86 50 c 0xef88
 86 90 118 136 153 163 c 1
 132 196 123 228 123 271 c 0
 123 361 206 439 309 439 c 0xf740
 355 439 376 424 397 407 c 1
 435 450 484 455 494 455 c 0
 517 455 533 440 533 421 c 0
 533 401 520 388 502 388 c 0
 484 388 479 397 474 405 c 0
 471 410 468 415 459 415 c 0
 451 415 432 403 416 386 c 1
 433 362 438 328 438 305 c 0xef50
366 305 m 0xf750
 366 365 347 412 296 412 c 0
 227 412 196 344 196 269 c 0
 196 219 199 152 263 152 c 0
 336 152 366 224 366 305 c 0xf750
322 511 m 0
 282 511 274 548 274 565 c 0
 274 603 313 685 409 690 c 1
 409 673 l 1
 397 670 354 668 319 613 c 1
 318 610 309 595 310 584 c 1
 324 590 334 593 342 593 c 0
 376 593 384 574 384 562 c 0xe720
 384 537 358 511 322 511 c 0
EndSplineSet
EndChar

StartChar: Hcircumflex
Encoding: 292 292 57
Width: 731
VWidth: 999
Flags: W
HStem: -1 29<51.0156 135.949 234.734 306 458.016 543.542 641.734 713> 324 39<282 602> 618 28<164 234.793 334.305 418.25 571 641.793 741.468 825.938> 688 21G<373.429 403 577.5 615>
DStem2: 150 72 231 72 0.174569 0.984645<2.28893 269.952 309.575 521.634> 558 72 638 72 0.174569 0.984645<2.11436 255.812 295.435 521.46>
LayerCount: 2
Fore
SplineSet
537 803 m 1
 558 767 585 736 616 709 c 1
 595 688 l 1
 560 706 530 725 503 750 c 1
 460 723 424 705 382 688 c 1
 373 709 l 1
 416 737 456 769 494 803 c 1
 537 803 l 1
558 72 m 2
 602 324 l 1
 275 324 l 1
 231 72 l 2
 230 67 230 63 230 60 c 0
 230 38 244 28 278 28 c 2
 304 28 l 2
 309 28 312 25 311 20 c 2
 308 1 l 1
 306 -1 l 1
 306 -1 219 1 180 1 c 0
 144 1 51 -1 51 -1 c 1
 49 1 l 1
 52 20 l 2
 53 25 57 28 62 28 c 2
 88 28 l 2
 129 28 145 44 150 72 c 2
 239 574 l 2
 240 578 240 582 240 586 c 0
 240 608 226 618 192 618 c 2
 166 618 l 2
 161 618 158 621 159 626 c 2
 162 645 l 1
 164 646 l 1
 164 646 251 645 290 645 c 0
 326 645 419 646 419 646 c 1
 421 645 l 1
 417 626 l 2
 416 621 413 618 408 618 c 2
 382 618 l 2
 341 618 324 602 319 574 c 2
 282 363 l 1
 609 363 l 1
 646 574 l 2
 647 578 647 582 647 586 c 0
 647 608 633 618 599 618 c 2
 573 618 l 2
 568 618 565 621 566 626 c 2
 569 645 l 1
 571 646 l 1
 571 646 658 645 697 645 c 0
 733 645 826 646 826 646 c 1
 828 645 l 1
 825 626 l 2
 824 621 820 618 815 618 c 2
 789 618 l 2
 748 618 731 602 727 574 c 2
 638 72 l 2
 637 67 637 63 637 60 c 0
 637 38 651 28 685 28 c 2
 711 28 l 2
 716 28 719 25 718 20 c 2
 715 1 l 1
 713 -1 l 1
 713 -1 626 1 587 1 c 0
 551 1 458 -1 458 -1 c 1
 456 1 l 1
 459 20 l 2
 460 25 464 28 469 28 c 2
 495 28 l 2
 536 28 553 44 558 72 c 2
EndSplineSet
Position2: "'cpsp' Versalabstaende 1" dx=2 dy=0 dh=5 dv=0
EndChar

StartChar: hcircumflex
Encoding: 293 293 58
Width: 510
VWidth: 999
Flags: W
HStem: -12 21G<78 143.833> -10 53<372.5 445.026> 390 49<339.984 436.5> 643 29<158 191> 678 20G<284.5 302.5>
VStem: 340 79<15.1587 144.375> 408 78<250.406 386.18>
DStem2: 75.3397 -12 150.679 -12 0.21644 0.976296<40.8892 318.761 340.253 639.256> 325.623 -12 400.85 -12 0.21644 0.976296<91.9439 365.54>
LayerCount: 2
Fore
SplineSet
431 832 m 1x38
 452 796 479 765 510 738 c 1
 489 717 l 1
 454 735 424 754 397 779 c 1
 354 752 318 734 276 717 c 1
 267 738 l 1
 310 766 350 798 388 832 c 1
 431 832 l 1x38
207 238 m 1
 156 12 l 1
 83 -12 l 1
 78 0 l 1
 205 563 l 2
 210 585 212 602 212 613 c 0
 212 635 204 641 191 641 c 2
 160 643 l 2
 156 643 155 645 155 648 c 2
 158 672 l 1
 199 675 271 688 298 698 c 1
 307 698 310 695 310 688 c 1
 310 688 300 648 285 583 c 2
 222 304 l 1
 281 394 356 439 417 439 c 0
 456 439 486 421 486 361 c 0xba
 486 340 480 309 472 280 c 2
 431 124 l 2
 422 89 419 71 419 61 c 0
 419 51 423 43 430 43 c 0
 445 43 465 62 499 102 c 1
 521 85 l 1
 463 14 420 -10 384 -10 c 0
 361 -10 340 5 340 35 c 0x7c
 340 57 344 78 354 116 c 2
 396 272 l 2
 405 305 408 327 408 345 c 0x7a
 408 376 390 390 369 390 c 0
 345 390 276 343 207 238 c 1
EndSplineSet
EndChar

StartChar: Hbar
Encoding: 294 294 59
Width: 731
VWidth: 999
Flags: W
HStem: -1 29<51.0156 135.949 234.734 306 458.016 543.542 641.734 713> 324 39<282 602> 512 34<173 228 314 635 722 756> 618 28<164 234.793 334.305 418.25 571 641.793 741.468 825.938>
DStem2: 150 72 231 72 0.174569 0.984645<2.28893 269.952 309.575 446.86 495.351 521.634> 558 72 638 72 0.174569 0.984645<2.11436 255.812 295.435 446.686 495.351 521.46>
LayerCount: 2
Fore
SplineSet
558 72 m 2
 602 324 l 1
 275 324 l 1
 231 72 l 2
 230 67 230 63 230 60 c 0
 230 38 244 28 278 28 c 2
 304 28 l 2
 309 28 312 25 311 20 c 2
 308 1 l 1
 306 -1 l 1
 306 -1 219 1 180 1 c 0
 144 1 51 -1 51 -1 c 1
 49 1 l 1
 52 20 l 2
 53 25 57 28 62 28 c 2
 88 28 l 2
 129 28 145 44 150 72 c 2
 228 512 l 1
 166 512 l 1
 173 546 l 1
 234 546 l 1
 239 574 l 2
 240 578 240 582 240 586 c 0
 240 608 226 618 192 618 c 2
 166 618 l 2
 161 618 158 621 159 626 c 2
 162 645 l 1
 164 646 l 1
 164 646 251 645 290 645 c 0
 326 645 419 646 419 646 c 1
 421 645 l 1
 417 626 l 2
 416 621 413 618 408 618 c 2
 382 618 l 2
 341 618 324 602 319 574 c 2
 314 546 l 1
 641 546 l 1
 646 574 l 2
 647 578 647 582 647 586 c 0
 647 608 633 618 599 618 c 2
 573 618 l 2
 568 618 565 621 566 626 c 2
 569 645 l 1
 571 646 l 1
 571 646 658 645 697 645 c 0
 733 645 826 646 826 646 c 1
 828 645 l 1
 825 626 l 2
 824 621 820 618 815 618 c 2
 789 618 l 2
 748 618 731 602 727 574 c 2
 722 546 l 1
 763 546 l 1
 756 512 l 1
 716 512 l 1
 638 72 l 2
 637 67 637 63 637 60 c 0
 637 38 651 28 685 28 c 2
 711 28 l 2
 716 28 719 25 718 20 c 2
 715 1 l 1
 713 -1 l 1
 713 -1 626 1 587 1 c 0
 551 1 458 -1 458 -1 c 1
 456 1 l 1
 459 20 l 2
 460 25 464 28 469 28 c 2
 495 28 l 2
 536 28 553 44 558 72 c 2
635 512 m 1
 308 512 l 1
 282 363 l 1
 609 363 l 1
 635 512 l 1
EndSplineSet
Position2: "'cpsp' Versalabstaende 1" dx=2 dy=0 dh=5 dv=0
EndChar

StartChar: hbar
Encoding: 295 295 60
Width: 510
VWidth: 999
Flags: W
HStem: -12 21G<78 143.833> -10 53<372.5 445.026> 390 49<339.984 436.5> 530 39<152 198 282 436> 643 29<158 191> 678 20G<284.5 302.5>
VStem: 340 79<15.1587 144.375> 408 78<250.406 386.18>
DStem2: 75.3397 -12 150.679 -12 0.21644 0.976296<40.8892 318.761 340.253 555.701 611.957 639.302> 325.623 -12 400.85 -12 0.21644 0.976296<91.9439 365.54>
LayerCount: 2
Fore
SplineSet
206 569 m 1xbd
 210 588 212 603 212 613 c 0
 212 635 204 641 191 641 c 2
 160 643 l 2
 156 643 155 645 155 648 c 2
 158 672 l 1
 199 675 271 688 298 698 c 1
 307 698 310 695 310 688 c 1
 310 688 300 648 285 583 c 2
 282 569 l 1
 445 569 l 1
 436 530 l 1
 273 530 l 1
 222 304 l 1
 281 394 356 439 417 439 c 0
 456 439 486 421 486 361 c 0xbd
 486 340 480 309 472 280 c 2
 431 124 l 2
 422 89 419 71 419 61 c 0
 419 51 423 43 430 43 c 0
 445 43 465 62 499 102 c 1
 521 85 l 1
 463 14 420 -10 384 -10 c 0
 361 -10 340 5 340 35 c 0x7e
 340 57 344 78 354 116 c 2
 396 272 l 2
 405 305 408 327 408 345 c 0
 408 376 390 390 369 390 c 0
 345 390 276 343 207 238 c 1
 156 12 l 1
 83 -12 l 1
 78 0 l 1
 198 530 l 1
 143 530 l 1
 152 569 l 1
 206 569 l 1xbd
EndSplineSet
EndChar

StartChar: Itilde
Encoding: 296 296 61
Width: 324
VWidth: 999
Flags: W
HStem: -1 29<51.0156 135.949 234.575 306> 618 28<164 234.557 334.305 418.25> 697 44<309.023 392.308> 745 46<188.35 274.544>
DStem2: 150 71 231 71 0.174232 0.984705<-20.3703 545.324>
LayerCount: 2
Fore
SplineSet
319 574 m 2
 231 71 l 2
 226 41 238 28 278 28 c 2
 304 28 l 2
 309 28 312 25 311 20 c 2
 308 1 l 1
 306 -1 l 1
 306 -1 219 1 180 1 c 0
 144 1 51 -1 51 -1 c 1
 49 1 l 1
 52 20 l 2
 53 25 57 28 62 28 c 2
 88 28 l 2
 129 28 145 43 150 71 c 2
 239 574 l 2
 244 604 231 618 192 618 c 2
 166 618 l 2
 161 618 158 621 159 626 c 2
 162 645 l 1
 164 646 l 1
 164 646 251 645 290 645 c 0
 326 645 419 646 419 646 c 1
 421 645 l 1
 417 626 l 2
 416 621 413 618 408 618 c 2
 382 618 l 2
 341 618 324 602 319 574 c 2
356 741 m 0
 377 741 394 751 418 793 c 1
 440 787 l 1
 414 727 379 697 332 697 c 0
 310 697 293 709 275 723 c 0
 259 734 243 745 225 745 c 0
 199 745 183 730 166 697 c 1
 143 702 l 1
 171 761 200 791 243 791 c 0
 274 791 292 777 309 763 c 0
 322 751 337 741 356 741 c 0
EndSplineSet
Position2: "'cpsp' Versalabstaende 1" dx=2 dy=0 dh=5 dv=0
EndChar

StartChar: itilde
Encoding: 297 297 62
Width: 276
VWidth: 999
Flags: W
HStem: -10 55<136 219.686> 387 24<125 164> 422 20G<255.5 272> 526 44<270.148 345.63> 574 46<161.85 239.958>
VStem: 111 77<25.5 150.984>
DStem2: 96.2882 -10 170.293 -10 0.21644 0.976296<87.6379 378.717>
LayerCount: 2
Fore
SplineSet
245 320 m 2
 200 124 l 2
 193 92 188 68 188 59 c 0
 188 47 199 45 201 45 c 0
 215 45 232 60 262 100 c 1
 285 83 l 1
 234 10 196 -10 153 -10 c 0
 119 -10 111 16 111 35 c 0
 111 54 117 85 124 115 c 2
 173 321 l 2
 177 339 179 351 179 360 c 0
 179 377 173 382 164 383 c 2
 122 387 l 1
 125 411 l 1
 198 422 240 431 271 442 c 1
 273 442 275 442 275 439 c 1
 275 439 257 371 245 320 c 2
313 570 m 0
 332 570 347 580 369 622 c 1
 388 616 l 1
 365 556 334 526 291 526 c 0
 271 526 256 538 240 552 c 0
 226 563 211 574 195 574 c 0
 172 574 157 559 142 526 c 1
 121 531 l 1
 146 590 172 620 211 620 c 0
 239 620 255 606 270 592 c 0
 282 580 296 570 313 570 c 0
EndSplineSet
EndChar

StartChar: Imacron
Encoding: 298 298 63
Width: 324
VWidth: 999
Flags: W
HStem: -1 29<51.0156 135.949 234.575 306> 618 28<164 234.557 334.305 418.25> 733 44<170.755 447.978>
DStem2: 150 71 231 71 0.174232 0.984705<-20.3703 545.324>
LayerCount: 2
Fore
SplineSet
319 574 m 2
 231 71 l 2
 226 41 238 28 278 28 c 2
 304 28 l 2
 309 28 312 25 311 20 c 2
 308 1 l 1
 306 -1 l 1
 306 -1 219 1 180 1 c 0
 144 1 51 -1 51 -1 c 1
 49 1 l 1
 52 20 l 2
 53 25 57 28 62 28 c 2
 88 28 l 2
 129 28 145 43 150 71 c 2
 239 574 l 2
 244 604 231 618 192 618 c 2
 166 618 l 2
 161 618 158 621 159 626 c 2
 162 645 l 1
 164 646 l 1
 164 646 251 645 290 645 c 0
 326 645 419 646 419 646 c 1
 421 645 l 1
 417 626 l 2
 416 621 413 618 408 618 c 2
 382 618 l 2
 341 618 324 602 319 574 c 2
421 733 m 2
 176 733 l 2
 170 733 167 738 167 744 c 0
 167 745 167 747 168 748 c 2
 171 760 185 777 196 777 c 2
 441 777 l 2
 449 777 452 772 452 767 c 0
 452 765 452 764 451 763 c 2
 449 751 434 733 421 733 c 2
EndSplineSet
Position2: "'cpsp' Versalabstaende 1" dx=2 dy=0 dh=5 dv=0
EndChar

StartChar: imacron
Encoding: 299 299 64
Width: 276
VWidth: 999
Flags: W
HStem: -10 55<136 219.686> 387 24<125 164> 422 20G<255.5 272> 538 44<128.681 378.234>
VStem: 111 77<25.5 150.984>
DStem2: 96.2882 -10 170.293 -10 0.21644 0.976296<87.6379 378.717>
LayerCount: 2
Fore
SplineSet
245 320 m 2
 200 124 l 2
 193 92 188 68 188 59 c 0
 188 47 199 45 201 45 c 0
 215 45 232 60 262 100 c 1
 285 83 l 1
 234 10 196 -10 153 -10 c 0
 119 -10 111 16 111 35 c 0
 111 54 117 85 124 115 c 2
 173 321 l 2
 177 339 179 351 179 360 c 0
 179 377 173 382 164 383 c 2
 122 387 l 1
 125 411 l 1
 198 422 240 431 271 442 c 1
 273 442 275 442 275 439 c 1
 275 439 257 371 245 320 c 2
354 538 m 2
 134 538 l 2
 128 538 126 543 126 549 c 0
 126 550 126 552 126 553 c 2
 129 565 142 582 152 582 c 2
 372 582 l 2
 379 582 382 577 382 572 c 0
 382 570 382 569 381 568 c 2
 379 556 366 538 354 538 c 2
EndSplineSet
EndChar

StartChar: Ibreve
Encoding: 300 300 65
Width: 324
VWidth: 999
Flags: W
HStem: -1 29<51.0156 135.949 234.575 306> 618 28<164 234.557 334.305 418.25> 692 52<231.968 381.63>
VStem: 183 28<773.252 805> 427 27<784.883 805>
DStem2: 150 71 231 71 0.174232 0.984705<-20.3703 545.324>
LayerCount: 2
Fore
SplineSet
319 574 m 2
 231 71 l 2
 226 41 238 28 278 28 c 2
 304 28 l 2
 309 28 312 25 311 20 c 2
 308 1 l 1
 306 -1 l 1
 306 -1 219 1 180 1 c 0
 144 1 51 -1 51 -1 c 1
 49 1 l 1
 52 20 l 2
 53 25 57 28 62 28 c 2
 88 28 l 2
 129 28 145 43 150 71 c 2
 239 574 l 2
 244 604 231 618 192 618 c 2
 166 618 l 2
 161 618 158 621 159 626 c 2
 162 645 l 1
 164 646 l 1
 164 646 251 645 290 645 c 0
 326 645 419 646 419 646 c 1
 421 645 l 1
 417 626 l 2
 416 621 413 618 408 618 c 2
 382 618 l 2
 341 618 324 602 319 574 c 2
299 692 m 0
 219 692 183 737 183 794 c 0
 183 798 183 802 183 805 c 1
 211 805 l 1
 211 801 213 744 308 744 c 0
 359 744 413 768 427 805 c 1
 454 805 l 1
 437 730 360 692 299 692 c 0
EndSplineSet
Position2: "'cpsp' Versalabstaende 1" dx=2 dy=0 dh=5 dv=0
EndChar

StartChar: ibreve
Encoding: 301 301 66
Width: 276
VWidth: 999
Flags: W
HStem: -10 55<136 219.686> 387 24<125 164> 422 20G<255.5 272> 503 57<200.045 313.021> 632 20G<152 178.5 366.5 395>
VStem: 111 77<25.5 150.984> 150 28<591.773 640.849> 374 21<628.727 642.667>
DStem2: 96.2882 -10 170.293 -10 0.21644 0.976296<87.6379 378.717>
LayerCount: 2
Fore
SplineSet
245 320 m 2xfd
 200 124 l 2
 193 92 188 68 188 59 c 0
 188 47 199 45 201 45 c 0
 215 45 232 60 262 100 c 1
 285 83 l 1
 234 10 196 -10 153 -10 c 0
 119 -10 111 16 111 35 c 0
 111 54 117 85 124 115 c 2
 173 321 l 2
 177 339 179 351 179 360 c 0
 179 377 173 382 164 383 c 2
 122 387 l 1
 125 411 l 1
 198 422 240 431 271 442 c 1
 273 442 275 442 275 439 c 1
 275 439 257 371 245 320 c 2xfd
179 652 m 1
 178 646 178 641 178 636 c 0
 178 592 209 560 258 560 c 0
 299 560 359 590 374 652 c 1
 395 638 l 1
 365 537 291 503 246 503 c 0
 184 503 150 548 150 613 c 0xfb
 150 621 151 629 152 638 c 1
 179 652 l 1
EndSplineSet
EndChar

StartChar: Iogonek
Encoding: 302 302 67
Width: 324
VWidth: 999
Flags: W
HStem: -225 39<153.181 237.134> 1 27<51.1562 135.125 235.12 306> 618 28<164 234.557 334.305 418.25>
VStem: 79 60<-174.091 -75.4743>
DStem2: 150 71 231 71 0.174232 0.984705<-20.3703 545.324>
LayerCount: 2
Fore
SplineSet
172 -225 m 0
 119 -225 79 -194 79 -140 c 0
 79 -92 121 -32 183 1 c 1
 182 1 181 1 180 1 c 0
 144 1 51 -1 51 -1 c 1
 49 1 l 1
 52 20 l 2
 53 25 57 28 62 28 c 2
 88 28 l 2
 129 28 145 43 150 71 c 2
 239 574 l 2
 244 604 231 618 192 618 c 2
 166 618 l 2
 161 618 158 621 159 626 c 2
 162 645 l 1
 164 646 l 1
 164 646 251 645 290 645 c 0
 326 645 419 646 419 646 c 1
 421 645 l 1
 417 626 l 2
 416 621 413 618 408 618 c 2
 382 618 l 2
 341 618 324 602 319 574 c 2
 231 71 l 2
 226 41 238 28 278 28 c 2
 304 28 l 2
 309 28 312 25 311 20 c 2
 308 1 l 1
 306 -1 l 1
 306 -1 292 -1 273 0 c 1
 274 -1 l 1
 194 -1 139 -76 139 -127 c 0
 139 -159 161 -186 197 -186 c 0
 227 -186 248 -171 267 -150 c 1
 282 -158 l 1
 258 -205 208 -225 172 -225 c 0
EndSplineSet
Position2: "'cpsp' Versalabstaende 1" dx=2 dy=0 dh=5 dv=0
EndChar

StartChar: iogonek
Encoding: 303 303 68
Width: 276
VWidth: 999
Flags: W
HStem: -206 39<134.644 211.127> 387 24<125 164> 422 20G<255.5 272> 523 95<227.035 298.92>
VStem: 64 61<-158.887 -76.1822> 111 77<26.5 150.984> 215 96<534.847 606.375>
DStem2: 52.836 -206 126.841 -206 0.21644 0.976296<288.397 579.476>
LayerCount: 2
Fore
SplineSet
270 618 m 0xf2
 293 618 311 603 311 578 c 0
 311 548 285 523 257 523 c 0
 231 523 215 541 215 563 c 0
 215 591 238 618 270 618 c 0xf2
245 320 m 2
 200 124 l 2
 193 92 188 68 188 59 c 0xf6
 188 47 199 45 201 45 c 0
 215 45 232 60 262 100 c 1
 285 83 l 1
 268 59 253 41 238 27 c 1
 238 25 236 22 230 17 c 0
 213 2 125 -73 125 -123 c 0
 125 -145 144 -167 177 -167 c 0
 207 -167 225 -153 251 -131 c 1
 265 -138 l 1
 228 -183 188 -206 146 -206 c 0
 99 -206 64 -182 64 -138 c 0xfa
 64 -91 103 -51 144 -9 c 1
 118 -5 111 18 111 35 c 0xf6
 111 54 117 85 124 115 c 2
 173 321 l 2
 177 339 179 351 179 360 c 0
 179 377 173 382 164 383 c 2
 122 387 l 1
 125 411 l 1xfa
 198 422 240 431 271 442 c 1
 273 442 275 442 275 439 c 1
 275 439 257 371 245 320 c 2
EndSplineSet
EndChar

StartChar: Idotaccent
Encoding: 304 304 69
Width: 324
VWidth: 999
Flags: W
HStem: -1 29<51.0156 135.949 234.575 306> 618 28<164 234.557 334.305 418.25> 702 96<268.441 340.536>
VStem: 256 97<714.681 785.152>
DStem2: 150 71 231 71 0.174232 0.984705<-20.3703 545.324>
LayerCount: 2
Fore
SplineSet
319 574 m 2
 231 71 l 2
 226 41 238 28 278 28 c 2
 304 28 l 2
 309 28 312 25 311 20 c 2
 308 1 l 1
 306 -1 l 1
 306 -1 219 1 180 1 c 0
 144 1 51 -1 51 -1 c 1
 49 1 l 1
 52 20 l 2
 53 25 57 28 62 28 c 2
 88 28 l 2
 129 28 145 43 150 71 c 2
 239 574 l 2
 244 604 231 618 192 618 c 2
 166 618 l 2
 161 618 158 621 159 626 c 2
 162 645 l 1
 164 646 l 1
 164 646 251 645 290 645 c 0
 326 645 419 646 419 646 c 1
 421 645 l 1
 417 626 l 2
 416 621 413 618 408 618 c 2
 382 618 l 2
 341 618 324 602 319 574 c 2
312 798 m 0
 334 798 353 782 353 757 c 0
 353 727 326 702 298 702 c 0
 273 702 256 720 256 742 c 0
 256 770 280 798 312 798 c 0
EndSplineSet
Position2: "'cpsp' Versalabstaende 1" dx=2 dy=0 dh=5 dv=0
Substitution2: "'c2sc' Versale nach Kapitaelchen 1" idotaccent.sc
EndChar

StartChar: afii10057
Encoding: 1032 1032 70
Width: 371
VWidth: 999
Flags: W
HStem: -12 31<123.979 181.688> 618 28<220 295.25 406.305 478.997>
VStem: 48 74<19.77 81.1243>
DStem2: 191.208 -12 270.331 -12 0.21644 0.976296<78.4606 594.276>
LayerCount: 2
Fore
SplineSet
146 19 m 0
 196 19 213 79 232 172 c 2
 307 559 l 2
 308 563 308 567 308 571 c 0
 308 597 291 618 257 618 c 2
 221 618 l 2
 216 618 213 621 214 626 c 2
 218 645 l 1
 220 646 l 1
 220 646 323 645 362 645 c 0
 398 645 481 646 481 646 c 1
 483 645 l 1
 479 626 l 1
 479 621 475 618 470 618 c 2
 454 618 l 2
 413 618 396 602 391 574 c 2
 316 194 l 2
 281 16 204 -12 141 -12 c 0
 109 -12 48 -3 48 41 c 0
 48 44 48 48 49 51 c 0
 54 76 73 86 88 86 c 0
 115 86 122 63 122 51 c 0
 122 49 122 49 122 46 c 0
 122 33 127 19 146 19 c 0
EndSplineSet
EndChar

StartChar: afii10061
Encoding: 1036 1036 71
Width: 602
VWidth: 999
Flags: W
HStem: -1 29<20.0156 105.542 203.045 274 543.266 583> 590 61<548.788 646.074> 618 28<145 214.301 314.141 398.25> 698 21G<430 438.5>
DStem2: 120 71 201 71 0.191235 0.981544<2.5324 275.114 315.946 525.225>
LayerCount: 2
Fore
SplineSet
583 -1 m 1xd0
 510 0 l 2
 430 1 412 70 390 180 c 0
 370 280 360 321 250 323 c 1
 201 71 l 2
 200 67 199 62 199 58 c 0
 199 37 214 28 247 28 c 2
 273 28 l 2
 278 28 281 25 280 20 c 2
 276 1 l 1
 274 -1 l 1
 274 -1 188 1 148 1 c 0
 113 1 20 -1 20 -1 c 1
 18 1 l 1
 21 20 l 2
 22 25 26 28 31 28 c 2
 57 28 l 2
 98 28 115 43 120 71 c 2
 218 574 l 2
 219 579 219 583 219 587 c 0
 219 608 205 618 172 618 c 2
 146 618 l 2
 141 618 138 621 139 626 c 2
 143 645 l 1
 145 646 l 1
 145 646 231 645 271 645 c 0
 306 645 399 646 399 646 c 1
 401 645 l 1
 397 626 l 2
 396 621 393 618 388 618 c 2
 362 618 l 2xb0
 321 618 304 602 298 574 c 2
 258 366 l 1
 294 366 339 367 366 381 c 0
 431 413 457 488 477 544 c 0
 496 602 558 651 628 651 c 0
 675 651 691 630 691 609 c 0
 691 606 690 603 690 601 c 0
 685 576 659 559 638 559 c 0
 625 559 610 563 604 572 c 0
 595 583 583 590 570 590 c 0
 548 590 521 562 511 533 c 0
 488 470 451 368 365 343 c 1
 434 343 446 296 461 236 c 0
 494 103 535 28 571 28 c 2
 582 28 l 2
 586 28 589 25 588 20 c 2
 584 1 l 1
 583 -1 l 1xd0
434 698 m 0
 426 698 422 701 422 709 c 0
 422 718 429 725 443 734 c 2
 584 818 l 1
 649 773 l 1
 480 710 l 2
 459 703 443 698 434 698 c 0
EndSplineSet
LCarets2: 1 0 
EndChar

StartChar: uni040D
Encoding: 1037 1037 72
Width: 671
VWidth: 999
Flags: W
HStem: -2 29<19.6875 101.045 196.568 262 410.359 492.887 587.568 654> 618 28<156 222.008 316.113 398.25 546 612.807 707.955 789.938> 698 21G<547 559.5>
DStem2: 100.595 -2 177.85 -2 0.21644 0.976296<156.023 603.95> 208 134 196 78 0.687273 0.7264<0 538.905> 491.816 -2 568.816 -2 0.21644 0.976296<76.8062 518.397 575.667 603.857>
LayerCount: 2
Fore
SplineSet
692 574 m 2
 585 71 l 2
 584 66 584 61 584 56 c 0
 584 36 597 27 628 27 c 2
 654 27 l 2
 658 27 661 24 660 19 c 2
 656 0 l 1
 654 -2 l 1
 654 -2 571 0 533 0 c 0
 499 0 409 -2 409 -2 c 1
 407 0 l 1
 412 19 l 2
 413 24 416 27 421 27 c 2
 446 27 l 2
 485 27 502 43 508 71 c 2
 600 505 l 1
 196 78 l 1
 194 72 l 1
 193 66 193 61 193 57 c 0
 193 36 206 27 237 27 c 2
 263 27 l 2
 267 27 270 24 269 19 c 2
 265 0 l 1
 262 -2 l 1
 262 -2 180 0 142 0 c 0
 108 0 18 -2 18 -2 c 1
 17 0 l 1
 21 19 l 1
 21 24 25 27 30 27 c 2
 55 27 l 2
 94 27 111 44 117 72 c 2
 224 575 l 2
 225 580 226 585 226 589 c 0
 226 609 213 618 181 618 c 2
 155 618 l 2
 151 618 148 621 149 626 c 2
 153 645 l 1
 156 646 l 1
 156 646 239 644 276 644 c 0
 310 644 400 646 400 646 c 1
 401 645 l 1
 397 626 l 2
 396 621 393 618 388 618 c 2
 363 618 l 2
 324 618 307 603 301 575 c 2
 208 134 l 1
 612 561 l 1
 615 574 l 2
 616 580 617 584 617 589 c 0
 617 609 603 618 572 618 c 2
 546 618 l 2
 542 618 539 621 540 626 c 2
 544 645 l 1
 546 646 l 1
 546 646 629 644 667 644 c 0
 701 644 791 647 791 647 c 1
 792 645 l 1
 789 626 l 2
 788 621 784 618 779 618 c 2
 754 618 l 2
 715 618 698 602 692 574 c 2
571 717 m 0
 571 711 567 698 552 698 c 0
 542 698 528 703 512 710 c 2
 371 773 l 1
 458 818 l 1
 560 734 l 2
 567 728 571 722 571 717 c 0
EndSplineSet
LCarets2: 1 0 
EndChar

StartChar: afii10062
Encoding: 1038 1038 73
Width: 580
VWidth: 999
Flags: W
HStem: -22 62<130 230.071> 618 28<127 171.15 281.582 360.25 517 580.688 637.513 703.25> 692 38<414.576 504.148>
VStem: 337 73<734.059 799.351>
DStem2: 372 229 197 559 0.258089 -0.966121<-393.33 0> 310 136 373 161 0.509587 0.860419<-111.943 0 111.613 545.5>
LayerCount: 2
Fore
SplineSet
203 40 m 0
 235 40 264 61 310 136 c 1
 197 559 l 2
 191 579 179 618 130 618 c 0
 124 618 121 621 122 625 c 2
 125 645 l 1
 127 646 l 1
 127 646 189 645 230 645 c 0
 280 645 361 646 361 646 c 1
 363 645 l 1
 359 626 l 2
 358 621 355 618 351 618 c 2
 312 618 l 2
 291 618 283 612 281 602 c 0
 280 595 280 586 282 575 c 2
 372 229 l 1
 570 575 l 2
 577 587 581 595 582 601 c 0
 582 602 582 604 582 605 c 0
 582 616 570 618 545 618 c 2
 516 618 l 2
 512 618 510 621 511 625 c 2
 515 645 l 1
 517 646 l 1
 517 646 582 645 625 645 c 0
 656 645 705 646 705 646 c 1
 706 645 l 1
 702 626 l 2
 701 620 694 618 690 618 c 0
 644 618 632 606 608 566 c 2
 373 161 l 2
 310 52 240 -22 150 -22 c 0
 110 -22 72 -2 72 27 c 0
 72 29 72 31 73 33 c 1
 78 61 96 79 128 79 c 0
 142 79 164 72 170 60 c 1
 176 51 188 40 203 40 c 0
568 776 m 1
 539 725 490 692 442 692 c 0
 383 692 337 720 337 760 c 0
 337 797 365 804 380 804 c 0
 400 804 413 796 413 783 c 0
 413 773 410 772 410 763 c 0
 410 744 426 730 455 730 c 0
 482 730 524 756 550 792 c 1
 568 776 l 1
EndSplineSet
LCarets2: 1 0 
EndChar

StartChar: afii10020
Encoding: 1043 1043 74
Width: 481
VWidth: 999
Flags: W
HStem: -1 29<14.6875 100.825 199.482 269> 605 40<297.311 520.135> 618 28<140 212.75>
VStem: 552 30<490 557.606>
DStem2: 116 72 196 72 0.190083 0.981768<2.43764 529.061>
LayerCount: 2
Fore
SplineSet
460 605 m 2xd0
 336 605 l 2xd0
 314 605 299 599 293 573 c 2
 196 72 l 2
 195 67 195 63 195 59 c 0
 195 39 208 28 242 28 c 2
 269 28 l 2
 273 28 276 25 275 20 c 2
 271 1 l 1
 269 -1 l 1
 269 -1 176 1 140 1 c 0
 101 1 14 -1 14 -1 c 1
 12 1 l 1
 16 20 l 2
 17 25 21 28 26 28 c 2
 52 28 l 2
 92 28 109 41 116 72 c 2
 213 573 l 2
 214 580 215 586 215 592 c 0
 215 612 204 618 170 618 c 2
 140 618 l 2xb0
 136 618 133 621 134 625 c 2
 138 645 l 1xd0
 140 646 l 1xb0
 140 646 254 645 267 645 c 2
 345 645 l 1
 591 645 l 1
 585 591 582 531 582 490 c 1
 552 485 l 1
 543 554 536 605 460 605 c 2xd0
EndSplineSet
EndChar

StartChar: afii10021
Encoding: 1044 1044 75
Width: 655
VWidth: 999
Flags: W
HStem: 0 39<193.008 470.705> 605 41<381.59 576.993> 617 29<272.16 334.799 667.872 741.848>
VStem: 7 27<-141 -111.548> 567 27<-141 -95.6522>
DStem2: 430.227 -141 498.484 -141 0.21644 0.976296<228.196 740.329>
LayerCount: 2
Fore
SplineSet
121 47 m 0xb8
 150 75 185 145 246 301 c 0
 292 415 323 518 335 581 c 0
 336 586 336 590 336 594 c 0
 336 609 328 617 307 617 c 2
 277 617 l 2
 272 617 270 621 271 625 c 2
 273 637 l 2
 274 641 280 646 287 646 c 2
 739 646 l 2
 742 646 744 642 743 639 c 2
 741 625 l 1
 739 619 735 617 731 617 c 2
 702 617 l 2
 670 617 662 601 655 565 c 2
 560 78 l 2
 559 73 559 68 559 64 c 0
 559 38 576 28 590 28 c 0
 610 28 617 22 617 12 c 0
 617 11 617 9 617 8 c 2
 594 -141 l 1
 567 -141 567 -141 567 -141 c 1
 566 -85 547 0 467 0 c 2
 181 0 l 2
 98 0 55 -89 34 -141 c 1
 7 -141 l 1
 42 8 l 2
 45 20 57 28 67 28 c 0
 88 28 101 28 121 47 c 0xb8
544 605 m 2xd8
 421 605 l 2
 394 605 380 591 374 566 c 0
 346 465 312 361 286 293 c 0
 231 151 193 67 193 53 c 0
 193 44 204 39 217 39 c 2
 436 39 l 2
 459 39 473 42 479 79 c 2
 574 566 l 2
 576 574 577 580 577 585 c 0
 577 600 568 605 544 605 c 2xd8
EndSplineSet
EndChar

StartChar: afii10024
Encoding: 1046 1046 76
Width: 855
VWidth: 999
Flags: W
HStem: -1 29<25.6875 75.5938 301.688 386.542 484.832 556 796.75 832> 590 61<212.799 279.693 813.488 899.657> 618 28<426 496.049 595.305 680.25>
VStem: 285 34<408.306 583.878>
DStem2: 385.038 -1 466.038 -1 0.21644 0.976296<78.5552 91.2797 371.408 598.978>
LayerCount: 2
Fore
SplineSet
832 -1 m 1xd0
 766 0 l 2
 694 1 679 70 662 180 c 0
 646 282 637 323 531 323 c 1
 482 71 l 2
 481 67 481 62 481 58 c 0
 481 37 495 28 528 28 c 2
 555 28 l 2
 559 28 562 25 562 20 c 1
 558 1 l 1
 556 -1 l 1
 556 -1 469 1 430 1 c 0
 394 1 301 -1 301 -1 c 1
 299 1 l 1
 303 20 l 2
 304 25 307 28 312 28 c 2
 338 28 l 2
 379 28 396 43 401 71 c 2
 451 330 l 1
 450 323 l 1
 344 323 320 282 264 180 c 0
 204 70 162 1 90 0 c 2
 24 -1 l 1
 23 1 l 1
 27 20 l 2
 28 25 32 28 36 28 c 2
 45 28 l 2
 78 28 144 103 221 236 c 0
 257 296 284 343 346 343 c 1
 293 363 285 432 285 491 c 0
 285 506 285 520 286 533 c 0
 286 534 286 536 286 537 c 0
 286 565 273 590 253 590 c 0
 242 590 229 583 217 572 c 0
 208 563 193 559 181 559 c 0
 164 559 149 572 149 592 c 0
 149 595 149 598 150 601 c 0
 154 624 176 651 224 651 c 0xd0
 284 651 322 607 322 552 c 0
 322 550 321 547 321 544 c 0
 320 528 319 511 319 493 c 0
 319 449 326 404 360 381 c 0
 381 366 426 366 458 366 c 1
 499 574 l 2
 500 579 501 583 501 587 c 0
 501 608 486 618 453 618 c 2
 427 618 l 2
 422 618 419 621 420 626 c 2
 424 645 l 1
 426 646 l 1
 426 646 513 645 552 645 c 0
 587 645 681 646 681 646 c 1
 683 645 l 1
 679 626 l 2
 678 621 674 618 669 618 c 2
 643 618 l 2xb0
 602 618 585 602 580 574 c 2
 532 330 l 1
 540 366 l 1
 573 366 617 366 644 381 c 0
 703 413 728 488 747 544 c 0
 765 602 822 651 885 651 c 0
 926 651 940 631 940 610 c 0
 940 607 940 604 939 601 c 0
 935 576 911 559 892 559 c 0
 880 559 867 563 861 572 c 0
 854 583 844 590 832 590 c 0
 812 590 788 562 777 533 c 0
 755 470 720 368 643 343 c 1
 705 343 714 296 727 236 c 0
 752 103 789 28 822 28 c 2
 831 28 l 2
 835 28 838 25 837 20 c 2
 833 1 l 1
 832 -1 l 1xd0
EndSplineSet
EndChar

StartChar: afii10025
Encoding: 1047 1047 77
Width: 520
VWidth: 999
Flags: W
HStem: -12 37<174.223 320.146> 336 37<226.145 376.922> 469 21G<147 194.5> 624 34<288.491 426.329>
VStem: 147 28<470.5 492.875>
LayerCount: 2
Fore
SplineSet
242 25 m 0
 310 25 403 68 426 176 c 0
 437 227 422 336 310 336 c 2
 240 336 l 2
 229 336 224 343 226 354 c 0
 229 365 237 373 248 373 c 2
 292 373 l 2
 407 373 455 451 467 506 c 0
 481 573 430 624 371 624 c 0
 253 624 214 550 175 469 c 1
 147 471 l 1
 203 646 l 1
 287 646 322 658 380 658 c 0
 469 658 566 611 546 516 c 0
 529 437 477 387 403 360 c 1
 466 340 540 299 517 192 c 0
 485 41 345 -12 232 -12 c 0
 154 -12 114 19 89 43 c 0
 68 64 53 91 59 118 c 0
 64 144 79 165 101 165 c 0
 128 165 136 152 139 120 c 0
 146 59 169 25 242 25 c 0
EndSplineSet
EndChar

StartChar: afii10026
Encoding: 1048 1048 78
Width: 671
VWidth: 999
Flags: W
HStem: -2 29<19.6875 101.045 196.568 262 410.359 492.887 587.568 654> 618 28<156 222.008 316.113 398.25 546 612.807 707.955 789.938>
DStem2: 100.595 -2 177.85 -2 0.21644 0.976296<156.023 603.95> 208 134 196 78 0.687273 0.7264<0 538.905> 491.816 -2 568.816 -2 0.21644 0.976296<76.8062 518.397 575.667 603.857>
LayerCount: 2
Fore
SplineSet
692 574 m 2
 585 71 l 2
 584 66 584 61 584 56 c 0
 584 36 597 27 628 27 c 2
 654 27 l 2
 658 27 661 24 660 19 c 2
 656 0 l 1
 654 -2 l 1
 654 -2 571 0 533 0 c 0
 499 0 409 -2 409 -2 c 1
 407 0 l 1
 412 19 l 2
 413 24 416 27 421 27 c 2
 446 27 l 2
 485 27 502 43 508 71 c 2
 600 505 l 1
 196 78 l 1
 194 72 l 1
 193 66 193 61 193 57 c 0
 193 36 206 27 237 27 c 2
 263 27 l 2
 267 27 270 24 269 19 c 2
 265 0 l 1
 262 -2 l 1
 262 -2 180 0 142 0 c 0
 108 0 18 -2 18 -2 c 1
 17 0 l 1
 21 19 l 1
 21 24 25 27 30 27 c 2
 55 27 l 2
 94 27 111 44 117 72 c 2
 224 575 l 2
 225 580 226 585 226 589 c 0
 226 609 213 618 181 618 c 2
 155 618 l 2
 151 618 148 621 149 626 c 2
 153 645 l 1
 156 646 l 1
 156 646 239 644 276 644 c 0
 310 644 400 646 400 646 c 1
 401 645 l 1
 397 626 l 2
 396 621 393 618 388 618 c 2
 363 618 l 2
 324 618 307 603 301 575 c 2
 208 134 l 1
 612 561 l 1
 615 574 l 2
 616 580 617 584 617 589 c 0
 617 609 603 618 572 618 c 2
 546 618 l 2
 542 618 539 621 540 626 c 2
 544 645 l 1
 546 646 l 1
 546 646 629 644 667 644 c 0
 701 644 791 647 791 647 c 1
 792 645 l 1
 789 626 l 2
 788 621 784 618 779 618 c 2
 754 618 l 2
 715 618 698 602 692 574 c 2
EndSplineSet
EndChar

StartChar: afii10027
Encoding: 1049 1049 79
Width: 671
VWidth: 999
Flags: W
HStem: -2 29<19.6875 101.045 196.568 262 410.359 492.887 587.568 654> 618 28<156 222.008 316.113 398.25 546 612.807 707.955 789.938> 692 38<453.576 543.148>
VStem: 376 73<734.059 799.351>
DStem2: 100.595 -2 177.85 -2 0.21644 0.976296<156.023 603.95> 208 134 196 78 0.687273 0.7264<0 538.905> 491.816 -2 568.816 -2 0.21644 0.976296<76.8062 518.397 575.667 603.857>
LayerCount: 2
Fore
SplineSet
692 574 m 2
 585 71 l 2
 584 66 584 61 584 56 c 0
 584 36 597 27 628 27 c 2
 654 27 l 2
 658 27 661 24 660 19 c 2
 656 0 l 1
 654 -2 l 1
 654 -2 571 0 533 0 c 0
 499 0 409 -2 409 -2 c 1
 407 0 l 1
 412 19 l 2
 413 24 416 27 421 27 c 2
 446 27 l 2
 485 27 502 43 508 71 c 2
 600 505 l 1
 196 78 l 1
 194 72 l 1
 193 66 193 61 193 57 c 0
 193 36 206 27 237 27 c 2
 263 27 l 2
 267 27 270 24 269 19 c 2
 265 0 l 1
 262 -2 l 1
 262 -2 180 0 142 0 c 0
 108 0 18 -2 18 -2 c 1
 17 0 l 1
 21 19 l 1
 21 24 25 27 30 27 c 2
 55 27 l 2
 94 27 111 44 117 72 c 2
 224 575 l 2
 225 580 226 585 226 589 c 0
 226 609 213 618 181 618 c 2
 155 618 l 2
 151 618 148 621 149 626 c 2
 153 645 l 1
 156 646 l 1
 156 646 239 644 276 644 c 0
 310 644 400 646 400 646 c 1
 401 645 l 1
 397 626 l 2
 396 621 393 618 388 618 c 2
 363 618 l 2
 324 618 307 603 301 575 c 2
 208 134 l 1
 612 561 l 1
 615 574 l 2
 616 580 617 584 617 589 c 0
 617 609 603 618 572 618 c 2
 546 618 l 2
 542 618 539 621 540 626 c 2
 544 645 l 1
 546 646 l 1
 546 646 629 644 667 644 c 0
 701 644 791 647 791 647 c 1
 792 645 l 1
 789 626 l 2
 788 621 784 618 779 618 c 2
 754 618 l 2
 715 618 698 602 692 574 c 2
607 776 m 1
 578 725 529 692 481 692 c 0
 422 692 376 720 376 760 c 0
 376 797 404 804 419 804 c 0
 439 804 452 796 452 783 c 0
 452 773 449 772 449 763 c 0
 449 744 465 730 494 730 c 0
 521 730 563 756 589 792 c 1
 607 776 l 1
EndSplineSet
LCarets2: 1 0 
EndChar

StartChar: afii10033
Encoding: 1055 1055 80
Width: 691
VWidth: 487
Flags: W
HStem: -1 29<19.6875 104.542 202.734 274 418.016 503.542 601.734 673> 604 39<291.62 604.695> 619 27<131 203.233 705.917 784.996>
DStem2: 119 72 199 72 0.172666 0.98498<1.96007 522.448> 518 72 598 72 0.174569 0.984645<2.11436 514.126>
LayerCount: 2
Fore
SplineSet
518 72 m 2xa0
 604 560 l 2
 605 567 605 573 605 579 c 0
 605 595 599 604 575 604 c 2
 329 604 l 2xc0
 298 604 291 593 285 560 c 2
 199 72 l 2
 198 67 198 63 198 60 c 0
 198 38 212 28 246 28 c 2
 272 28 l 2
 277 28 280 25 279 20 c 2
 276 1 l 1
 274 -1 l 1
 274 -1 187 1 148 1 c 0
 112 1 19 -1 19 -1 c 1
 17 1 l 1
 21 20 l 1
 21 25 25 28 30 28 c 2
 56 28 l 2
 97 28 114 44 119 72 c 2
 207 574 l 2
 208 579 208 583 208 587 c 0
 208 613 191 619 164 619 c 2
 134 619 l 2
 127 619 127 623 127 626 c 2
 131 646 l 1xa0
 138 646 243 643 257 643 c 0
 319 643 385 643 456 643 c 0
 518 643 584 643 656 643 c 0xc0
 662 643 787 646 789 646 c 1
 785 627 l 1
 785 623 780 619 775 619 c 2
 746 619 l 2
 718 618 692 604 687 574 c 2
 598 72 l 2
 597 67 597 63 597 60 c 0
 597 38 611 28 645 28 c 2
 671 28 l 2
 676 28 679 25 678 20 c 2
 675 1 l 1
 673 -1 l 1
 673 -1 586 1 547 1 c 0
 511 1 418 -1 418 -1 c 1
 416 1 l 1
 419 20 l 2
 420 25 424 28 429 28 c 2
 455 28 l 2
 496 28 513 44 518 72 c 2xa0
EndSplineSet
EndChar

StartChar: afii10034
Encoding: 1056 1056 81
Width: 531
VWidth: 999
Flags: W
HStem: -1 28<50.0625 134.532 234.207 304> 282 33<273.326 426.856> 619 25<161 229.695> 620 34<325.026 483.475>
VStem: 529 87<427.604 584.063>
DStem2: 149 71 230 71 0.17305 0.984913<2.20973 238.432 266.702 522.665>
LayerCount: 2
Fore
SplineSet
616 514 m 0xd8
 616 440 553 282 344 282 c 0
 308 282 291 285 269 292 c 1
 230 71 l 2
 229 67 229 63 229 59 c 0
 229 37 243 27 277 27 c 2
 303 27 l 2
 307 27 310 25 310 21 c 0
 310 20 310 20 310 19 c 2
 307 0 l 1
 304 -1 l 1
 304 -1 218 1 179 1 c 0
 144 1 49 -1 49 -1 c 1
 48 0 l 1
 51 19 l 2
 52 24 56 27 61 27 c 2
 87 27 l 2
 128 27 145 43 149 71 c 2
 238 575 l 2
 239 579 239 583 239 586 c 0
 239 614 217 619 202 619 c 0
 193 619 168 617 165 617 c 0
 159 617 158 620 158 623 c 2
 158 624 l 1
 161 644 l 1xe8
 198 644 323 654 422 654 c 0
 581 654 616 574 616 514 c 0xd8
324 606 m 1
 273 320 l 1
 285 317 320 315 344 315 c 0
 502 315 529 443 529 513 c 0
 529 601 469 620 409 620 c 0xd8
 390 620 345 613 324 606 c 1
EndSplineSet
EndChar

StartChar: afii10035
Encoding: 1057 1057 82
Width: 654
VWidth: 999
Flags: W
HStem: -12 41<289.105 471.842> 621 37<388.596 562.857>
VStem: 97 89<141.236 369.83> 655 32<448 521.28>
LayerCount: 2
Fore
SplineSet
364 -12 m 0
 177 -12 97 112 97 250 c 0
 97 271 99 293 103 315 c 0
 138 512 317 658 482 658 c 0
 605 658 634 613 693 613 c 1
 687 448 l 1
 655 444 l 1
 648 543 610 621 464 621 c 0
 385 621 229 537 193 334 c 0
 188 309 186 284 186 260 c 0
 186 139 241 29 370 29 c 0
 463 29 536 62 621 140 c 1
 641 125 l 1
 558 36 460 -12 364 -12 c 0
EndSplineSet
EndChar

StartChar: afii10036
Encoding: 1058 1058 83
Width: 577
VWidth: 999
Flags: W
HStem: -1 29<181.016 265.949 364.152 436> 606 40<183.631 368.609 455.08 625.917>
VStem: 158 26<647.479 669> 641 30<519 585.394> 650 27<648.75 669>
DStem2: 280 72 361 72 0.175033 0.984563<-21.6188 535.455>
LayerCount: 2
Fore
SplineSet
201 646 m 2xf0
 624 646 l 2
 645 646 648 663 650 669 c 1
 677 673 l 1xe8
 672 624 670 572 671 519 c 1
 641 514 l 1
 635 594 624 606 569 606 c 2
 503 606 l 2
 467 606 454 598 448 564 c 2
 361 72 l 2
 355 41 368 28 408 28 c 2
 434 28 l 2
 438 28 442 25 441 20 c 2
 438 1 l 1
 436 -1 l 1
 436 -1 348 1 309 1 c 0
 273 1 181 -1 181 -1 c 1
 179 1 l 1
 182 20 l 2
 183 25 187 28 191 28 c 2
 218 28 l 2
 259 28 275 44 280 72 c 2
 368 567 l 2
 373 598 362 606 326 606 c 2
 242 606 l 2
 187 606 171 594 138 514 c 1
 108 519 l 1
 129 572 145 624 158 673 c 1
 184 669 l 1
 182 663 180 646 201 646 c 2xf0
EndSplineSet
EndChar

StartChar: afii10037
Encoding: 1059 1059 84
Width: 580
VWidth: 999
Flags: W
HStem: -22 62<130 230.071> 618 28<127 171.15 281.582 360.25 517 580.688 637.513 703.25>
DStem2: 372 229 197 559 0.258089 -0.966121<-393.33 0> 310 136 373 161 0.509587 0.860419<-111.943 0 111.613 545.5>
LayerCount: 2
Fore
SplineSet
203 40 m 0
 235 40 264 61 310 136 c 1
 197 559 l 2
 191 579 179 618 130 618 c 0
 124 618 121 621 122 625 c 2
 125 645 l 1
 127 646 l 1
 127 646 189 645 230 645 c 0
 280 645 361 646 361 646 c 1
 363 645 l 1
 359 626 l 2
 358 621 355 618 351 618 c 2
 312 618 l 2
 291 618 283 612 281 602 c 0
 280 595 280 586 282 575 c 2
 372 229 l 1
 570 575 l 2
 577 587 581 595 582 601 c 0
 582 602 582 604 582 605 c 0
 582 616 570 618 545 618 c 2
 516 618 l 2
 512 618 510 621 511 625 c 2
 515 645 l 1
 517 646 l 1
 517 646 582 645 625 645 c 0
 656 645 705 646 705 646 c 1
 706 645 l 1
 702 626 l 2
 701 620 694 618 690 618 c 0
 644 618 632 606 608 566 c 2
 373 161 l 2
 310 52 240 -22 150 -22 c 0
 110 -22 72 -2 72 27 c 0
 72 29 72 31 73 33 c 1
 78 61 96 79 128 79 c 0
 142 79 164 72 170 60 c 1
 176 51 188 40 203 40 c 0
EndSplineSet
EndChar

StartChar: afii10039
Encoding: 1061 1061 85
Width: 655
VWidth: 999
Flags: W
HStem: -1 29<5.5 74.8893 158.026 200 420 482.991 606.059 650> 618 28<301.003 365.375 558 606.996 682.38 754.375>
VStem: 338 98<292.312 366.422>
DStem2: 149 104 178 77 0.681219 0.73208<-38.0687 268.669 381.599 681.418> 312 572 225 549 0.457643 -0.889136<-33.1487 209.657 290.168 550.052>
LayerCount: 2
Fore
SplineSet
449 28 m 2
 471 28 483 31 483 41 c 0
 483 49 478 59 470 73 c 2
 375 261 l 2
 370 269 367 272 363 272 c 0
 360 272 353 266 346 258 c 2
 178 77 l 2
 175 74 158 56 158 43 c 0
 158 33 167 28 184 28 c 2
 203 28 l 1
 206 27 207 26 207 23 c 0
 207 22 207 21 207 21 c 1
 203 1 l 1
 200 -1 l 1
 200 -1 103 1 88 1 c 0
 83 1 4 -1 4 -1 c 1
 3 1 l 1
 7 21 l 2
 8 26 14 28 19 28 c 0
 79 28 122 74 149 104 c 2
 323 291 l 2
 337 305 338 314 338 319 c 0
 338 327 334 335 329 344 c 2
 225 549 l 2
 179 639 135 610 135 623 c 2
 135 623 135 624 135 625 c 2
 139 645 l 1
 144 646 l 1
 169 646 233 645 244 645 c 0
 250 645 333 646 364 646 c 1
 368 645 l 1
 364 625 l 2
 363 620 361 618 358 618 c 2
 326 618 l 2
 305 618 301 612 301 604 c 0
 301 596 306 584 312 572 c 2
 397 396 l 2
 401 389 403 385 407 385 c 0
 411 385 415 389 422 397 c 2
 585 572 l 2
 600 588 607 601 607 609 c 0
 607 615 601 618 588 618 c 2
 558 618 l 2
 555 618 552 619 552 623 c 2
 552 623 552 624 552 625 c 2
 556 645 l 1
 558 646 l 1
 580 646 646 645 658 645 c 0
 663 645 737 646 755 646 c 1
 757 645 l 1
 753 625 l 2
 752 622 751 618 743 618 c 0
 682 618 654 588 620 552 c 2
 455 375 l 2
 438 356 436 347 436 340 c 0
 436 331 439 322 446 312 c 1
 559 102 l 2
 579 63 607 28 650 28 c 0
 654 28 656 26 656 23 c 0
 656 22 656 21 656 21 c 1
 652 1 l 1
 650 -1 l 1
 623 0 557 1 545 1 c 0
 539 1 420 -1 420 -1 c 1
 417 1 l 1
 420 21 l 2
 421 25 425 28 428 28 c 2
 449 28 l 2
EndSplineSet
EndChar

StartChar: afii10040
Encoding: 1062 1062 86
Width: 639
VWidth: 487
Flags: W
HStem: 2 26<20.3125 94.496> 3 34<186.331 468.648> 618 28<145 205.167 294.002 369.625 517 576.033 664.98 737.998>
VStem: 566 27<-141 -93.5909>
DStem2: 58.114 -141 138.34 -141 0.21644 0.976296<223.215 751.262> 479 83 559 77 0.190392 0.981708<-2.63597 521.952>
LayerCount: 2
Fore
SplineSet
458 2 m 2xb0
 458 2 369 3 271 3 c 0x70
 222 3 171 3 128 2 c 2
 20 -1 l 1
 17 1 l 1
 21 18 l 1
 21 23 27 28 31 28 c 2
 58 28 l 2xb0
 90 29 99 35 106 75 c 2
 203 572 l 2
 205 582 206 590 206 596 c 0
 206 614 197 618 172 618 c 2
 143 618 l 2
 139 618 137 619 138 623 c 2
 143 645 l 1
 145 646 l 1
 253 645 l 1
 370 646 l 1
 372 645 l 1
 368 623 l 2
 367 620 365 618 361 618 c 2
 332 618 l 2
 299 618 292 612 284 572 c 2
 188 83 l 2
 187 73 186 65 186 59 c 0
 186 40 195 37 219 37 c 2
 431 37 l 2x70
 467 37 473 51 479 83 c 2
 574 572 l 2
 576 581 577 589 577 596 c 0
 577 611 570 617 544 618 c 2
 514 618 l 2
 511 618 509 619 510 623 c 2
 514 645 l 1
 517 646 l 1
 624 645 l 1
 740 646 l 1
 742 645 l 1
 738 623 l 2
 738 620 735 618 731 618 c 2
 702 618 l 2
 666 617 661 605 655 572 c 2
 559 77 l 2
 558 73 557 69 557 65 c 0
 557 45 569 28 590 28 c 0
 611 28 616 20 616 12 c 0
 616 11 615 9 615 8 c 2
 593 -141 l 1
 566 -141 l 1
 565 -70 536 2 458 2 c 2xb0
EndSplineSet
EndChar

StartChar: afii10041
Encoding: 1063 1063 87
Width: 620
VWidth: 999
Flags: W
HStem: -1 27<367.5 451.623 541.365 604> 250 58<274.659 415.585> 619 27<155 211.299 298.5 368.375 500 563.31 650.505 726.375>
VStem: 174 81<328.398 449.2>
DStem2: 80.6388 -1 166.332 -1 0.21644 0.976296<413.096 613.979> 432.86 -1 513.86 -1 0.21644 0.976296<86.3377 327.158 343.908 613.93> 446.595 -1 526.595 -1 0.21644 0.976296<69.3078 324.186 350.193 582.173>
LayerCount: 2
Fore
SplineSet
414 26 m 2
 450 26 457 39 463 73 c 2
 510 317 l 1
 428 266 356 250 299 250 c 0
 208 250 174 300 174 371 c 0
 174 389 176 408 180 428 c 2
 209 578 l 2
 211 587 212 594 212 599 c 0
 212 616 203 620 174 620 c 2
 156 620 l 2
 153 620 151 621 151 623 c 0
 151 624 151 624 151 625 c 2
 155 646 l 1
 262 645 l 1
 371 646 l 1
 367 625 l 2
 366 621 364 620 360 620 c 2
 342 620 l 2
 300 620 296 609 290 578 c 2
 259 417 l 2
 256 405 255 393 255 383 c 0
 255 328 290 308 352 308 c 0
 381 308 445 312 518 355 c 1
 561 577 l 2
 563 586 564 594 564 599 c 0
 564 615 555 619 529 619 c 2
 500 619 l 2
 496 619 495 621 496 624 c 2
 500 646 l 1
 614 644 l 1
 729 646 l 1
 725 625 l 2
 724 621 722 619 718 619 c 2
 689 619 l 2
 655 619 649 614 642 577 c 2
 543 73 l 2
 542 63 540 55 540 49 c 0
 540 32 549 26 574 26 c 2
 603 26 l 2
 606 26 608 23 607 20 c 2
 604 -1 l 1
 490 1 l 1
 365 -1 l 1
 369 21 l 2
 370 24 371 26 375 26 c 2
 414 26 l 2
EndSplineSet
EndChar

StartChar: afii10042
Encoding: 1064 1064 88
Width: 923
VWidth: 487
Flags: W
HStem: -2 29<32.8906 106.211 834.823 892> 0 34<200.144 429.708 514.656 752.031> 618 28<155 221.039 316.955 396.25 479 542.008 637.212 717.25 801 864.807 959.955 1041.94>
DStem2: 100.93 -2 178.156 -2 0.21644 0.976296<76.8748 602.685> 421.156 -2 499.156 -2 0.21644 0.976296<78.995 602.852> 744.156 -2 821.038 -2 0.21644 0.976296<69.4673 602.852>
LayerCount: 2
Fore
SplineSet
944 574 m 2x60
 837 70 l 2
 835 61 834 54 834 49 c 0
 834 32 843 27 866 27 c 2
 895 27 l 2xa0
 898 27 899 25 899 22 c 1
 894 0 l 1x60
 892 -2 l 1xa0
 782 0 l 1
 172 0 l 1x60
 32 -2 l 1xa0
 30 0 l 1x60
 35 22 l 2
 36 25 38 27 41 27 c 2
 70 27 l 2xa0
 102 28 109 36 118 75 c 2
 224 574 l 2
 225 579 225 584 225 588 c 0
 225 609 212 618 181 618 c 2
 155 618 l 2
 151 618 148 621 149 626 c 2
 153 645 l 1
 155 646 l 1
 155 646 238 645 276 645 c 0
 310 645 397 646 397 646 c 1
 399 645 l 1
 395 626 l 2
 394 621 391 618 386 618 c 2
 363 618 l 2
 324 618 307 602 301 574 c 2
 197 83 l 2
 194 72 193 63 193 56 c 0
 193 49 194 44 200 39 c 1
 203 35 211 34 224 34 c 2
 397 34 l 2
 427 34 434 52 440 83 c 2
 544 574 l 1
 546 579 546 584 546 588 c 0
 546 609 533 618 501 618 c 2
 479 618 l 2
 474 618 471 621 472 626 c 2
 476 645 l 1
 479 646 l 1
 479 646 559 645 597 645 c 0
 631 645 718 646 718 646 c 1
 720 645 l 1
 716 626 l 2
 715 621 711 618 707 618 c 2
 684 618 l 2
 644 618 627 602 622 574 c 2
 518 83 l 2
 516 74 514 65 514 58 c 0
 514 43 521 34 542 34 c 2
 715 34 l 2
 746 34 754 44 763 83 c 2
 867 574 l 2
 868 579 869 584 869 588 c 0
 869 609 855 618 824 618 c 2
 801 618 l 2
 796 618 793 621 794 626 c 2
 798 645 l 1
 801 646 l 1
 801 646 881 645 919 645 c 0
 953 645 1043 646 1043 646 c 1
 1044 645 l 1
 1041 626 l 2
 1040 621 1036 618 1031 618 c 2
 1006 618 l 2
 967 618 950 602 944 574 c 2x60
EndSplineSet
EndChar

StartChar: afii10043
Encoding: 1065 1065 89
Width: 940
VWidth: 487
Flags: W
HStem: 0 34<193.804 430.068 514.767 751.05> 0 27<33.125 107.113> 618 28<155 221.039 316.955 396.25 479 542.008 637.212 717.25 801 864.807 959.955 1041.94>
VStem: 840 26<-141 -99.84>
DStem2: 70.2224 -141 147.34 -141 0.21644 0.976296<222.155 745.036> 390.34 -141 468.34 -141 0.21644 0.976296<221.369 745.227> 713.34 -141 789.784 -141 0.21644 0.976296<227.135 745.227>
LayerCount: 2
Fore
SplineSet
301 574 m 2x70
 197 83 l 2
 195 74 193 66 193 59 c 0
 193 43 200 34 224 34 c 2
 390 34 l 2
 426 34 433 47 440 83 c 2
 544 574 l 1
 546 579 546 584 546 588 c 0
 546 609 533 618 501 618 c 2
 479 618 l 2
 474 618 471 621 472 626 c 2
 476 645 l 1
 479 646 l 1
 479 646 559 645 597 645 c 0
 631 645 718 646 718 646 c 1
 720 645 l 1
 716 626 l 2
 715 621 711 618 707 618 c 2
 684 618 l 2
 644 618 627 602 622 574 c 2
 518 83 l 2
 515 73 514 65 514 58 c 0
 514 41 524 34 553 34 c 2
 715 34 l 2xb0
 748 34 755 47 763 83 c 2
 867 574 l 2
 868 579 869 584 869 588 c 0
 869 609 855 618 824 618 c 2
 801 618 l 2
 796 618 793 621 794 626 c 2
 798 645 l 1
 801 646 l 1
 801 646 881 645 919 645 c 0
 953 645 1043 646 1043 646 c 1
 1044 645 l 1
 1041 626 l 2
 1040 621 1036 618 1031 618 c 2
 1006 618 l 2
 967 618 950 602 944 574 c 2
 839 81 l 2
 838 74 837 69 837 64 c 0
 837 37 854 27 867 27 c 0x70
 881 27 892 24 892 12 c 0
 892 10 891 8 891 6 c 2
 866 -141 l 1
 840 -141 l 1
 840 -138 840 -134 840 -131 c 0
 840 -84 821 0 744 0 c 2xb0
 141 0 l 1
 32 -2 l 1
 30 0 l 1
 35 22 l 2
 36 25 38 27 41 27 c 2
 70 27 l 2
 102 27 108 31 117 70 c 2
 224 574 l 2
 225 579 225 584 225 588 c 0
 225 609 212 618 181 618 c 2
 155 618 l 2
 151 618 148 621 149 626 c 2
 153 645 l 1
 155 646 l 1
 155 646 238 645 276 645 c 0
 310 645 397 646 397 646 c 1
 399 645 l 1
 395 626 l 2
 394 621 391 618 386 618 c 2
 363 618 l 2
 324 618 307 602 301 574 c 2x70
EndSplineSet
EndChar

StartChar: afii10044
Encoding: 1066 1066 90
Width: 717
VWidth: 999
Flags: W
HStem: -1 30<178.75 264.941 361.432 501.756> 333 40<418 580.976> 469 21G<118 155.5> 606 40<229.731 375.011> 618 28<472.398 557.25>
VStem: 118 29<472.793 497.611> 631 91<133.097 289.197>
DStem2: 262.816 -1 329.526 -1 0.21644 0.976296<107.327 358.156 398.723 588.613> 262.816 -1 343.264 -1 0.21644 0.976296<78.4784 358.156 398.723 503.083>
LayerCount: 2
Fore
SplineSet
411 333 m 1xe6
 361 79 l 2
 359 71 358 64 358 58 c 0
 358 39 369 29 411 29 c 0
 562 29 615 121 627 183 c 1
 630 193 631 205 631 217 c 0
 631 273 603 333 498 333 c 2
 411 333 l 1xe6
429 645 m 2
 465 645 558 646 558 646 c 1
 560 645 l 1
 556 626 l 2
 555 621 552 618 547 618 c 2
 521 618 l 2xee
 479 618 462 602 457 574 c 2
 418 373 l 1
 479 373 l 2
 679 373 722 306 722 233 c 0
 722 216 720 199 717 183 c 0
 684 16 524 -1 403 -1 c 0
 367 -1 336 1 307 1 c 0
 271 1 178 -1 178 -1 c 1
 176 1 l 1
 180 20 l 2
 181 25 185 28 189 28 c 2
 216 28 l 2
 257 28 273 44 279 72 c 2
 375 564 l 2
 376 569 376 573 376 577 c 0
 376 596 367 606 343 606 c 2
 281 606 l 2xf6
 216 606 164 512 147 469 c 1
 118 474 l 1
 138 530 153 584 167 646 c 1
 390 646 l 1xee
 429 645 l 2
EndSplineSet
EndChar

StartChar: afii10045
Encoding: 1067 1067 91
Width: 786
VWidth: 999
Flags: W
HStem: -1 30<19.75 105.941 202.406 342.307 511.922 597.542 695.832 766> 333 40<259 421.976> 618 28<145 213.545 313.519 398.25 637 707.168 805.135 890.75>
VStem: 472 91<133.412 288.759>
DStem2: 120 72 202 79 0.189718 0.981839<1.51897 281.113 321.904 523.263> 595.595 -1 676.595 -1 0.21644 0.976296<80.6031 599.834>
LayerCount: 2
Fore
SplineSet
791 575 m 2
 693 73 l 2
 692 68 692 64 692 60 c 0
 692 38 706 29 739 29 c 2
 766 29 l 2
 770 29 773 26 772 21 c 2
 769 2 l 1
 766 0 l 1
 766 0 680 2 641 2 c 0
 605 2 511 0 511 0 c 1
 510 2 l 1
 513 21 l 2
 514 26 518 29 523 29 c 2
 549 29 l 2
 590 29 607 45 612 73 c 2
 710 575 l 2
 711 580 711 584 711 588 c 0
 711 610 697 619 664 619 c 2
 637 619 l 2
 633 619 630 622 631 627 c 2
 634 646 l 1
 637 648 l 1
 637 648 723 646 762 646 c 0
 798 646 892 648 892 648 c 1
 893 646 l 1
 890 627 l 2
 889 622 885 619 880 619 c 2
 854 619 l 2
 812 619 796 603 791 575 c 2
217 574 m 2
 218 578 219 582 219 586 c 0
 219 606 206 618 171 618 c 2
 145 618 l 2
 140 618 138 621 139 626 c 2
 143 645 l 1
 145 646 l 1
 145 646 238 645 273 645 c 0
 312 645 399 646 399 646 c 1
 401 645 l 1
 397 626 l 2
 396 621 392 618 388 618 c 2
 361 618 l 2
 322 618 304 604 298 574 c 2
 259 373 l 1
 320 373 l 2
 520 373 563 306 563 233 c 0
 563 216 561 199 558 183 c 0
 525 16 365 -1 244 -1 c 0
 208 -1 177 1 148 1 c 0
 120 1 19 -1 19 -1 c 1
 17 1 l 1
 21 20 l 2
 22 25 25 28 30 28 c 2
 57 28 l 2
 98 28 114 44 120 72 c 2
 217 574 l 2
251 333 m 1
 202 79 l 2
 200 71 199 64 199 58 c 0
 199 39 210 29 251 29 c 0
 403 29 456 121 468 183 c 0
 470 193 472 205 472 217 c 0
 472 273 444 333 339 333 c 2
 251 333 l 1
EndSplineSet
EndChar

StartChar: afii10046
Encoding: 1068 1068 92
Width: 558
VWidth: 999
Flags: W
HStem: -1 30<19.75 105.941 202.406 342.307> 333 40<259 421.976> 618 27<145 213.041 314.385 398.125>
VStem: 472 91<133.412 288.759>
DStem2: 120 72 202 79 0.189718 0.981839<1.51897 281.113 321.904 523.263>
LayerCount: 2
Fore
SplineSet
217 574 m 2
 218 578 219 582 219 586 c 0
 219 606 206 618 171 618 c 2
 145 618 l 2
 140 618 138 621 139 626 c 2
 143 645 l 1
 145 646 l 1
 145 646 238 645 273 645 c 0
 312 645 399 646 399 646 c 1
 401 645 l 1
 397 626 l 2
 396 621 392 618 388 618 c 2
 361 618 l 2
 322 618 304 604 298 574 c 2
 259 373 l 1
 320 373 l 2
 520 373 563 306 563 233 c 0
 563 216 561 199 558 183 c 0
 525 16 365 -1 244 -1 c 0
 208 -1 177 1 148 1 c 0
 120 1 19 -1 19 -1 c 1
 17 1 l 1
 21 20 l 2
 22 25 25 28 30 28 c 2
 57 28 l 2
 98 28 114 44 120 72 c 2
 217 574 l 2
251 333 m 1
 202 79 l 2
 200 71 199 64 199 58 c 0
 199 39 210 29 251 29 c 0
 403 29 456 121 468 183 c 0
 470 193 472 205 472 217 c 0
 472 273 444 333 339 333 c 2
 251 333 l 1
EndSplineSet
EndChar

StartChar: afii10047
Encoding: 1069 1069 93
Width: 579
VWidth: 999
Flags: W
HStem: -12 33<204.488 342.646> 273 56<368.803 493.665> 311 49<219.144 332.458> 621 37<316.026 456.474>
LayerCount: 2
Fore
SplineSet
518 307 m 1xd0
 458 273 415 273 403 273 c 0xd0
 343 273 310 311 253 311 c 0
 217 311 198 295 190 295 c 0
 187 295 182 298 184 307 c 0
 189 332 256 360 312 360 c 0xb0
 376 360 398 329 454 329 c 0
 480 329 504 335 525 344 c 1
 559 550 469 621 391 621 c 0
 300 621 217 540 174 454 c 1
 146 458 l 1
 168 511 186 558 200 613 c 1
 256 616 306 658 407 658 c 0
 565 658 655 550 609 333 c 0
 562 113 424 -12 261 -12 c 0
 178 -12 131 19 106 43 c 0
 84 64 71 95 77 122 c 0
 82 148 98 165 115 165 c 0
 143 165 151 152 154 120 c 0
 162 48 209 21 278 21 c 0
 400 21 487 169 518 307 c 1xd0
EndSplineSet
EndChar

StartChar: afii10048
Encoding: 1070 1070 94
Width: 905
VWidth: 999
Flags: W
HStem: -12 34<528.359 662.083> -1 29<20.0156 105.542 203.045 274> 305 39<254 344> 618 28<145 214.301 314.141 398.25> 624 34<614.902 758.76>
VStem: 337 91<129.718 304.352> 850 88<275.82 525.08>
DStem2: 120 71 201 71 0.191235 0.981544<2.5324 253.777 293.587 525.225>
LayerCount: 2
Fore
SplineSet
683 624 m 0xae
 599 624 477 537 436 327 c 0
 430 297 428 269 428 243 c 0
 428 102 506 22 597 22 c 0
 700 22 804 131 838 310 c 0
 846 349 850 385 850 417 c 0
 850 554 784 624 683 624 c 0xae
930 329 m 0
 891 129 750 -12 572 -12 c 0xae
 434 -12 337 81 337 232 c 0
 337 255 339 280 344 305 c 1
 246 305 l 1
 201 71 l 2
 200 67 199 62 199 58 c 0
 199 37 214 28 247 28 c 2
 273 28 l 2
 278 28 281 25 280 20 c 2
 276 1 l 1
 274 -1 l 1
 274 -1 188 1 148 1 c 0
 113 1 20 -1 20 -1 c 1
 18 1 l 1
 21 20 l 2
 22 25 26 28 31 28 c 2
 57 28 l 2
 98 28 115 43 120 71 c 2
 218 574 l 2
 219 579 219 583 219 587 c 0
 219 608 205 618 172 618 c 2
 146 618 l 2
 141 618 138 621 139 626 c 2
 143 645 l 1
 145 646 l 1
 145 646 231 645 271 645 c 0
 306 645 399 646 399 646 c 1
 401 645 l 1
 397 626 l 2
 396 621 393 618 388 618 c 2
 362 618 l 2x76
 321 618 304 602 298 574 c 2
 254 344 l 1
 353 344 l 1
 401 523 545 658 701 658 c 0
 844 658 938 562 938 411 c 0
 938 385 936 358 930 329 c 0
EndSplineSet
EndChar

StartChar: afii10049
Encoding: 1071 1071 95
Width: 561
VWidth: 999
Flags: W
HStem: -1 29<12.6875 61.8906 286.688 372.127 469.859 541> 323 43<342.426 436> 611 35<317.447 486.803> 618 27<578.79 666.891>
VStem: 161 79<400.033 540.187>
LayerCount: 2
Fore
SplineSet
436 323 m 1xd8
 329 323 307 282 251 180 c 0
 191 70 148 1 77 0 c 2
 11 -1 l 1
 10 1 l 1
 14 20 l 2
 15 25 19 28 22 28 c 2
 32 28 l 2
 64 28 129 103 208 236 c 0
 232 277 252 311 282 329 c 1
 224 338 161 375 161 454 c 0
 161 464 162 475 164 487 c 0
 177 556 229 646 415 646 c 0xe8
 450 646 508 645 541 645 c 0xd8
 573 645 669 646 669 646 c 1xe8
 666 625 l 2
 665 621 662 618 657 618 c 2
 627 618 l 2
 585 618 572 608 565 574 c 2
 467 71 l 2
 466 67 466 62 466 58 c 0
 466 37 480 28 514 28 c 2
 540 28 l 2
 544 28 548 25 547 20 c 2
 543 1 l 1
 541 -1 l 1
 541 -1 454 1 415 1 c 0
 379 1 286 -1 286 -1 c 1
 284 1 l 1
 288 20 l 2
 289 25 292 28 297 28 c 2
 324 28 l 2
 365 28 381 43 387 71 c 2
 436 323 l 1xd8
485 575 m 2
 486 581 487 586 487 591 c 0
 487 609 471 611 401 611 c 0
 345 611 262 595 244 502 c 0
 241 488 240 475 240 464 c 0
 240 389 295 366 367 366 c 2
 444 366 l 1
 485 575 l 2
EndSplineSet
EndChar

StartChar: afii10089
Encoding: 1095 1095 96
Width: 515
VWidth: 999
Flags: HMW
HStem: -12 56<381 457> 131 46<184 292> 377 27<116 157> 429 10G<250 269 505 514>
DStem2: 151 254 233 293 0.21644 0.976296<-10.4794 126.88> 366 96 442 125 0.21644 0.976296<-23.1467 345.642>
LayerCount: 2
Fore
SplineSet
441 430 m 1
 452 430 495 435 516 438 c 1
 442 127 l 2
 435 95 431 69 431 59 c 0
 431 48 441 45 444 45 c 0
 458 45 475 68 499 104 c 1
 520 90 l 1
 484 27 445 -10 398 -10 c 0
 364 -10 356 16 356 35 c 0
 356 47 360 70 366 98 c 2
 392 213 l 1
 345 177 269 131 210 131 c 0
 157 131 144 156 144 195 c 0
 144 213 145 230 151 254 c 2
 167 321 l 2
 171 339 173 351 173 360 c 0
 173 377 167 382 158 383 c 2
 116 387 l 1
 119 411 l 1
 192 422 234 431 265 442 c 1
 267 442 269 442 269 439 c 1
 269 439 251 371 239 320 c 2
 233 293 l 2
 227 266 223 244 223 227 c 0
 223 200 228 177 261 177 c 0
 294 177 359 217 400 248 c 1
 441 430 l 1
EndSplineSet
EndChar

StartChar: afii10090
Encoding: 1096 1096 97
Width: 792
VWidth: 999
Flags: HMW
HStem: -12 49<197 275 443 523 666 725> 387 55<168 247>
DStem2: 146 148 223 155 0.21644 0.976296<-41.7261 229.771> 402 188 468 151 0.21644 0.976296<-45.9778 235.783> 634 96 710 125 0.21644 0.976296<-23.1471 58.4395 93.1982 345.007>
LayerCount: 2
Fore
SplineSet
488 42 m 0
 535 42 591 115 665 241 c 1
 709 430 l 1
 720 430 763 435 784 438 c 1
 710 127 l 2
 703 95 699 69 699 59 c 0
 699 48 709 45 712 45 c 0
 726 45 742 67 769 106 c 1
 788 90 l 1
 752 27 713 -10 667 -10 c 0
 632 -10 624 16 624 35 c 0
 624 47 627 70 634 98 c 2
 650 154 l 1
 646 156 l 1
 576 52 535 -10 445 -10 c 0
 422 -10 382 4 382 82 c 0
 382 90 384 108 387 124 c 1
 329 50 276 -10 205 -10 c 0
 174 -10 137 15 137 82 c 0
 137 101 141 127 146 150 c 2
 184 312 l 2
 191 344 194 361 194 371 c 0
 194 382 185 385 182 385 c 0
 172 385 153 365 124 327 c 1
 102 344 l 1
 153 419 191 440 230 440 c 0
 264 440 272 414 272 394 c 0
 272 376 268 352 261 320 c 2
 223 157 l 2
 216 127 213 103 213 92 c 0
 213 56 231 39 250 39 c 0
 282 39 317 69 402 188 c 1
 456 417 l 1
 524 442 l 1
 529 430 l 1
 468 153 l 2
 461 123 460 104 460 92 c 0
 460 53 473 42 488 42 c 0
EndSplineSet
EndChar

StartChar: afii10091
Encoding: 1097 1097 98
Width: 792
VWidth: 999
Flags: W
HStem: -10 52<195.877 276.328 442.736 523.128> 385 55<168.118 247> 422 20G<469.6 529>
VStem: 137 76<43.4806 204.273> 194 78<274.094 414.812> 382 78<43.6226 159.765> 624 75<25.5 154.93> 700 58<-132.265 -3.8401>
DStem2: 72.6191 -181 148.067 -181 0.21644 0.976296<297.426 564.724> 320.195 -181 393.954 -181 0.21644 0.976296<331.941 613.219> 572.147 -181 641.718 -181 0.21644 0.976296<262.237 343.91 371.066 629.201>
LayerCount: 2
Fore
SplineSet
488 42 m 0xb7
 535 42 591 115 665 241 c 1
 709 430 l 1
 720 430 763 435 784 438 c 1
 710 127 l 2
 703 95 699 69 699 59 c 0
 699 48 709 45 712 45 c 0
 726 45 742 67 769 106 c 1
 788 90 l 1
 779 74 769 60 760 47 c 1
 753 31 749 13 749 -3 c 0
 749 -21 751 -34 753 -45 c 0
 756 -58 758 -70 758 -85 c 0
 758 -112 748 -144 653 -181 c 1
 642 -153 l 1
 672 -139 700 -124 700 -94 c 0
 700 -88 699 -80 699 -68 c 0
 699 -45 705 -22 716 5 c 1
 701 -5 684 -10 667 -10 c 0
 632 -10 624 16 624 35 c 0
 624 47 627 70 634 98 c 2
 650 154 l 1
 646 156 l 1
 576 52 535 -10 445 -10 c 0
 422 -10 382 4 382 82 c 0
 382 90 384 108 387 124 c 1
 329 50 276 -10 205 -10 c 0
 174 -10 137 15 137 82 c 0xb7
 137 101 141 127 146 150 c 2
 184 312 l 2
 191 344 194 361 194 371 c 0
 194 382 185 385 182 385 c 0
 172 385 153 365 124 327 c 1
 102 344 l 1
 153 419 191 440 230 440 c 0
 264 440 272 414 272 394 c 0xcf
 272 376 268 352 261 320 c 2
 223 157 l 2
 216 127 213 103 213 92 c 0
 213 56 231 39 250 39 c 0
 282 39 317 69 402 188 c 1
 456 417 l 1
 524 442 l 1
 529 430 l 1
 468 153 l 2
 461 123 460 104 460 92 c 0
 460 53 473 42 488 42 c 0xb7
EndSplineSet
EndChar

StartChar: afii10092
Encoding: 1098 1098 99
Width: 500
VWidth: 488
Flags: W
HStem: -12 42<244 365.921> 258 54<367.382 468.5> 379 44<209.253 351.857> 382 60<160.645 297.503>
VStem: 178 81<45.0351 190.515> 436 81<129.681 251.727>
LayerCount: 2
Fore
SplineSet
317 30 m 0xcc
 385 30 436 104 436 190 c 0
 436 219 429 258 395 258 c 0
 366 258 333 238 295 207 c 0
 284 198 259 172 259 111 c 0
 259 63 279 30 317 30 c 0xcc
517 214 m 0
 517 88 387 -12 274 -12 c 0
 214 -12 178 30 178 95 c 0
 178 183 250 306 318 383 c 1
 312 382 297 379 279 379 c 0xec
 258 379 232 382 205 382 c 0
 166 382 146 352 123 308 c 1
 99 319 l 1
 138 427 188 442 210 442 c 0xdc
 258 442 295 423 333 423 c 0xec
 348 423 364 439 376 449 c 1
 397 429 l 1
 354 381 316 335 278 231 c 1
 280 231 l 1
 349 290 405 312 445 312 c 0
 492 312 517 266 517 214 c 0
EndSplineSet
EndChar

StartChar: afii10093
Encoding: 1099 1099 100
Width: 666
VWidth: 999
Flags: W
HStem: -12 53<528 602.841> -12 34<187.5 295.713> 262 53<312.522 404.5> 387 24<125 164> 422 20G<255.5 272 557 562 636 639.625>
VStem: 121 75<35.4017 173.709> 379 78<127.626 252.579> 488 72<41.187 149.844>
DStem2: 99.1757 -12 169.793 -12 0.21644 0.976296<261.112 380.045> 472.599 -12 541.274 -12 0.21644 0.976296<87.5803 418.892>
LayerCount: 2
Fore
SplineSet
253 22 m 0x7f
 309 22 379 93 379 194 c 0
 379 239 358 262 334 262 c 0
 315 262 289 250 250 215 c 0
 239 205 196 165 196 90 c 0
 196 48 220 22 253 22 c 0x7f
245 320 m 2
 223 228 l 1
 225 228 l 1
 285 285 342 315 381 315 c 0
 428 315 457 270 457 216 c 0
 457 89 331 -12 212 -12 c 0
 163 -12 121 17 121 72 c 0
 121 87 124 106 128 123 c 2
 173 321 l 2
 177 339 179 351 179 360 c 0
 179 377 173 382 164 383 c 2
 122 387 l 1
 125 411 l 1
 198 422 240 431 271 442 c 1
 273 442 275 442 275 439 c 1
 275 439 257 371 245 320 c 2
549 322 m 2
 554 342 560 371 560 399 c 0
 560 409 559 419 557 429 c 1
 560 431 l 1
 564 430 584 429 595 429 c 0
 613 429 628 433 644 439 c 1
 644 439 630 375 623 343 c 2
 563 86 l 2
 561 75 560 65 560 58 c 0
 560 46 563 41 574 41 c 0
 601 41 625 63 647 87 c 1
 663 70 l 1
 635 33 588 -12 549 -12 c 0xbf
 507 -12 488 8 488 43 c 0
 488 51 489 61 491 71 c 2
 549 322 l 2
EndSplineSet
EndChar

StartChar: afii10094
Encoding: 1100 1100 101
Width: 440
VWidth: 488
Flags: W
HStem: -12 34<187.5 295.713> 262 53<312.522 404.5> 387 24<125 164> 422 20G<255.5 272>
VStem: 121 75<35.4017 173.709> 379 78<127.626 252.579>
DStem2: 99.1757 -12 169.793 -12 0.21644 0.976296<261.112 380.045>
LayerCount: 2
Fore
SplineSet
253 22 m 0
 309 22 379 93 379 194 c 0
 379 239 358 262 334 262 c 0
 315 262 289 250 250 215 c 0
 239 205 196 165 196 90 c 0
 196 48 220 22 253 22 c 0
245 320 m 2
 223 228 l 1
 225 228 l 1
 285 285 342 315 381 315 c 0
 428 315 457 270 457 216 c 0
 457 89 331 -12 212 -12 c 0
 163 -12 121 17 121 72 c 0
 121 87 124 106 128 123 c 2
 173 321 l 2
 177 339 179 351 179 360 c 0
 179 377 173 382 164 383 c 2
 122 387 l 1
 125 411 l 1
 198 422 240 431 271 442 c 1
 273 442 275 442 275 439 c 1
 275 439 257 371 245 320 c 2
EndSplineSet
EndChar

StartChar: afii10095
Encoding: 1101 1101 102
Width: 408
VWidth: 999
Flags: W
HStem: -12 31<136.485 233.827> 180 49<206.231 332.405> 207 41<143.274 222.946> 411 31<210.182 315.492>
VStem: 57 63<29.5051 109.045> 354 73<208.352 374.423>
LayerCount: 2
Fore
SplineSet
120 82 m 0xdc
 120 78 120 76 120 71 c 0
 120 40 143 19 181 19 c 0
 268 19 327 130 345 208 c 1
 322 196 287 180 258 180 c 0xdc
 217 180 197 207 164 207 c 0
 153 207 142 202 135 202 c 0
 129 202 130 211 131 215 c 0
 135 230 181 248 221 248 c 0xbc
 263 248 274 229 310 229 c 0
 324 229 338 231 350 236 c 1
 352 252 354 269 354 286 c 0
 354 348 335 411 269 411 c 0
 194 411 162 354 135 293 c 1
 111 297 l 1
 126 341 137 375 152 430 c 1
 217 430 219 442 286 442 c 0
 379 442 427 370 427 284 c 0
 427 147 314 -12 168 -12 c 0
 99 -12 57 23 57 68 c 0
 57 107 86 113 93 113 c 0
 102 113 120 110 120 82 c 0xdc
EndSplineSet
EndChar

StartChar: afii10096
Encoding: 1102 1102 103
Width: 628
VWidth: 999
Flags: W
HStem: -12 21G<86 151.833> -10 35<410.648 495.631> 205 39<216 306> 387 24<113 152> 406 33<453.714 547.824> 422 20G<243.5 260>
VStem: 303 74<55.8759 241.825> 573 72<158.938 385.285>
DStem2: 83.3397 -12 158.679 -12 0.21644 0.976296<40.8892 238.621 278.645 380.875>
LayerCount: 2
Fore
SplineSet
207 205 m 1x6b
 164 12 l 1
 91 -12 l 1
 86 0 l 1
 161 321 l 2
 165 339 167 351 167 360 c 0
 167 377 161 382 152 383 c 2
 110 387 l 1
 113 411 l 1
 186 422 228 431 259 442 c 1xb7
 261 442 263 442 263 439 c 1
 263 439 245 371 233 320 c 2
 216 244 l 1
 313 244 l 1
 337 343 405 439 520 439 c 0
 629 439 645 349 645 277 c 0
 645 119 540 -10 427 -10 c 0
 314 -10 303 109 303 162 c 0
 303 176 304 190 306 205 c 1
 207 205 l 1x6b
377 170 m 0
 377 42 421 25 449 25 c 0
 548 25 573 205 573 270 c 0
 573 334 573 406 504 406 c 0x6b
 404 406 377 260 377 170 c 0
EndSplineSet
EndChar

StartChar: afii10097
Encoding: 1103 1103 104
Width: 449
VWidth: 999
Flags: W
HStem: -12 55<311.5 387.412> -1 29<20 69.4568> 195 35<248.319 318> 204 26<206.004 222> 402 27<254.424 361.39 435.836 494.188>
VStem: 117 68<241.789 349.952> 286 75<12.6797 148.375>
DStem2: 272.057 -12 342.628 -12 0.21644 0.976296<87.0849 212.037 247.29 419.375>
LayerCount: 2
Fore
SplineSet
323 230 m 1x1e
 362 398 l 1
 349 401 335 403 322 403 c 0
 236 403 196 347 188 311 c 0
 186 304 185 297 185 290 c 0
 185 258 202 230 249 230 c 2x2e
 323 230 l 1x1e
318 195 m 1
 288 195 l 2
 248 195 213 144 178 84 c 0
 155 43 115 0 83 0 c 2
 20 -1 l 1
 17 1 l 1
 21 20 l 2
 23 27 29 28 34 28 c 2
 41 28 l 2x6e
 71 28 118 98 142 136 c 0
 167 177 193 198 222 204 c 1
 182 204 117 226 117 286 c 0
 117 292 118 300 119 308 c 0
 137 382 214 430 289 430 c 2
 407 429 l 1
 496 431 l 1
 497 429 l 1
 492 405 l 1
 491 403 490 402 487 402 c 2
 462 402 l 2
 438 402 436 393 431 372 c 2
 373 125 l 2
 365 93 361 67 361 57 c 0
 361 46 372 43 374 43 c 0
 388 43 404 65 431 104 c 1
 450 88 l 1
 414 25 375 -12 329 -12 c 0x9e
 294 -12 286 14 286 33 c 0
 286 45 290 68 296 96 c 2
 318 195 l 1
EndSplineSet
EndChar

StartChar: uni04AE
Encoding: 1198 1198 105
Width: 525
VWidth: 999
Flags: W
HStem: -3 26<155.5 222.81 327.144 382> 619 27<124 177.125 284.097 339.952 515 564.949 617.372 694.031>
DStem2: 228.038 -3 309.038 -3 0.21644 0.976296<51.8538 291.328> 368 341 293 281 0.329774 -0.94406<-286.259 0> 368 341 376 293 0.605485 0.795856<0 337.29>
LayerCount: 2
Fore
SplineSet
320 47 m 0
 319 39 321 33 327 28 c 0
 330 26 338 24 351 24 c 2
 380 23 l 2
 381 23 382 23 382 23 c 2
 385 23 387 21 387 17 c 1
 387 17 387 17 386 16 c 1
 383 0 l 1
 382 -3 l 1
 380 -3 l 2
 376 -3 277 0 266 0 c 0
 263 0 167 -2 155 -3 c 2
 153 -3 l 1
 153 0 l 1
 157 16 l 2
 159 21 161 23 165 23 c 2
 165 23 166 23 167 23 c 2
 196 24 l 2
 211 24 219 26 223 28 c 0
 230 33 235 40 238 47 c 0
 240 53 242 60 244 69 c 2
 293 281 l 1
 191 573 l 1
 185 594 l 1
 180 603 175 609 167 614 c 1
 164 617 154 618 141 619 c 2
 128 619 l 1
 125 620 124 620 123 621 c 2
 121 622 119 624 120 626 c 1
 124 643 l 1
 124 646 l 1
 126 646 l 2
 130 646 221 643 231 643 c 0
 235 643 333 646 345 646 c 2
 347 646 l 1
 347 643 l 1
 343 627 l 1
 342 625 341 623 340 621 c 1
 339 620 337 619 336 619 c 2
 307 619 l 2
 292 618 286 617 284 615 c 0
 280 611 279 609 278 605 c 0
 277 602 278 600 278 597 c 1
 281 586 282 579 283 575 c 2
 368 341 l 1
 548 575 l 2
 556 585 560 592 562 597 c 2
 565 601 566 603 566 605 c 0
 567 610 567 612 565 615 c 0
 564 617 558 618 544 619 c 2
 515 619 l 1
 510 620 510 623 511 626 c 2
 515 643 l 1
 515 646 l 1
 518 646 l 2
 521 646 599 643 608 643 c 0
 611 643 686 646 694 646 c 2
 697 646 l 1
 696 643 l 1
 693 627 l 2
 692 624 690 622 688 621 c 0
 686 620 683 619 681 619 c 2
 661 619 l 2
 646 618 637 617 631 614 c 0
 620 608 611 602 605 594 c 0
 603 591 597 583 589 573 c 2
 376 293 l 1
 325 69 l 2
 323 61 321 54 320 47 c 0
EndSplineSet
EndChar

StartChar: uni04C0
Encoding: 1216 1216 106
Width: 288
VWidth: 999
Flags: W
HStem: -4 26<28.75 95.8096 200.144 255> 618 27<176 230.856 335.191 402.125>
DStem2: 101.26 -4 182.137 -4 0.21644 0.976296<51.8158 609.368>
LayerCount: 2
Fore
SplineSet
238 594 m 1
 238 603 236 609 231 613 c 0
 228 616 221 618 207 618 c 2
 177 618 l 1
 172 619 170 621 171 625 c 2
 176 645 l 1
 288 642 l 1
 405 645 l 1
 401 626 l 1
 400 624 398 619 391 618 c 1
 361 618 l 2
 348 618 339 616 335 613 c 0
 327 607 322 602 320 595 c 0
 318 587 316 581 314 573 c 2
 198 67 l 2
 196 59 195 52 193 45 c 1
 193 38 195 32 200 27 c 0
 203 24 211 23 224 22 c 2
 253 22 l 1
 260 21 260 18 260 14 c 1
 255 -4 l 1
 255 -4 185 -2 139 -2 c 0
 95 -2 26 -4 26 -4 c 1
 30 15 l 2
 32 21 37 22 40 22 c 2
 70 22 l 2
 84 23 92 24 96 27 c 0
 104 32 108 38 111 46 c 0
 113 51 115 59 117 67 c 2
 234 573 l 2
 236 584 237 590 238 594 c 1
EndSplineSet
EndChar

StartChar: uni04D0
Encoding: 1232 1232 107
Width: 703
VWidth: 999
Flags: W
HStem: -1 29<12.6875 83.875 153.319 225 446.688 530.389 638 694> 244 39<293.004 495> 693 38<461.576 551.148>
VStem: 384 73<735.059 800.351>
DStem2: 117 81 161 72 0.516566 0.856247<-9.0364 228.241 271.704 570.497> 509 628 444 550 0.19716 -0.980371<63.6536 335.468 375.083 561.208>
LayerCount: 2
Fore
SplineSet
161 72 m 2
 156 65 152 56 152 49 c 0
 152 35 167 28 195 28 c 2
 224 28 l 2
 228 28 230 25 230 20 c 1
 227 1 l 1
 225 -1 l 1
 225 -1 126 1 102 1 c 0
 77 1 12 -1 12 -1 c 1
 10 1 l 1
 14 20 l 2
 15 25 18 28 23 28 c 2
 35 28 l 2
 76 28 97 47 117 81 c 2
 447 628 l 2
 462 653 472 662 480 662 c 0
 497 662 503 654 509 628 c 2
 618 86 l 2
 626 47 642 28 682 28 c 2
 693 28 l 2
 697 28 701 24 701 20 c 2
 698 1 l 1
 694 -1 l 1
 694 -1 619 1 580 1 c 0
 544 1 446 -1 446 -1 c 1
 444 1 l 1
 448 20 l 2
 449 25 452 28 457 28 c 2
 485 28 l 2
 515 28 537 38 537 61 c 0
 537 65 537 68 536 72 c 2
 502 244 l 1
 292 244 l 2
 268 244 259 238 252 227 c 2
 161 72 l 2
317 283 m 2
 495 283 l 1
 444 550 l 1
 296 301 l 2
 294 297 293 295 293 292 c 0
 293 287 299 283 317 283 c 2
615 777 m 1
 586 726 537 693 489 693 c 0
 430 693 384 721 384 761 c 0
 384 798 412 805 427 805 c 0
 447 805 460 797 460 784 c 0
 460 774 457 773 457 764 c 0
 457 745 473 731 502 731 c 0
 529 731 571 757 597 793 c 1
 615 777 l 1
EndSplineSet
LCarets2: 1 0 
EndChar

StartChar: uni04D1
Encoding: 1233 1233 108
Width: 486
VWidth: 999
Flags: W
HStem: -10 55<170.549 231.278 365.503 423.92> 408 31<284.925 388.623> 489 39<309.367 402.196>
VStem: 78 80<53.9716 233.216> 236 69<533.518 601.936> 323 78<14.4299 150.82>
LayerCount: 2
Fore
SplineSet
410 433 m 1
 430 428 456 431 480 431 c 1
 411 120 l 2
 407 101 401 68 401 59 c 0
 401 47 410 45 413 45 c 0
 423 45 442 66 469 103 c 1
 492 87 l 1
 466 45 418 -10 364 -10 c 0
 330 -10 323 16 323 35 c 0
 323 47 326 66 333 90 c 2
 349 142 l 1
 347 144 l 1
 287 55 228 -10 175 -10 c 0
 91 -10 78 69 78 125 c 0
 78 282 223 439 330 439 c 0
 370 439 383 436 410 433 c 1
360 219 m 1
 385 283 395 389 395 389 c 1
 376 401 354 408 333 408 c 0
 241 408 158 247 158 141 c 0
 158 85 168 45 202 45 c 0
 234 45 311 129 360 219 c 1
465 574 m 1
 436 522 387 489 339 489 c 0
 280 489 236 518 236 558 c 0
 236 595 262 608 277 608 c 0
 298 608 308 594 308 581 c 0
 308 572 305 570 305 561 c 0
 305 542 323 528 352 528 c 0
 379 528 421 554 447 590 c 1
 465 574 l 1
EndSplineSet
LCarets2: 1 0 
EndChar

StartChar: uni04D2
Encoding: 1234 1234 109
Width: 703
VWidth: 999
Flags: W
HStem: -1 29<12.6875 83.875 153.319 225 446.688 530.389 638 694> 244 39<293.004 495> 710 91<377.391 445.952 537.75 606.854>
VStem: 366 92<722.435 789.102> 527 92<722.898 790.223>
DStem2: 117 81 161 72 0.516566 0.856247<-9.0364 228.241 271.704 570.497> 509 628 444 550 0.19716 -0.980371<63.6536 335.468 375.083 561.208>
LayerCount: 2
Fore
SplineSet
161 72 m 2
 156 65 152 56 152 49 c 0
 152 35 167 28 195 28 c 2
 224 28 l 2
 228 28 230 25 230 20 c 1
 227 1 l 1
 225 -1 l 1
 225 -1 126 1 102 1 c 0
 77 1 12 -1 12 -1 c 1
 10 1 l 1
 14 20 l 2
 15 25 18 28 23 28 c 2
 35 28 l 2
 76 28 97 47 117 81 c 2
 447 628 l 2
 462 653 472 662 480 662 c 0
 497 662 503 654 509 628 c 2
 618 86 l 2
 626 47 642 28 682 28 c 2
 693 28 l 2
 697 28 701 24 701 20 c 2
 698 1 l 1
 694 -1 l 1
 694 -1 619 1 580 1 c 0
 544 1 446 -1 446 -1 c 1
 444 1 l 1
 448 20 l 2
 449 25 452 28 457 28 c 2
 485 28 l 2
 515 28 537 38 537 61 c 0
 537 65 537 68 536 72 c 2
 502 244 l 1
 292 244 l 2
 268 244 259 238 252 227 c 2
 161 72 l 2
317 283 m 2
 495 283 l 1
 444 550 l 1
 296 301 l 2
 294 297 293 295 293 292 c 0
 293 287 299 283 317 283 c 2
420 801 m 0
 442 801 458 785 458 764 c 0
 458 732 428 710 404 710 c 0
 382 710 366 726 366 748 c 0
 366 779 395 801 420 801 c 0
581 802 m 0
 603 802 619 785 619 764 c 0
 619 733 590 711 565 711 c 0
 543 711 527 727 527 748 c 0
 527 780 556 802 581 802 c 0
EndSplineSet
LCarets2: 1 0 
EndChar

StartChar: uni04D3
Encoding: 1235 1235 110
Width: 486
VWidth: 999
Flags: W
HStem: -10 55<170.549 231.278 365.503 423.92> 408 31<284.925 388.623> 527 90<246.25 314.75 406.555 475.75>
VStem: 78 80<53.9716 233.216> 234 93<538.254 605.746> 323 78<14.4299 150.82> 395 93<538.285 606.715>
LayerCount: 2
Fore
SplineSet
234 564 m 0xf8
 234 585 255 617 286 617 c 0
 308 617 327 601 327 580 c 0
 327 559 306 527 275 527 c 0
 253 527 234 543 234 564 c 0xf8
395 564 m 0xf2
 395 586 416 618 447 618 c 0
 469 618 488 602 488 581 c 0
 488 559 467 527 436 527 c 0
 414 527 395 543 395 564 c 0xf2
410 433 m 1
 430 428 456 431 480 431 c 1
 411 120 l 2
 407 101 401 68 401 59 c 0
 401 47 410 45 413 45 c 0
 423 45 442 66 469 103 c 1
 492 87 l 1
 466 45 418 -10 364 -10 c 0
 330 -10 323 16 323 35 c 0xf4
 323 47 326 66 333 90 c 2
 349 142 l 1
 347 144 l 1
 287 55 228 -10 175 -10 c 0
 91 -10 78 69 78 125 c 0
 78 282 223 439 330 439 c 0
 370 439 383 436 410 433 c 1
360 219 m 1
 385 283 395 389 395 389 c 1xf2
 376 401 354 408 333 408 c 0
 241 408 158 247 158 141 c 0
 158 85 168 45 202 45 c 0
 234 45 311 129 360 219 c 1
EndSplineSet
EndChar

StartChar: uni04D4
Encoding: 1236 1236 111
Width: 865
VWidth: 999
Flags: W
HStem: -1 29<4.6875 84.1021 145.033 198 342.109 427.72> 2 39<525.106 754.105> 266 39<330 480> 329 34<582 714.891> 608 38<628.061 825.01> 618 28<421 478.088>
VStem: 720 33<250 322.517> 858 30<493 560.956>
DStem2: 108 70 158 68 0.587718 0.809066<-5.49143 272.594 320.604 651.884> 420.161 -1 502.841 -1 0.21644 0.976296<69.6729 273.622 313.43 355.907 390.4 391.2>
LayerCount: 2
Fore
SplineSet
330 305 m 1x33
 488 305 l 1
 541 575 l 2
 543 587 543 592 543 598 c 1
 330 305 l 1x33
472 3 m 1
 435 1 342 -1 342 -1 c 1
 340 1 l 1
 343 19 l 1
 345 24 348 28 353 28 c 2
 379 28 l 2
 420 28 437 44 443 72 c 2
 480 266 l 1
 302 266 l 1
 158 68 l 2
 145 51 141 44 140 39 c 0
 138 30 146 28 169 28 c 2
 199 28 l 2
 203 28 204 24 204 22 c 1
 199 1 l 1
 198 -1 l 1
 198 -1 133 1 94 1 c 0
 59 1 4 -1 4 -1 c 1
 2 1 l 1
 6 20 l 2
 7 25 12 28 18 28 c 2
 40 28 l 2
 69 28 83 35 108 70 c 2
 474 577 l 1
 477 583 479 587 480 591 c 0
 483 607 468 618 453 618 c 2
 422 618 l 2
 416 618 415 621 416 625 c 2
 419 645 l 1
 421 646 l 1
 597 646 l 1xb7
 675 647 l 1
 897 648 l 1
 892 595 889 534 888 493 c 1
 858 488 l 1
 850 557 842 608 767 608 c 2
 666 608 l 2
 642 608 628 600 624 576 c 2
 582 363 l 1
 685 363 l 2
 720 363 732 379 744 407 c 2
 756 437 l 2
 758 441 761 445 765 445 c 2
 787 445 l 2
 790 445 790 443 790 441 c 1
 782 416 770 379 764 346 c 0
 757 312 753 267 753 250 c 1
 750 247 l 1
 727 247 l 2
 721 247 720 250 720 254 c 2
 720 285 l 2
 720 313 712 329 678 329 c 2
 576 329 l 1
 526 74 l 2
 521 47 534 41 556 41 c 2
 687 41 l 2
 763 41 804 100 838 172 c 1
 867 167 l 1
 846 115 824 58 809 2 c 1
 549 2 l 1x7b
 472 3 l 1
EndSplineSet
EndChar

StartChar: uni04D5
Encoding: 1237 1237 112
Width: 687
VWidth: 999
Flags: W
HStem: -10 49<455.74 574.606> -10 42<146.859 270.359> 215 35<247.93 348 431 557.687> 409 30<236.246 344.078 536.689 623.389>
VStem: 60 74<45.1016 145.449> 126 79<298.712 372.455> 348 73<163.798 215> 356 75<253 305.393> 651 78<298.59 390.072>
LayerCount: 2
Fore
SplineSet
431 253 m 1x3180
 541 259 651 269 651 347 c 0
 651 376 626 405 583 405 c 0
 515 405 458 338 431 253 c 1x3180
348 215 m 1x7a80
 293 211 134 191 134 89 c 0
 134 56 155 32 208 32 c 0
 245 32 284 51 312 101 c 0
 322 119 336 165 348 215 c 1x7a80
368 334 m 0
 368 398 322 409 302 409 c 0
 269 409 205 397 205 349 c 0
 205 343 207 340 207 335 c 0
 207 311 184 292 158 292 c 0
 134 292 126 307 126 322 c 0
 126 386 222 439 312 439 c 0
 336 439 412 436 434 369 c 1
 477 414 535 439 592 439 c 0
 695 439 729 386 729 350 c 0
 729 244 569 226 421 218 c 1
 417 199 415 180 415 163 c 0
 415 87 455 39 517 39 c 0
 571 39 607 59 646 94 c 1
 660 84 l 1
 619 30 557 -10 491 -10 c 0xb680
 400 -10 368 34 353 59 c 1
 314 18 252 -10 197 -10 c 0
 105 -10 60 26 60 81 c 0
 60 216 239 242 356 250 c 1x7980
 364 288 368 312 368 334 c 0
EndSplineSet
EndChar

StartChar: uni04D6
Encoding: 1238 1238 113
Width: 566
VWidth: 999
Flags: W
HStem: 0 39<194.106 457.518> 1 27<14.875 99.2852> 327 34<246 412.832> 423 20G<459.5 484.5> 606 40<287.062 519.801> 618 28<126 199.454> 693 38<376.576 466.148>
VStem: 299 73<735.059 800.351> 419 34<248 320.517> 554 29<491 551.467>
DStem2: 114 72 195 72 0.172666 0.98498<-13.7509 272.926 307.451 546.274>
LayerCount: 2
Fore
SplineSet
460 606 m 2x3bc0
 325 606 l 2
 301 606 288 598 283 574 c 2
 246 361 l 1
 382 361 l 2
 417 361 429 377 440 405 c 2
 453 435 l 2
 454 439 458 443 461 443 c 2
 483 443 l 2
 486 443 486 441 486 439 c 1
 479 414 467 377 461 344 c 0
 456 310 453 265 453 248 c 1
 449 245 l 1
 426 245 l 2
 421 245 419 249 419 252 c 2
 419 283 l 2
 418 312 410 327 376 327 c 2
 240 327 l 1
 195 72 l 2
 190 45 203 39 225 39 c 2
 391 39 l 2
 467 39 506 98 539 170 c 1
 569 165 l 1
 548 113 527 56 513 0 c 1
 219 0 l 1xbbc0
 142 1 l 1
 12 -1 l 1
 16 21 l 2
 17 24 19 28 25 28 c 2
 55 28 l 2
 95 28 109 44 114 72 c 2
 203 573 l 2
 208 604 197 618 159 618 c 2
 129 618 l 2
 122 618 122 622 123 625 c 2
 126 646 l 1x77c0
 256 645 l 1
 333 646 l 1x3bc0
 590 646 l 1x37c0
 585 593 583 532 583 491 c 1
 554 486 l 1
 543 555 535 606 460 606 c 2x3bc0
530 777 m 1
 501 726 452 693 404 693 c 0
 345 693 299 721 299 761 c 0
 299 798 327 805 342 805 c 0
 362 805 375 797 375 784 c 0
 375 774 372 773 372 764 c 0
 372 745 388 731 417 731 c 0
 444 731 486 757 512 793 c 1
 530 777 l 1
EndSplineSet
LCarets2: 1 0 
EndChar

StartChar: uni04D7
Encoding: 1239 1239 114
Width: 411
VWidth: 999
Flags: W
HStem: -10 48<199.431 306.395> 408 31<261.679 358.161> 489 39<291.367 384.196>
VStem: 83 83<72.8728 229.761> 218 69<533.518 601.936> 365 70<305.657 404.017>
LayerCount: 2
Fore
SplineSet
365 370 m 0
 365 399 349 408 313 408 c 0
 265 408 206 377 171 226 c 1
 248 232 365 275 365 370 c 0
167 199 m 1
 166 191 166 170 166 165 c 0
 166 74 205 38 250 38 c 0
 298 38 334 66 388 124 c 1
 410 108 l 1
 354 31 295 -10 214 -10 c 0
 112 -10 83 57 83 142 c 0
 83 269 165 439 336 439 c 0
 417 439 435 404 435 369 c 0
 435 331 428 250 167 199 c 1
447 574 m 1
 418 522 369 489 321 489 c 0
 262 489 218 518 218 558 c 0
 218 595 244 608 259 608 c 0
 280 608 290 594 290 581 c 0
 290 572 287 570 287 561 c 0
 287 542 305 528 334 528 c 0
 361 528 403 554 429 590 c 1
 447 574 l 1
EndSplineSet
LCarets2: 1 0 
EndChar

StartChar: uni04D8
Encoding: 1240 1240 115
Width: 668
VWidth: 999
Flags: W
HStem: -12 34<267.543 416.806> 216 44<176 585> 624 34<363.324 524.115>
VStem: 102 74<109.305 215.372> 627 94<287.854 517.161>
LayerCount: 2
Fore
SplineSet
176 216 m 1
 178 86 245 22 342 22 c 0
 448 22 544 116 585 216 c 1
 176 216 l 1
222 523 m 1
 205 547 l 1
 301 621 366 658 476 658 c 0
 651 658 721 543 721 415 c 0
 721 386 717 355 710 326 c 0
 665 131 521 -12 328 -12 c 0
 162 -12 102 84 102 202 c 0
 102 221 104 240 106 260 c 1
 604 260 l 1
 608 271 611 283 614 297 c 0
 623 334 627 369 627 402 c 0
 627 534 561 624 453 624 c 0
 359 624 288 575 222 523 c 1
EndSplineSet
EndChar

StartChar: afii10846
Encoding: 1241 1241 116
Width: 437
VWidth: 999
Flags: W
HStem: -13 34<169.25 274.049> 148 39<149.027 360> 390 49<214.231 344.174>
VStem: 73 73<40.0983 147.226> 386 79<188.613 346.233>
LayerCount: 2
Fore
SplineSet
137 335 m 1
 123 346 l 1
 149 372 208 439 304 439 c 0
 368 439 414 421 439 382 c 0
 457 355 465 325 465 289 c 0
 465 268 462 245 457 220 c 0
 437 137 395 74 329 28 c 0
 291 2 250 -13 208 -13 c 0
 163 -13 132 -2 110 16 c 1
 95 30 73 59 73 117 c 0
 73 137 76 160 82 187 c 1
 372 187 l 1
 375 196 377 202 379 212 c 0
 383 232 386 251 386 268 c 0
 386 300 378 327 361 351 c 0
 343 376 317 390 283 390 c 0
 250 390 221 385 192 371 c 0
 156 354 145 342 137 335 c 1
360 148 m 1
 153 148 l 1
 149 132 146 112 146 96 c 0
 146 91 146 87 147 83 c 0
 149 64 156 49 165 41 c 0
 178 28 194 21 216 21 c 0
 238 21 258 28 276 39 c 0
 295 50 311 65 326 84 c 1
 340 104 353 130 360 148 c 1
EndSplineSet
EndChar

StartChar: uni04DA
Encoding: 1242 1242 117
Width: 668
VWidth: 999
Flags: W
HStem: -12 34<267.543 416.806> 216 44<176 585> 624 34<363.324 524.115> 706 90<343.72 411.84 533.048 600.82>
VStem: 102 74<109.305 215.372> 331 93<718.556 783.364> 521 92<718.092 784.265> 627 94<287.854 517.161>
LayerCount: 2
Fore
SplineSet
176 216 m 1
 178 86 245 22 342 22 c 0
 448 22 544 116 585 216 c 1
 176 216 l 1
222 523 m 1
 205 547 l 1
 301 621 366 658 476 658 c 0
 651 658 721 543 721 415 c 0
 721 386 717 355 710 326 c 0
 665 131 521 -12 328 -12 c 0
 162 -12 102 84 102 202 c 0
 102 221 104 240 106 260 c 1
 604 260 l 1
 608 271 611 283 614 297 c 0
 623 334 627 369 627 402 c 0
 627 534 561 624 453 624 c 0
 359 624 288 575 222 523 c 1
332 751 m 0
 337 776 362 796 387 796 c 0
 409 796 424 781 424 760 c 0
 424 757 423 754 423 751 c 0
 418 726 394 706 369 706 c 0
 347 706 331 722 331 743 c 0
 331 745 332 748 332 751 c 0
522 752 m 0
 527 776 551 797 576 797 c 0
 598 797 613 781 613 761 c 0
 613 758 613 754 612 752 c 1
 608 727 584 706 559 706 c 0
 537 706 521 722 521 744 c 0
 521 746 521 749 522 752 c 0
EndSplineSet
LCarets2: 1 0 
EndChar

StartChar: uni04DB
Encoding: 1243 1243 118
Width: 437
VWidth: 999
Flags: W
HStem: -13 34<169.25 274.049> 148 39<149.027 360> 390 49<214.231 344.174> 525 91<199.391 267.952 359.75 428.854>
VStem: 73 73<40.0983 147.226> 188 92<537.435 604.102> 349 92<537.898 605.223> 386 79<188.613 346.233>
LayerCount: 2
Fore
SplineSet
137 335 m 1xfd
 123 346 l 1
 149 372 208 439 304 439 c 0
 368 439 414 421 439 382 c 0
 457 355 465 325 465 289 c 0
 465 268 462 245 457 220 c 0
 437 137 395 74 329 28 c 0
 291 2 250 -13 208 -13 c 0
 163 -13 132 -2 110 16 c 1
 95 30 73 59 73 117 c 0
 73 137 76 160 82 187 c 1
 372 187 l 1
 375 196 377 202 379 212 c 0
 383 232 386 251 386 268 c 0
 386 300 378 327 361 351 c 0
 343 376 317 390 283 390 c 0
 250 390 221 385 192 371 c 0
 156 354 145 342 137 335 c 1xfd
360 148 m 1
 153 148 l 1
 149 132 146 112 146 96 c 0
 146 91 146 87 147 83 c 0
 149 64 156 49 165 41 c 0
 178 28 194 21 216 21 c 0
 238 21 258 28 276 39 c 0
 295 50 311 65 326 84 c 1
 340 104 353 130 360 148 c 1
242 616 m 0
 264 616 280 600 280 579 c 0
 280 547 250 525 226 525 c 0
 204 525 188 541 188 563 c 0
 188 594 217 616 242 616 c 0
403 617 m 0
 425 617 441 600 441 579 c 0
 441 548 412 526 387 526 c 0
 365 526 349 542 349 563 c 0xfe
 349 595 378 617 403 617 c 0
EndSplineSet
LCarets2: 1 0 
EndChar

StartChar: uni04E0
Encoding: 1248 1248 119
Width: 608
VWidth: 999
Flags: W
HStem: -211 37<194.102 324.335> 471 21G<147 179> 606 40<248.533 553>
VStem: 487 91<-0.166016 180.193>
DStem2: 295 252 418 288 0.588986 0.808143<101.538 438.041>
LayerCount: 2
Fore
SplineSet
281 646 m 2
 636 646 l 2
 655 646 662 641 662 634 c 0
 662 625 652 610 638 591 c 2
 418 288 l 1
 528 265 578 190 578 100 c 0
 578 83 576 67 573 51 c 0
 549 -88 395 -211 235 -211 c 0
 158 -211 21 -178 21 -118 c 0
 21 -115 21 -113 22 -110 c 0
 26 -87 42 -60 76 -60 c 0
 102 -60 128 -74 138 -95 c 0
 161 -143 205 -174 260 -174 c 0
 348 -174 466 -53 482 42 c 0
 486 60 487 77 487 93 c 0
 487 213 398 255 337 255 c 0
 321 255 310 255 295 252 c 1
 553 606 l 1
 304 606 l 2
 230 605 185 516 173 471 c 1
 147 473 l 1
 203 667 l 1
 225 663 257 646 281 646 c 2
EndSplineSet
EndChar

StartChar: uni04E1
Encoding: 1249 1249 120
Width: 426
VWidth: 999
Flags: W
HStem: -224 29<97.7734 200.365> 391 39<188.958 370>
VStem: 323 77<-73.5527 67.8078>
DStem2: 147 106 256 152 0.616234 0.787563<103.397 361.876>
LayerCount: 2
Fore
SplineSet
207 430 m 2
 437 430 l 2
 452 430 458 427 458 420 c 0
 458 419 458 418 458 417 c 1
 456 411 450 401 441 388 c 2
 256 152 l 1
 352 144 400 95 400 19 c 0
 400 3 398 -14 394 -32 c 0
 372 -128 273 -224 129 -224 c 0
 43 -224 -8 -189 -8 -158 c 0
 -8 -156 -8 -154 -7 -152 c 1
 -3 -136 8 -122 29 -122 c 0
 52 -122 67 -128 74 -149 c 0
 82 -172 104 -195 145 -195 c 0
 194 -195 292 -150 319 -33 c 0
 322 -22 323 -11 323 -1 c 0
 323 64 275 113 208 113 c 0
 190 113 170 111 147 106 c 1
 370 391 l 1
 228 391 l 2
 198 391 166 378 127 294 c 1
 102 299 l 1
 169 451 l 1
 191 447 l 1
 190 444 190 442 189 441 c 1
 188 432 193 430 207 430 c 2
EndSplineSet
EndChar

StartChar: uni04E6
Encoding: 1254 1254 121
Width: 647
VWidth: 999
Flags: W
HStem: -12 34<277.005 414.259> 624 34<369.657 513.8> 706 90<364.72 432.84 554.048 621.82>
VStem: 88 88<127.792 357.206> 352 93<718.556 783.364> 542 92<718.092 784.265> 605 86<279.578 527.328>
LayerCount: 2
Fore
SplineSet
346 22 m 0xfa
 501 22 605 238 605 422 c 0
 605 556 541 624 437 624 c 0
 285 624 176 409 176 239 c 0
 176 101 253 22 346 22 c 0xfa
691 414 m 0
 691 226 555 -12 321 -12 c 0
 184 -12 88 79 88 229 c 0
 88 425 244 658 456 658 c 0
 598 658 691 564 691 414 c 0
353 751 m 0
 358 776 383 796 408 796 c 0
 430 796 445 781 445 760 c 0
 445 757 444 754 444 751 c 0
 439 726 415 706 390 706 c 0
 368 706 352 722 352 743 c 0
 352 745 353 748 353 751 c 0
543 752 m 0
 548 776 572 797 597 797 c 0
 619 797 634 781 634 761 c 0
 634 758 634 754 633 752 c 1
 629 727 605 706 580 706 c 0
 558 706 542 722 542 744 c 0xfc
 542 746 542 749 543 752 c 0
EndSplineSet
LCarets2: 1 0 
EndChar

StartChar: uni04E7
Encoding: 1255 1255 122
Width: 447
VWidth: 999
Flags: W
HStem: -10 35<199.842 295.783> 406 33<249.303 355.467> 526 91<230.391 298.952 390.75 459.854>
VStem: 78 84<59.8814 274.021> 219 92<538.435 605.102> 380 92<538.898 606.223> 384 81<164.708 379.418>
LayerCount: 2
Fore
SplineSet
273 617 m 0xf8
 295 617 311 601 311 580 c 0
 311 548 281 526 257 526 c 0
 235 526 219 542 219 564 c 0
 219 595 248 617 273 617 c 0xf8
434 618 m 0
 456 618 472 601 472 580 c 0
 472 549 443 527 418 527 c 0
 396 527 380 543 380 564 c 0xfc
 380 596 409 618 434 618 c 0
162 170 m 0
 162 42 212 25 243 25 c 0
 355 25 384 205 384 270 c 0xfa
 384 334 384 406 306 406 c 0
 192 406 162 260 162 170 c 0
78 162 m 0
 78 282 157 439 324 439 c 0
 447 439 465 349 465 277 c 0
 465 119 346 -10 218 -10 c 0
 91 -10 78 109 78 162 c 0
EndSplineSet
LCarets2: 1 0 
EndChar

StartChar: uni04E8
Encoding: 1256 1256 123
Width: 698
VWidth: 999
Flags: W
HStem: -12 34<291.848 447.212> 258 59<445.582 567.846> 323 59<266.721 391.192> 623 34<382.249 533.767>
VStem: 89 94<133.125 274.62> 640 93<361.062 506.812>
LayerCount: 2
Fore
SplineSet
636 341 m 1
 581 268 517 258 492 258 c 0
 460 258 434 275 408 291 c 0
 381 308 356 323 325 323 c 0
 284 323 220 297 183 254 c 1
 183 250 183 246 183 242 c 0
 183 102 262 22 372 22 c 0
 487 22 595 131 630 310 c 0
 632 320 634 331 636 341 c 1
726 329 m 0
 687 129 537 -12 346 -12 c 0
 196 -12 89 83 89 237 c 0
 89 260 92 285 97 310 c 0
 136 506 296 657 475 657 c 0
 621 657 733 558 733 400 c 0
 733 377 731 354 726 329 c 0
456 623 m 0
 359 623 233 537 192 327 c 0
 189 314 188 302 186 290 c 1
 222 340 284 382 344 382 c 0
 372 382 399 366 427 350 c 0
 454 333 481 317 508 317 c 0
 541 317 603 334 640 384 c 1
 640 391 640 398 640 405 c 0
 640 550 561 623 456 623 c 0
EndSplineSet
EndChar

StartChar: uni04E9
Encoding: 1257 1257 124
Width: 447
VWidth: 999
Flags: W
HStem: -10 35<199.842 294.693> 179 50<261.777 375.518> 207 42<178.251 279.384> 406 33<249.303 355.467>
VStem: 78 84<59.8814 274.021> 384 81<198.124 379.418>
LayerCount: 2
Fore
SplineSet
162 170 m 0xdc
 162 42 212 25 243 25 c 0
 323 25 361 118 376 194 c 1
 356 186 335 179 316 179 c 0xdc
 275 179 250 207 218 207 c 0
 207 207 177 200 170 200 c 0
 164 200 165 209 166 213 c 0
 169 228 235 249 275 249 c 0xbc
 316 249 332 229 368 229 c 0
 372 229 377 229 381 230 c 1
 383 246 384 259 384 270 c 0
 384 334 384 406 306 406 c 0
 192 406 162 260 162 170 c 0xdc
78 162 m 0
 78 282 157 439 324 439 c 0
 447 439 465 349 465 277 c 0
 465 119 346 -10 218 -10 c 0
 91 -10 78 109 78 162 c 0
EndSplineSet
EndChar

StartChar: uni04EA
Encoding: 1258 1258 125
Width: 698
VWidth: 999
Flags: W
HStem: -12 34<291.848 447.212> 258 59<445.582 567.846> 323 59<266.721 391.192> 623 34<382.249 533.767> 708 90<361.72 429.84 551.048 618.82>
VStem: 89 94<133.125 274.62> 349 93<720.556 785.364> 539 92<720.092 786.265> 640 93<361.062 506.812>
LayerCount: 2
Fore
SplineSet
636 341 m 1
 581 268 517 258 492 258 c 0
 460 258 434 275 408 291 c 0
 381 308 356 323 325 323 c 0
 284 323 220 297 183 254 c 1
 183 250 183 246 183 242 c 0
 183 102 262 22 372 22 c 0
 487 22 595 131 630 310 c 0
 632 320 634 331 636 341 c 1
726 329 m 0
 687 129 537 -12 346 -12 c 0
 196 -12 89 83 89 237 c 0
 89 260 92 285 97 310 c 0
 136 506 296 657 475 657 c 0
 621 657 733 558 733 400 c 0
 733 377 731 354 726 329 c 0
456 623 m 0
 359 623 233 537 192 327 c 0
 189 314 188 302 186 290 c 1
 222 340 284 382 344 382 c 0
 372 382 399 366 427 350 c 0
 454 333 481 317 508 317 c 0
 541 317 603 334 640 384 c 1
 640 391 640 398 640 405 c 0
 640 550 561 623 456 623 c 0
350 753 m 0
 355 778 380 798 405 798 c 0
 427 798 442 783 442 762 c 0
 442 759 441 756 441 753 c 0
 436 728 412 708 387 708 c 0
 365 708 349 724 349 745 c 0
 349 747 350 750 350 753 c 0
540 754 m 0
 545 778 569 799 594 799 c 0
 616 799 631 783 631 763 c 0
 631 760 631 756 630 754 c 1
 626 729 602 708 577 708 c 0
 555 708 539 724 539 746 c 0
 539 748 539 751 540 754 c 0
EndSplineSet
LCarets2: 1 0 
EndChar

StartChar: uni04EB
Encoding: 1259 1259 126
Width: 447
VWidth: 999
Flags: W
HStem: -10 35<199.842 294.693> 179 50<261.777 375.518> 207 42<178.251 279.384> 406 33<249.303 355.467> 525 91<232.391 300.952 392.75 461.854>
VStem: 78 84<59.8814 274.021> 221 92<537.435 604.102> 382 92<537.898 605.223> 384 81<198.124 379.418>
LayerCount: 2
Fore
SplineSet
275 616 m 0x9e
 297 616 313 600 313 579 c 0
 313 547 283 525 259 525 c 0
 237 525 221 541 221 563 c 0
 221 594 250 616 275 616 c 0x9e
436 617 m 0
 458 617 474 600 474 579 c 0
 474 548 445 526 420 526 c 0
 398 526 382 542 382 563 c 0x9f
 382 595 411 617 436 617 c 0
162 170 m 0
 162 42 212 25 243 25 c 0
 323 25 361 118 376 194 c 1
 356 186 335 179 316 179 c 0xde80
 275 179 250 207 218 207 c 0
 207 207 177 200 170 200 c 0
 164 200 165 209 166 213 c 0
 169 228 235 249 275 249 c 0xbe80
 316 249 332 229 368 229 c 0
 372 229 377 229 381 230 c 1
 383 246 384 259 384 270 c 0xde80
 384 334 384 406 306 406 c 0
 192 406 162 260 162 170 c 0
78 162 m 0
 78 282 157 439 324 439 c 0
 447 439 465 349 465 277 c 0
 465 119 346 -10 218 -10 c 0
 91 -10 78 109 78 162 c 0
EndSplineSet
LCarets2: 1 0 
EndChar

StartChar: uni04EF
Encoding: 1263 1263 127
Width: 475
VWidth: 999
Flags: W
HStem: -228 66<45.2233 136.783> 386 53<134.674 203> 538 44<203.755 480.978>
VStem: 450 56<303.558 397.5>
DStem2: 250 368 177 363 0.215341 -0.976539<-37.2347 295.571> 227 -62 261 -70 0.519187 0.854661<-94.5624 71.899 164.638 449.268>
LayerCount: 2
Fore
SplineSet
454 538 m 2
 209 538 l 2
 203 538 200 543 200 549 c 0
 200 550 200 552 201 553 c 2
 204 565 218 582 229 582 c 2
 474 582 l 2
 482 582 485 577 485 572 c 0
 485 570 485 569 484 568 c 2
 482 556 467 538 454 538 c 2
74 -228 m 0
 56 -228 14 -220 14 -188 c 0
 14 -172 22 -142 70 -142 c 0
 78 -142 86 -146 94 -152 c 0
 100 -158 106 -162 116 -162 c 0
 130 -162 188 -129 227 -62 c 2
 255 -16 l 1
 232 112 211 215 177 363 c 0
 173 380 165 386 157 386 c 0
 144 386 129 371 118 359 c 0
 112 353 103 359 101 362 c 2
 92 374 l 1
 105 391 145 439 187 439 c 0
 219 439 237 422 250 368 c 0
 275 265 296 166 312 79 c 1
 422 259 l 2
 443 296 450 312 450 329 c 0
 450 337 442 346 434 354 c 0
 423 364 413 376 413 399 c 0
 413 421 434 439 455 439 c 0
 480 439 506 415 506 380 c 0
 506 352 495 316 451 242 c 2
 261 -70 l 2
 199 -171 126 -228 74 -228 c 0
EndSplineSet
LCarets2: 1 0 
EndChar

StartChar: uni04F1
Encoding: 1265 1265 128
Width: 475
VWidth: 999
Flags: W
HStem: -228 66<45.2233 136.783> 386 53<134.674 203> 525 91<234.391 302.952 394.75 463.854>
VStem: 223 92<537.435 604.102> 384 92<537.898 605.223> 450 56<303.558 397.5>
DStem2: 250 368 177 363 0.215341 -0.976539<-37.2347 295.571> 227 -62 261 -70 0.519187 0.854661<-94.5624 71.899 164.638 449.268>
LayerCount: 2
Fore
SplineSet
277 616 m 0xf0
 299 616 315 600 315 579 c 0
 315 547 285 525 261 525 c 0
 239 525 223 541 223 563 c 0
 223 594 252 616 277 616 c 0xf0
438 617 m 0
 460 617 476 600 476 579 c 0
 476 548 447 526 422 526 c 0
 400 526 384 542 384 563 c 0xf8
 384 595 413 617 438 617 c 0
74 -228 m 0
 56 -228 14 -220 14 -188 c 0
 14 -172 22 -142 70 -142 c 0
 78 -142 86 -146 94 -152 c 0
 100 -158 106 -162 116 -162 c 0
 130 -162 188 -129 227 -62 c 2
 255 -16 l 1
 232 112 211 215 177 363 c 0
 173 380 165 386 157 386 c 0
 144 386 129 371 118 359 c 0
 112 353 103 359 101 362 c 2
 92 374 l 1
 105 391 145 439 187 439 c 0
 219 439 237 422 250 368 c 0
 275 265 296 166 312 79 c 1
 422 259 l 2
 443 296 450 312 450 329 c 0
 450 337 442 346 434 354 c 0
 423 364 413 376 413 399 c 0
 413 421 434 439 455 439 c 0
 480 439 506 415 506 380 c 0xf4
 506 352 495 316 451 242 c 2
 261 -70 l 2
 199 -171 126 -228 74 -228 c 0
EndSplineSet
LCarets2: 1 0 
EndChar

StartChar: uni04F3
Encoding: 1267 1267 129
Width: 475
VWidth: 999
Flags: W
HStem: -228 66<45.2233 136.783> 386 53<134.674 203> 632 25G<376 383 503 518>
VStem: 450 56<303.558 397.5>
DStem2: 250 368 177 363 0.215341 -0.976539<-37.2347 295.571> 227 -62 261 -70 0.519187 0.854661<-94.5624 71.899 164.638 449.268>
LayerCount: 2
Fore
SplineSet
509 652 m 0
 527 652 540 639 540 623 c 0
 540 609 531 599 527 596 c 2
 388 486 l 2
 386 484 383 484 381 484 c 0
 372 484 366 497 372 501 c 1
 482 640 l 2
 489 649 497 652 509 652 c 0
378 657 m 0
 388 657 409 651 409 629 c 0
 409 619 405 611 399 605 c 2
 269 484 l 2
 267 482 263 481 261 481 c 0
 255 481 250 485 250 492 c 0
 250 494 250 495 251 497 c 2
 349 643 l 2
 357 656 374 657 378 657 c 0
74 -228 m 0
 56 -228 14 -220 14 -188 c 0
 14 -172 22 -142 70 -142 c 0
 78 -142 86 -146 94 -152 c 0
 100 -158 106 -162 116 -162 c 0
 130 -162 188 -129 227 -62 c 2
 255 -16 l 1
 232 112 211 215 177 363 c 0
 173 380 165 386 157 386 c 0
 144 386 129 371 118 359 c 0
 112 353 103 359 101 362 c 2
 92 374 l 1
 105 391 145 439 187 439 c 0
 219 439 237 422 250 368 c 0
 275 265 296 166 312 79 c 1
 422 259 l 2
 443 296 450 312 450 329 c 0
 450 337 442 346 434 354 c 0
 423 364 413 376 413 399 c 0
 413 421 434 439 455 439 c 0
 480 439 506 415 506 380 c 0
 506 352 495 316 451 242 c 2
 261 -70 l 2
 199 -171 126 -228 74 -228 c 0
EndSplineSet
LCarets2: 1 0 
EndChar

StartChar: uni1E00
Encoding: 7680 7680 130
Width: 695
VWidth: 999
Flags: W
HStem: -207 30<273.1 346.855> -70 29<291.133 365.013> -1 29<4.6875 75.875 146.314 217 439.016 522.389 630 687> 244 39<285.005 487>
VStem: 234 30<-160.671 -96.5675> 374 31<-150.807 -85.375>
DStem2: 109 81 153 72 0.516566 0.856247<-8.51984 228.103 271.704 570.497> 501 628 436 550 0.19716 -0.980371<63.6536 335.468 375.28 561.208>
LayerCount: 2
Fore
SplineSet
153 72 m 2
 149 65 145 56 145 49 c 0
 145 35 160 28 187 28 c 2
 216 28 l 2
 220 28 223 25 223 20 c 1
 219 1 l 1
 217 -1 l 1
 217 -1 119 1 94 1 c 0
 69 1 4 -1 4 -1 c 1
 2 1 l 1
 6 20 l 2
 7 25 10 28 15 28 c 2
 27 28 l 2
 68 28 89 47 109 81 c 2
 439 628 l 2
 454 653 464 662 473 662 c 0
 489 662 496 654 501 628 c 2
 610 86 l 2
 618 47 634 28 674 28 c 2
 685 28 l 2
 689 28 693 24 693 20 c 2
 690 1 l 1
 687 -1 l 1
 687 -1 611 1 572 1 c 0
 536 1 438 -1 438 -1 c 1
 437 1 l 1
 440 20 l 2
 441 25 444 28 449 28 c 2
 477 28 l 2
 507 28 529 38 529 61 c 0
 529 65 529 68 528 72 c 2
 495 244 l 1
 285 244 l 2
 260 244 252 238 245 227 c 2
 153 72 l 2
309 283 m 2
 487 283 l 1
 436 550 l 1
 288 301 l 2
 286 297 285 295 285 292 c 0
 285 287 292 283 309 283 c 2
338 -41 m 0
 362 -41 379 -49 391 -65 c 0
 401 -77 405 -90 405 -104 c 0
 405 -111 404 -117 403 -124 c 0
 398 -146 384 -167 364 -183 c 0
 344 -199 323 -207 299 -207 c 0
 277 -207 259 -199 247 -183 c 0
 238 -171 234 -158 234 -144 c 0
 234 -137 235 -130 236 -124 c 0
 241 -101 254 -81 274 -65 c 0
 294 -49 315 -41 338 -41 c 0
331 -70 m 0
 316 -70 302 -75 290 -85 c 0
 277 -96 269 -108 265 -124 c 0
 264 -128 264 -132 264 -136 c 0
 264 -146 267 -154 272 -161 c 0
 280 -172 291 -177 306 -177 c 0
 321 -177 336 -172 348 -161 c 0
 361 -151 369 -138 373 -124 c 0
 374 -119 374 -115 374 -111 c 0
 374 -101 371 -93 366 -85 c 0
 358 -75 346 -70 331 -70 c 0
EndSplineSet
LCarets2: 1 0 
EndChar

StartChar: uni1E01
Encoding: 7681 7681 131
Width: 504
VWidth: 999
Flags: W
HStem: -218 30<217.091 290.725> -81 29<234.902 307.42> -12 42<178.464 254.416> 411 31<287.172 379.383>
VStem: 78 79<49.1019 232.478> 177 30<-178.702 -107.777> 318 30<-160.52 -90.6321> 343 78<12.6797 140.253>
DStem2: 284.18 -218 358.511 -218 0.21644 0.976296<298.525 350.304 620.922 668.972>
LayerCount: 2
Fore
SplineSet
509 441 m 1xfd
 433 118 l 2
 428 99 421 66 421 57 c 0
 421 45 432 43 434 43 c 0
 447 43 466 63 495 98 c 1
 514 87 l 1
 490 55 477 37 453 17 c 0
 429 -3 406 -12 385 -12 c 0
 351 -12 343 14 343 33 c 0
 343 52 348 84 360 124 c 1
 301 24 234 -12 192 -12 c 0
 104 -12 78 74 78 130 c 0
 78 287 228 442 334 442 c 0
 373 442 412 417 424 387 c 1
 434 434 l 1
 509 441 l 1xfd
374 192 m 0
 396 248 408 315 408 331 c 0
 408 372 381 411 338 411 c 0
 246 411 157 254 157 148 c 0
 157 92 158 30 231 30 c 0
 269 30 341 107 374 192 c 0
281 -52 m 0
 305 -52 322 -60 335 -76 c 0
 344 -88 348 -101 348 -116 c 0xfe
 348 -122 348 -128 346 -135 c 0
 341 -158 328 -178 308 -194 c 0
 288 -210 266 -218 243 -218 c 0
 220 -218 202 -210 190 -194 c 0
 181 -183 177 -169 177 -155 c 0
 177 -148 178 -142 179 -135 c 0
 184 -112 197 -92 217 -76 c 0
 237 -60 258 -52 281 -52 c 0
275 -81 m 0
 259 -81 245 -86 233 -97 c 0
 220 -107 212 -120 209 -135 c 0
 208 -139 207 -143 207 -147 c 0
 207 -157 210 -165 216 -172 c 1
 223 -183 235 -188 250 -188 c 0
 265 -188 279 -183 292 -172 c 0
 304 -162 313 -149 316 -135 c 0
 317 -130 318 -126 318 -122 c 0
 318 -112 315 -104 309 -97 c 0
 301 -86 290 -81 275 -81 c 0
EndSplineSet
LCarets2: 1 0 
EndChar

StartChar: uni1E02
Encoding: 7682 7682 132
Width: 592
VWidth: 999
Flags: W
HStem: -1 34<20.4375 112.188 199.244 378.232> 338 35<252 420.837> 611 33<293.766 462.076> 620 27<131 205.21> 697 96<393.441 465.845>
VStem: 381 97<708.875 780.536> 498 88<132.549 284.15 453.102 583.787>
LayerCount: 2
Fore
SplineSet
586 215 m 0xee
 586 110 516 -1 293 -1 c 0
 222 -1 175 1 146 1 c 2
 17 -1 l 1
 21 19 l 2
 21 22 23 27 29 27 c 2
 59 27 l 2
 99 27 113 38 119 73 c 2
 208 575 l 1
 208 581 209 586 209 591 c 0
 209 612 197 620 164 620 c 2
 134 620 l 1
 128 621 127 623 127 627 c 2
 131 647 l 1xde
 132 647 228 644 259 644 c 0
 292 644 351 646 386 646 c 0
 545 646 582 583 582 523 c 0
 582 424 492 372 462 359 c 1
 548 339 586 287 586 215 c 0xee
281 33 m 0
 447 33 498 142 498 215 c 0
 498 289 444 338 340 338 c 2
 246 338 l 1
 199 72 l 2
 198 67 198 62 198 58 c 0
 198 37 213 33 281 33 c 0
332 373 m 2
 469 373 504 458 504 520 c 0
 504 597 437 611 387 611 c 0xee
 300 611 294 608 288 575 c 2
 252 373 l 1
 332 373 l 2
437 793 m 0
 459 793 478 777 478 752 c 0
 478 722 452 697 423 697 c 0
 398 697 381 715 381 738 c 0
 381 766 405 793 437 793 c 0
EndSplineSet
LCarets2: 1 0 
EndChar

StartChar: uni1E03
Encoding: 7683 7683 133
Width: 478
VWidth: 999
Flags: W
HStem: -12 28<177.206 282.829> 398 44<285.998 392.732> 523 96<367.441 439.845> 641 30<152.467 205.875> 676 20G<257.5 305>
VStem: 355 97<534.847 606.152> 424 80<192.312 364.703>
DStem2: 66.821 -12 141.368 -12 0.21644 0.976296<66.8987 411.295 423.557 642.234>
LayerCount: 2
Fore
SplineSet
155 671 m 1xfa
 171 671 232 676 283 696 c 1
 305 696 l 1
 233 385 l 1
 273 419 322 442 373 442 c 0
 458 442 504 369 504 296 c 0
 504 244 477 95 325 14 c 0
 295 -1 261 -12 222 -12 c 0
 180 -12 147 1 124 26 c 1
 112 16 97 -1 84 -12 c 1
 64 -7 l 1
 72 16 76 31 85 70 c 2
 203 577 l 2
 206 592 208 605 208 615 c 0
 208 635 201 644 188 644 c 0
 184 644 159 641 154 641 c 0
 152 641 151 643 151 645 c 0
 151 646 153 662 155 671 c 1xfa
424 286 m 0
 424 345 396 398 342 398 c 0
 319 398 280 395 226 354 c 1
 156 54 l 1
 170 29 193 16 224 16 c 0
 355 16 424 194 424 286 c 0
411 619 m 0
 434 619 452 603 452 578 c 0
 452 548 426 523 397 523 c 0
 372 523 355 541 355 563 c 0xfc
 355 591 379 619 411 619 c 0
EndSplineSet
LCarets2: 1 0 
EndChar

StartChar: uni1E04
Encoding: 7684 7684 134
Width: 592
VWidth: 999
Flags: W
HStem: -163 96<234.788 302.962> -1 34<20.4375 112.188 199.244 378.232> 338 35<252 420.837> 611 33<293.766 462.076> 620 27<131 205.21>
VStem: 219 99<-147.571 -82.5614> 498 88<132.549 284.15 453.102 583.787>
LayerCount: 2
Fore
SplineSet
586 215 m 0xf6
 586 110 516 -1 293 -1 c 0
 222 -1 175 1 146 1 c 2
 17 -1 l 1
 21 19 l 2
 21 22 23 27 29 27 c 2
 59 27 l 2
 99 27 113 38 119 73 c 2
 208 575 l 1
 208 581 209 586 209 591 c 0
 209 612 197 620 164 620 c 2
 134 620 l 1
 128 621 127 623 127 627 c 2
 131 647 l 1xee
 132 647 228 644 259 644 c 0
 292 644 351 646 386 646 c 0
 545 646 582 583 582 523 c 0
 582 424 492 372 462 359 c 1
 548 339 586 287 586 215 c 0xf6
281 33 m 0
 447 33 498 142 498 215 c 0
 498 289 444 338 340 338 c 2
 246 338 l 1
 199 72 l 2
 198 67 198 62 198 58 c 0
 198 37 213 33 281 33 c 0
332 373 m 2
 469 373 504 458 504 520 c 0
 504 597 437 611 387 611 c 0xf6
 300 611 294 608 288 575 c 2
 252 373 l 1
 332 373 l 2
279 -67 m 0
 302 -67 318 -83 318 -105 c 0
 318 -136 287 -163 258 -163 c 0
 235 -163 219 -147 219 -126 c 0
 219 -99 246 -67 279 -67 c 0
EndSplineSet
LCarets2: 1 0 
EndChar

StartChar: uni1E05
Encoding: 7685 7685 135
Width: 478
VWidth: 999
Flags: W
HStem: -163 96<185.635 253.879> -12 28<177.206 282.829> 398 44<285.998 392.732> 641 30<152.467 205.875> 676 20G<257.5 305>
VStem: 170 99<-147.571 -82.5614> 424 80<192.312 364.703>
DStem2: 33.3451 -163 107.892 -163 0.21644 0.976296<221.565 565.962 578.223 796.9>
LayerCount: 2
Fore
SplineSet
155 671 m 1
 171 671 232 676 283 696 c 1
 305 696 l 1
 233 385 l 1
 273 419 322 442 373 442 c 0
 458 442 504 369 504 296 c 0
 504 244 477 95 325 14 c 0
 295 -1 261 -12 222 -12 c 0
 180 -12 147 1 124 26 c 1
 112 16 97 -1 84 -12 c 1
 64 -7 l 1
 72 16 76 31 85 70 c 2
 203 577 l 2
 206 592 208 605 208 615 c 0
 208 635 201 644 188 644 c 0
 184 644 159 641 154 641 c 0
 152 641 151 643 151 645 c 0
 151 646 153 662 155 671 c 1
424 286 m 0
 424 345 396 398 342 398 c 0
 319 398 280 395 226 354 c 1
 156 54 l 1
 170 29 193 16 224 16 c 0
 355 16 424 194 424 286 c 0
230 -67 m 0
 253 -67 269 -83 269 -105 c 0
 269 -136 238 -163 208 -163 c 0
 186 -163 170 -147 170 -126 c 0
 170 -99 197 -67 230 -67 c 0
EndSplineSet
LCarets2: 1 0 
EndChar

StartChar: uni1E06
Encoding: 7686 7686 136
Width: 592
VWidth: 999
Flags: W
HStem: -109 39<134 434.651> -1 34<20.4375 112.188 199.244 378.232> 338 35<252 420.837> 611 33<293.766 462.076> 620 27<131 205.21>
VStem: 498 88<132.549 284.15 453.102 583.787>
LayerCount: 2
Fore
SplineSet
586 215 m 0xf4
 586 110 516 -1 293 -1 c 0
 222 -1 175 1 146 1 c 2
 17 -1 l 1
 21 19 l 2
 21 22 23 27 29 27 c 2
 59 27 l 2
 99 27 113 38 119 73 c 2
 208 575 l 1
 208 581 209 586 209 591 c 0
 209 612 197 620 164 620 c 2
 134 620 l 1
 128 621 127 623 127 627 c 2
 131 647 l 1xec
 132 647 228 644 259 644 c 0
 292 644 351 646 386 646 c 0
 545 646 582 583 582 523 c 0
 582 424 492 372 462 359 c 1
 548 339 586 287 586 215 c 0xf4
281 33 m 0
 447 33 498 142 498 215 c 0
 498 289 444 338 340 338 c 2
 246 338 l 1
 199 72 l 2
 198 67 198 62 198 58 c 0
 198 37 213 33 281 33 c 0
332 373 m 2
 469 373 504 458 504 520 c 0
 504 597 437 611 387 611 c 0xf4
 300 611 294 608 288 575 c 2
 252 373 l 1
 332 373 l 2
424 -109 m 1
 124 -109 l 1
 122 -105 121 -102 121 -98 c 0
 121 -83 134 -71 134 -70 c 1
 433 -70 l 1
 435 -76 435 -81 435 -85 c 0
 435 -95 431 -101 424 -109 c 1
EndSplineSet
LCarets2: 1 0 
EndChar

StartChar: uni1E07
Encoding: 7687 7687 137
Width: 498
VWidth: 999
Flags: W
HStem: -110 39<78 378.585> -12 28<196.808 302.278> 398 44<304.998 412.219> 641 30<171.874 227.006> 676 20G<276.5 324>
VStem: 444 79<192.312 364.703>
DStem2: 64.095 -110 139.642 -110 0.21644 0.976296<167.292 511.675 523.937 742.83>
LayerCount: 2
Fore
SplineSet
174 671 m 1
 190 671 251 676 302 696 c 1
 324 696 l 1
 252 385 l 1
 292 419 341 442 392 442 c 0
 478 442 523 369 523 296 c 0
 523 244 497 95 344 14 c 0
 315 -1 280 -12 242 -12 c 0
 199 -12 167 1 144 26 c 1
 132 16 116 -1 104 -12 c 1
 84 -7 l 1
 92 16 95 31 104 70 c 2
 222 577 l 2
 226 592 228 605 228 615 c 0
 228 635 221 644 208 644 c 0
 204 644 179 641 174 641 c 0
 172 641 170 643 170 645 c 0
 170 646 173 662 174 671 c 1
444 286 m 0
 444 345 416 398 361 398 c 0
 338 398 299 395 245 354 c 1
 176 54 l 1
 190 29 212 16 243 16 c 0
 375 16 444 194 444 286 c 0
368 -110 m 1
 67 -110 l 1
 65 -106 64 -102 64 -99 c 0
 64 -84 78 -72 78 -71 c 1
 377 -71 l 1
 378 -77 379 -82 379 -85 c 0
 379 -96 375 -101 368 -110 c 1
EndSplineSet
LCarets2: 1 0 
EndChar

StartChar: uni1E08
Encoding: 7688 7688 138
Width: 685
VWidth: 999
Flags: W
HStem: -186 26<261.336 364.69> -84 31<330.191 381.987> -16 42<377 485.905> 623 34<388.727 562.183> 697 21G<412 420.5>
VStem: 88 90<159.938 369.051> 386 55<-146.997 -86.1594> 656 31<456 528.564> 664 31<616.015 652>
LayerCount: 2
Fore
SplineSet
416 697 m 0xfe
 408 697 404 700 404 708 c 0
 404 717 410 724 424 733 c 2
 565 817 l 1
 630 771 l 1
 461 709 l 2
 440 702 425 697 416 697 c 0xfe
351 -84 m 0
 332 -84 321 -85 304 -91 c 1
 299 -84 l 1
 343 -15 l 1
 173 -1 88 123 88 257 c 0
 88 275 90 294 93 313 c 0
 130 517 303 657 470 657 c 0
 594 657 628 616 648 616 c 0
 657 616 661 621 662 626 c 0
 663 630 665 646 664 652 c 1
 695 656 l 1xfe80
 687 456 l 1
 656 453 l 1
 656 461 l 2xff
 656 497 647 530 617 562 c 0
 582 601 547 623 477 623 c 0
 381 623 225 562 183 327 c 0
 179 309 178 290 178 271 c 0
 178 148 246 26 381 26 c 0
 474 26 536 53 617 136 c 1
 637 121 l 1
 562 34 484 -15 377 -16 c 1
 354 -56 l 1
 362 -54 371 -53 380 -53 c 0
 416 -53 441 -72 441 -104 c 0
 441 -107 440 -111 440 -115 c 0
 432 -157 382 -186 321 -186 c 0
 289 -186 272 -180 249 -168 c 1
 262 -150 l 1
 289 -159 295 -160 318 -160 c 0
 349 -160 381 -146 386 -119 c 0
 386 -117 386 -115 386 -113 c 0
 386 -95 371 -84 351 -84 c 0
EndSplineSet
LCarets2: 1 0 
EndChar

StartChar: uni1E09
Encoding: 7689 7689 139
Width: 439
VWidth: 999
Flags: W
HStem: -188 25<129.335 232.97> -86 31<203.058 270.093> 411 31<282.727 378.123> 638 20G<418 438>
VStem: 88 81<74.4824 259.134> 257 55<-148.671 -87.8769> 390 69<318.53 401.799>
LayerCount: 2
Fore
SplineSet
223 -86 m 0
 203 -86 194 -88 176 -93 c 1
 171 -87 l 1
 223 -12 l 1
 141 -4 88 90 88 149 c 0
 88 315 218 442 333 442 c 0
 429 442 459 383 459 344 c 0
 459 310 427 299 417 299 c 0
 390 299 380 315 380 331 c 0
 380 337 382 348 385 352 c 0
 388 356 390 365 390 371 c 0
 390 404 350 411 336 411 c 0
 260 411 169 320 169 171 c 0
 169 52 230 32 265 32 c 0
 293 32 350 42 394 95 c 1
 411 80 l 1
 394 54 345 -2 258 -11 c 1
 228 -58 l 1
 236 -56 245 -55 254 -55 c 0
 286 -55 312 -70 312 -102 c 0
 312 -153 254 -188 188 -188 c 0
 157 -188 140 -182 117 -171 c 1
 130 -153 l 1
 157 -162 164 -163 187 -163 c 0
 221 -163 257 -145 257 -113 c 0
 257 -97 243 -86 223 -86 c 0
412 657 m 1
 414 658 417 658 419 658 c 0
 457 658 474 629 478 626 c 1
 479 615 l 1
 349 524 l 2
 333 514 325 509 319 509 c 0
 310 509 305 517 305 522 c 0
 305 527 307 536 314 545 c 2
 412 657 l 1
EndSplineSet
LCarets2: 1 0 
EndChar

StartChar: uni1E0A
Encoding: 7690 7690 140
Width: 697
VWidth: 999
Flags: W
HStem: -1 34<19.5781 110.698 200.314 416.77> 613 33<131 208.676 299.803 477.449> 697 95<425.035 496.92>
VStem: 413 96<708.847 780.375> 620 94<241.529 474.612>
DStem2: 119 73 199 72 0.174569 0.984645<2.11436 525.482>
LayerCount: 2
Fore
SplineSet
199 72 m 2
 198 68 198 64 198 61 c 0
 198 38 217 33 302 33 c 0
 556 33 620 210 620 363 c 0
 620 492 558 613 379 613 c 0
 330 613 294 609 288 574 c 2
 199 72 l 2
20 19 m 2
 21 24 24 28 29 28 c 2
 59 28 l 2
 97 28 113 41 119 73 c 2
 207 573 l 2
 208 581 209 585 209 591 c 0
 209 612 197 618 164 618 c 2
 135 618 l 2
 131 618 128 620 128 625 c 1
 128 625 130 639 131 646 c 1
 258 645 l 2
 315 645 375 646 423 646 c 0
 595 646 714 524 714 366 c 0
 714 172 572 -1 326 -1 c 0
 224 -1 182 1 145 1 c 2
 17 -1 l 1
 20 19 l 2
468 792 m 0
 491 792 509 777 509 752 c 0
 509 722 483 697 455 697 c 0
 429 697 413 715 413 737 c 0
 413 765 436 792 468 792 c 0
EndSplineSet
LCarets2: 1 0 
EndChar

StartChar: uni1E0B
Encoding: 7691 7691 141
Width: 522
VWidth: 999
Flags: W
HStem: -12 42<186.627 267.697> 411 31<286.042 385.87> 523 96<246.441 318.536> 644 27<423 474.25> 676 20G<526 573>
VStem: 80 80<55.1804 247.744> 234 97<535.681 606.152> 354 75<12.6797 135.315>
DStem2: 338.397 -12 410.958 -12 0.21644 0.976296<87.44 122.914 412.514 641.677>
LayerCount: 2
Fore
SplineSet
340 442 m 0
 378 442 419 420 431 390 c 1
 471 577 l 2
 475 592 477 605 477 615 c 0
 477 635 470 644 457 644 c 2
 424 641 l 1
 421 640 419 642 419 646 c 2
 423 671 l 1
 439 671 501 676 551 696 c 1
 573 696 l 1
 440 119 l 2
 433 87 429 67 429 57 c 0
 429 46 439 43 441 43 c 0
 456 43 472 62 502 99 c 1
 525 83 l 1
 471 10 433 -12 396 -12 c 0
 362 -12 354 14 354 33 c 0
 354 52 357 77 365 108 c 1
 296 8 235 -12 204 -12 c 0
 87 -12 80 95 80 141 c 0
 80 313 241 442 340 442 c 0
415 333 m 0
 415 375 386 411 343 411 c 0
 239 411 160 272 160 152 c 0
 160 96 166 30 239 30 c 0
 271 30 348 97 378 177 c 0
 399 233 415 318 415 333 c 0
290 619 m 0
 312 619 331 603 331 578 c 0
 331 548 304 523 276 523 c 0
 251 523 234 541 234 563 c 0
 234 591 258 619 290 619 c 0
EndSplineSet
LCarets2: 1 0 
EndChar

StartChar: uni1E0C
Encoding: 7692 7692 142
Width: 697
VWidth: 999
Flags: W
HStem: -163 96<300.635 368.879> -1 34<19.5781 110.698 200.314 416.77> 613 33<131 208.676 299.803 477.449>
VStem: 285 99<-147.571 -82.5614> 620 94<241.529 474.612>
DStem2: 119 73 199 72 0.174569 0.984645<2.11436 525.482>
LayerCount: 2
Fore
SplineSet
199 72 m 2
 198 68 198 64 198 61 c 0
 198 38 217 33 302 33 c 0
 556 33 620 210 620 363 c 0
 620 492 558 613 379 613 c 0
 330 613 294 609 288 574 c 2
 199 72 l 2
20 19 m 2
 21 24 24 28 29 28 c 2
 59 28 l 2
 97 28 113 41 119 73 c 2
 207 573 l 2
 208 581 209 585 209 591 c 0
 209 612 197 618 164 618 c 2
 135 618 l 2
 131 618 128 620 128 625 c 1
 128 625 130 639 131 646 c 1
 258 645 l 2
 315 645 375 646 423 646 c 0
 595 646 714 524 714 366 c 0
 714 172 572 -1 326 -1 c 0
 224 -1 182 1 145 1 c 2
 17 -1 l 1
 20 19 l 2
345 -67 m 0
 368 -67 384 -83 384 -105 c 0
 384 -136 353 -163 323 -163 c 0
 301 -163 285 -147 285 -126 c 0
 285 -99 312 -67 345 -67 c 0
EndSplineSet
LCarets2: 1 0 
EndChar

StartChar: uni1E0D
Encoding: 7693 7693 143
Width: 522
VWidth: 999
Flags: W
HStem: -163 96<204.788 272.962> -12 42<186.627 267.697> 411 31<286.042 385.87> 644 27<423 474.25> 676 20G<526 573>
VStem: 80 80<55.1804 247.744> 189 99<-147.571 -82.5614> 354 75<12.6797 135.315>
DStem2: 304.921 -163 377.482 -163 0.21644 0.976296<242.106 277.58 567.18 796.343>
LayerCount: 2
Fore
SplineSet
340 442 m 0
 378 442 419 420 431 390 c 1
 471 577 l 2
 475 592 477 605 477 615 c 0
 477 635 470 644 457 644 c 2
 424 641 l 1
 421 640 419 642 419 646 c 2
 423 671 l 1
 439 671 501 676 551 696 c 1
 573 696 l 1
 440 119 l 2
 433 87 429 67 429 57 c 0
 429 46 439 43 441 43 c 0
 456 43 472 62 502 99 c 1
 525 83 l 1
 471 10 433 -12 396 -12 c 0
 362 -12 354 14 354 33 c 0
 354 52 357 77 365 108 c 1
 296 8 235 -12 204 -12 c 0
 87 -12 80 95 80 141 c 0
 80 313 241 442 340 442 c 0
415 333 m 0
 415 375 386 411 343 411 c 0
 239 411 160 272 160 152 c 0
 160 96 166 30 239 30 c 0
 271 30 348 97 378 177 c 0
 399 233 415 318 415 333 c 0
249 -67 m 0
 272 -67 288 -83 288 -105 c 0
 288 -136 257 -163 228 -163 c 0
 205 -163 189 -147 189 -126 c 0
 189 -99 216 -67 249 -67 c 0
EndSplineSet
LCarets2: 1 0 
EndChar

StartChar: uni1E0E
Encoding: 7694 7694 144
Width: 697
VWidth: 999
Flags: W
HStem: -109 39<174 474.651> -1 34<19.5781 110.698 200.314 416.77> 613 33<131 208.676 299.803 477.449>
VStem: 620 94<241.529 474.612>
DStem2: 119 73 199 72 0.174569 0.984645<2.11436 525.482>
LayerCount: 2
Fore
SplineSet
199 72 m 2
 198 68 198 64 198 61 c 0
 198 38 217 33 302 33 c 0
 556 33 620 210 620 363 c 0
 620 492 558 613 379 613 c 0
 330 613 294 609 288 574 c 2
 199 72 l 2
20 19 m 2
 21 24 24 28 29 28 c 2
 59 28 l 2
 97 28 113 41 119 73 c 2
 207 573 l 2
 208 581 209 585 209 591 c 0
 209 612 197 618 164 618 c 2
 135 618 l 2
 131 618 128 620 128 625 c 1
 128 625 130 639 131 646 c 1
 258 645 l 2
 315 645 375 646 423 646 c 0
 595 646 714 524 714 366 c 0
 714 172 572 -1 326 -1 c 0
 224 -1 182 1 145 1 c 2
 17 -1 l 1
 20 19 l 2
464 -109 m 1
 164 -109 l 1
 162 -105 161 -102 161 -98 c 0
 161 -83 174 -71 174 -70 c 1
 473 -70 l 1
 475 -76 475 -81 475 -85 c 0
 475 -95 471 -101 464 -109 c 1
EndSplineSet
LCarets2: 1 0 
EndChar

StartChar: uni1E0F
Encoding: 7695 7695 145
Width: 522
VWidth: 999
Flags: W
HStem: -111 39<109 409.581> -12 42<186.627 267.697> 411 31<286.042 385.87> 644 27<423 474.25> 676 20G<526 573>
VStem: 80 80<55.1804 247.744> 354 75<12.6797 135.315>
DStem2: 316.449 -111 389.01 -111 0.21644 0.976296<188.844 224.317 513.918 743.08>
LayerCount: 2
Fore
SplineSet
340 442 m 0
 378 442 419 420 431 390 c 1
 471 577 l 2
 475 592 477 605 477 615 c 0
 477 635 470 644 457 644 c 2
 424 641 l 1
 421 640 419 642 419 646 c 2
 423 671 l 1
 439 671 501 676 551 696 c 1
 573 696 l 1
 440 119 l 2
 433 87 429 67 429 57 c 0
 429 46 439 43 441 43 c 0
 456 43 472 62 502 99 c 1
 525 83 l 1
 471 10 433 -12 396 -12 c 0
 362 -12 354 14 354 33 c 0
 354 52 357 77 365 108 c 1
 296 8 235 -12 204 -12 c 0
 87 -12 80 95 80 141 c 0
 80 313 241 442 340 442 c 0
415 333 m 0
 415 375 386 411 343 411 c 0
 239 411 160 272 160 152 c 0
 160 96 166 30 239 30 c 0
 271 30 348 97 378 177 c 0
 399 233 415 318 415 333 c 0
399 -111 m 1
 99 -111 l 1
 97 -107 96 -103 96 -100 c 0
 96 -85 109 -73 109 -72 c 1
 408 -72 l 1
 410 -78 410 -83 410 -86 c 0
 410 -97 406 -102 399 -111 c 1
EndSplineSet
LCarets2: 1 0 
EndChar

StartChar: uni1E10
Encoding: 7696 7696 146
Width: 697
VWidth: 999
Flags: W
HStem: -183 25<16.3327 119.677> -82 32<89.1826 157.391> -1 34<19.5781 110.698 200.314 416.77> 613 33<131 208.676 299.803 477.449>
VStem: 144 55<-143.893 -83.5838> 620 94<241.529 474.612>
DStem2: 115 1 114 -53 0.553549 0.832817<-45.5257 0> 119 73 199 72 0.174569 0.984645<2.11436 525.482>
LayerCount: 2
Fore
SplineSet
199 72 m 2
 198 68 198 64 198 61 c 0
 198 38 217 33 302 33 c 0
 556 33 620 210 620 363 c 0
 620 492 558 613 379 613 c 0
 330 613 294 609 288 574 c 2
 199 72 l 2
109 -82 m 0
 90 -82 81 -84 63 -88 c 1
 58 -82 l 1
 115 1 l 1
 17 -1 l 1
 20 19 l 2
 21 24 24 28 29 28 c 2
 59 28 l 2
 97 28 113 41 119 73 c 2
 207 573 l 2
 208 581 209 585 209 591 c 0
 209 612 197 618 164 618 c 2
 135 618 l 2
 131 618 128 620 128 625 c 1
 128 625 130 639 131 646 c 1
 258 645 l 2
 315 645 375 646 423 646 c 0
 595 646 714 524 714 366 c 0
 714 172 572 -1 326 -1 c 0
 227 -1 185 1 149 1 c 1
 114 -53 l 1
 123 -51 131 -50 141 -50 c 0
 173 -50 199 -66 199 -97 c 0
 199 -149 141 -183 74 -183 c 0
 44 -183 27 -177 4 -166 c 1
 17 -148 l 1
 44 -157 51 -158 73 -158 c 0
 108 -158 144 -140 144 -108 c 0
 144 -92 130 -82 109 -82 c 0
EndSplineSet
LCarets2: 1 0 
EndChar

StartChar: uni1E11
Encoding: 7697 7697 147
Width: 528
VWidth: 999
Flags: W
HStem: -188 25<92.3327 195.677> -86 31<166.058 233.093> 411 31<292.002 391.701> 644 27<429 478.036> 676 20G<532 579>
VStem: 85 81<53.9805 247.744> 220 55<-148.671 -87.8769> 359 76<12.6797 135.315>
DStem2: 187 -11 190 -58 0.555899 0.83125<-37.4011 0> 305.378 -188 377.94 -188 0.21644 0.976296<267.713 303.187 592.787 821.734>
LayerCount: 2
Fore
SplineSet
420 333 m 0
 420 375 392 411 349 411 c 0
 245 411 166 272 166 152 c 0
 166 96 171 30 245 30 c 0
 277 30 354 97 384 177 c 0
 405 233 420 318 420 333 c 0
186 -86 m 0
 166 -86 157 -88 139 -93 c 1
 134 -87 l 1
 187 -11 l 1
 92 3 85 98 85 141 c 0
 85 313 247 442 346 442 c 0
 384 442 425 420 437 390 c 1
 477 577 l 2
 480 592 482 605 482 615 c 0
 482 635 476 644 463 644 c 2
 430 641 l 1
 427 640 425 642 425 646 c 2
 429 671 l 1
 445 671 507 676 557 696 c 1
 579 696 l 1
 446 119 l 2
 438 87 435 67 435 57 c 0
 435 46 445 43 447 43 c 0
 461 43 478 62 508 99 c 1
 531 83 l 1
 477 10 439 -12 402 -12 c 0
 368 -12 359 14 359 33 c 0
 359 52 363 77 371 108 c 1
 309 18 253 -7 220 -12 c 1
 190 -58 l 1
 199 -56 208 -55 217 -55 c 0
 249 -55 275 -70 275 -102 c 0
 275 -153 217 -188 150 -188 c 0
 120 -188 103 -182 80 -171 c 1
 93 -153 l 1
 120 -162 127 -163 149 -163 c 0
 184 -163 220 -145 220 -113 c 0
 220 -97 206 -86 186 -86 c 0
EndSplineSet
LCarets2: 1 0 
EndChar

StartChar: uni1E12
Encoding: 7698 7698 148
Width: 697
VWidth: 999
Flags: W
HStem: -1 34<19.5781 110.698 200.314 416.77> 613 33<131 208.676 299.803 477.449>
VStem: 620 94<241.529 474.612>
DStem2: 119 73 199 72 0.174569 0.984645<2.11436 525.482>
LayerCount: 2
Fore
SplineSet
199 72 m 2
 198 68 198 64 198 61 c 0
 198 38 217 33 302 33 c 0
 556 33 620 210 620 363 c 0
 620 492 558 613 379 613 c 0
 330 613 294 609 288 574 c 2
 199 72 l 2
20 19 m 2
 21 24 24 28 29 28 c 2
 59 28 l 2
 97 28 113 41 119 73 c 2
 207 573 l 2
 208 581 209 585 209 591 c 0
 209 612 197 618 164 618 c 2
 135 618 l 2
 131 618 128 620 128 625 c 1
 128 625 130 639 131 646 c 1
 258 645 l 2
 315 645 375 646 423 646 c 0
 595 646 714 524 714 366 c 0
 714 172 572 -1 326 -1 c 0
 224 -1 182 1 145 1 c 2
 17 -1 l 1
 20 19 l 2
350 -86 m 1
 372 -123 399 -153 429 -181 c 1
 409 -201 l 1
 374 -184 344 -165 317 -140 c 1
 274 -167 238 -185 196 -201 c 1
 186 -181 l 1
 230 -152 269 -120 307 -86 c 1
 350 -86 l 1
EndSplineSet
LCarets2: 1 0 
EndChar

StartChar: uni1E13
Encoding: 7699 7699 149
Width: 537
VWidth: 999
Flags: W
HStem: -12 42<202.401 282.285> 411 31<301.356 402.233> 644 27<439 489.875> 676 20G<541.5 589>
VStem: 95 81<53.621 247.744> 369 75<12.6797 135.315>
DStem2: 311.496 -201 384.058 -201 0.21644 0.976296<281.029 316.502 606.103 835.266>
LayerCount: 2
Fore
SplineSet
355 442 m 0
 394 442 434 420 446 390 c 1
 487 577 l 2
 490 592 492 605 492 615 c 0
 492 635 485 644 472 644 c 2
 439 641 l 1
 436 640 434 642 435 646 c 2
 439 671 l 1
 455 671 516 676 567 696 c 1
 589 696 l 1
 455 119 l 2
 448 87 444 67 444 57 c 0
 444 46 454 43 457 43 c 0
 471 43 488 62 518 99 c 1
 540 83 l 1
 487 10 449 -12 411 -12 c 0
 377 -12 369 14 369 33 c 0
 369 52 373 77 380 108 c 1
 311 8 251 -12 220 -12 c 0
 103 -12 95 95 95 141 c 0
 95 313 256 442 355 442 c 0
430 333 m 0
 430 375 402 411 359 411 c 0
 254 411 176 272 176 152 c 0
 176 96 181 30 255 30 c 0
 287 30 363 97 394 177 c 0
 415 233 430 318 430 333 c 0
262 -58 m 1
 280 -104 308 -147 333 -188 c 1
 310 -201 l 1
 277 -172 249 -147 224 -111 c 1
 178 -149 139 -174 96 -201 c 1
 80 -188 l 1
 124 -148 172 -104 212 -58 c 1
 262 -58 l 1
EndSplineSet
LCarets2: 1 0 
EndChar

StartChar: uni1E14
Encoding: 7700 7700 150
Width: 582
VWidth: 999
Flags: W
HStem: 0 39<194.217 477.406> 1 26<14.875 98.4677> 327 34<246 416.832> 423 20G<463 488.5> 606 40<287.062 526.105> 619 27<126 199.148> 699 40<283.707 560.774>
VStem: 423 34<248 320.676> 457 33<435 443> 556 27<506 560.717>
DStem2: 114 72 195 72 0.174569 0.984645<4.2575 273.08 307.605 522.619>
LayerCount: 2
Fore
SplineSet
446 802 m 0x33c0
 446 797 443 785 432 785 c 0
 424 785 413 790 401 796 c 2
 293 851 l 1
 359 891 l 1
 438 817 l 2
 443 811 446 807 446 802 c 0x33c0
594 646 m 1x37c0
 583 506 l 1
 556 503 l 1
 556 546 533 606 481 606 c 2
 325 606 l 2
 301 606 288 598 283 574 c 2
 246 361 l 1
 386 361 l 2
 421 361 433 378 444 405 c 2
 457 435 l 2
 458 439 461 443 465 443 c 2
 487 443 l 2
 490 443 490 441 490 439 c 1
 482 407 471 377 465 344 c 0
 459 310 458 280 457 248 c 1
 453 245 l 1
 430 245 l 2
 425 245 423 249 423 252 c 2
 423 283 l 2
 422 312 414 327 380 327 c 2
 240 327 l 1
 195 72 l 2
 194 68 194 65 194 62 c 0
 194 44 206 39 225 39 c 2
 417 39 l 2
 482 39 520 92 548 165 c 1
 574 160 l 1
 521 0 l 1
 219 0 l 1xbbc0
 142 1 l 1
 12 -1 l 1
 16 20 l 2
 16 23 19 27 25 27 c 2
 55 27 l 2
 95 27 109 44 114 72 c 2
 203 574 l 2
 204 579 204 583 204 587 c 0
 204 609 191 619 159 619 c 2
 129 619 l 2
 122 619 122 623 123 625 c 1
 126 646 l 1x77c0
 256 645 l 1
 333 646 l 1x3bc0
 594 646 l 1x37c0
564 729 m 0
 564 719 549 699 534 699 c 2
 289 699 l 2
 283 699 280 702 280 707 c 0
 280 719 296 739 308 739 c 2
 553 739 l 2
 561 739 564 735 564 729 c 0
EndSplineSet
LCarets2: 1 0 
EndChar

StartChar: uni1E15
Encoding: 7701 7701 151
Width: 431
VWidth: 999
Flags: W
HStem: -12 48<201.262 316.236> 411 31<285.04 388.453> 533 44<217.762 495.804>
VStem: 75 83<81.9025 213.539> 398 70<311.048 403.909>
LayerCount: 2
Fore
SplineSet
325 754 m 1
 381 642 l 2
 385 633 386 627 386 620 c 0
 386 616 380 610 374 610 c 0
 369 610 364 615 351 628 c 2
 259 726 l 1
 261 736 l 1
 267 741 286 757 313 757 c 0
 317 757 322 756 325 754 c 1
468 533 m 2
 224 533 l 2
 217 533 214 538 214 543 c 0
 214 545 214 546 215 548 c 1
 218 560 232 577 244 577 c 2
 488 577 l 2
 496 577 499 572 499 566 c 0
 499 565 499 564 499 562 c 1
 496 551 481 533 468 533 c 2
398 371 m 0
 398 400 373 411 338 411 c 0
 289 411 198 363 164 211 c 1
 240 218 398 260 398 371 c 0
159 185 m 1
 158 177 158 170 158 165 c 0
 158 74 212 36 257 36 c 0
 305 36 349 64 402 122 c 1
 424 106 l 1
 368 29 302 -12 221 -12 c 0
 119 -12 75 57 75 142 c 0
 75 269 189 442 360 442 c 0
 441 442 468 405 468 370 c 0
 468 332 433 219 159 185 c 1
EndSplineSet
EndChar

StartChar: uni1E16
Encoding: 7702 7702 152
Width: 582
VWidth: 999
Flags: W
HStem: 0 39<194.217 477.406> 1 26<14.875 98.4677> 327 34<246 416.832> 423 20G<463 488.5> 606 40<287.062 526.105> 619 27<126 199.148> 699 40<283.707 560.774>
VStem: 423 34<248 320.676> 457 33<435 443> 556 27<506 560.717>
DStem2: 114 72 195 72 0.174569 0.984645<4.2575 273.08 307.605 522.619>
LayerCount: 2
Fore
SplineSet
380 785 m 0x33c0
 374 785 371 788 371 795 c 0
 371 803 376 809 387 817 c 2
 495 891 l 1
 546 851 l 1
 416 796 l 2
 399 789 387 785 380 785 c 0x33c0
594 646 m 1x37c0
 583 506 l 1
 556 503 l 1
 556 546 533 606 481 606 c 2
 325 606 l 2
 301 606 288 598 283 574 c 2
 246 361 l 1
 386 361 l 2
 421 361 433 378 444 405 c 2
 457 435 l 2
 458 439 461 443 465 443 c 2
 487 443 l 2
 490 443 490 441 490 439 c 1
 482 407 471 377 465 344 c 0
 459 310 458 280 457 248 c 1
 453 245 l 1
 430 245 l 2
 425 245 423 249 423 252 c 2
 423 283 l 2
 422 312 414 327 380 327 c 2
 240 327 l 1
 195 72 l 2
 194 68 194 65 194 62 c 0
 194 44 206 39 225 39 c 2
 417 39 l 2
 482 39 520 92 548 165 c 1
 574 160 l 1
 521 0 l 1
 219 0 l 1xbbc0
 142 1 l 1
 12 -1 l 1
 16 20 l 2
 16 23 19 27 25 27 c 2
 55 27 l 2
 95 27 109 44 114 72 c 2
 203 574 l 2
 204 579 204 583 204 587 c 0
 204 609 191 619 159 619 c 2
 129 619 l 2
 122 619 122 623 123 625 c 1
 126 646 l 1x77c0
 256 645 l 1
 333 646 l 1x3bc0
 594 646 l 1x37c0
564 729 m 0
 564 719 549 699 534 699 c 2
 289 699 l 2
 283 699 280 702 280 707 c 0
 280 719 296 739 308 739 c 2
 553 739 l 2
 561 739 564 735 564 729 c 0
EndSplineSet
LCarets2: 1 0 
EndChar

StartChar: uni1E17
Encoding: 7703 7703 153
Width: 431
VWidth: 999
Flags: W
HStem: -12 48<201.262 316.236> 411 31<285.04 388.453> 533 44<217.762 495.804>
VStem: 75 83<81.9025 213.539> 398 70<311.048 403.909>
LayerCount: 2
Fore
SplineSet
393 743 m 1
 395 743 397 743 399 743 c 0
 429 743 443 717 446 715 c 1
 446 705 l 1
 343 623 l 2
 330 613 324 609 319 609 c 0
 312 609 307 616 307 621 c 0
 307 625 309 634 315 641 c 2
 393 743 l 1
468 533 m 2
 224 533 l 2
 217 533 214 538 214 543 c 0
 214 545 214 546 215 548 c 1
 218 560 232 577 244 577 c 2
 488 577 l 2
 496 577 499 572 499 566 c 0
 499 565 499 564 499 562 c 1
 496 551 481 533 468 533 c 2
398 371 m 0
 398 400 373 411 338 411 c 0
 289 411 198 363 164 211 c 1
 240 218 398 260 398 371 c 0
159 185 m 1
 158 177 158 170 158 165 c 0
 158 74 212 36 257 36 c 0
 305 36 349 64 402 122 c 1
 424 106 l 1
 368 29 302 -12 221 -12 c 0
 119 -12 75 57 75 142 c 0
 75 269 189 442 360 442 c 0
 441 442 468 405 468 370 c 0
 468 332 433 219 159 185 c 1
EndSplineSet
EndChar

StartChar: uni1E18
Encoding: 7704 7704 154
Width: 572
VWidth: 999
Flags: W
HStem: 0 39<194.217 477.406> 1 26<14.875 98.4677> 327 34<246 416.832> 423 20G<463 488.5> 606 40<287.062 526.105> 619 27<126 199.148>
VStem: 423 34<248 320.676> 457 33<435 443> 556 27<506 560.717>
DStem2: 114 72 195 72 0.174569 0.984645<4.2575 273.08 307.605 522.619>
LayerCount: 2
Fore
SplineSet
338 -60 m 1x3380
 356 -106 383 -149 409 -189 c 1
 386 -203 l 1
 354 -174 326 -149 300 -113 c 1
 254 -151 216 -176 172 -203 c 1
 156 -189 l 1
 200 -150 249 -105 289 -60 c 1
 338 -60 l 1x3380
594 646 m 1x3780
 583 506 l 1
 556 503 l 1
 556 546 533 606 481 606 c 2
 325 606 l 2
 301 606 288 598 283 574 c 2
 246 361 l 1
 386 361 l 2
 421 361 433 378 444 405 c 2
 457 435 l 2
 458 439 461 443 465 443 c 2
 487 443 l 2
 490 443 490 441 490 439 c 1
 482 407 471 377 465 344 c 0
 459 310 458 280 457 248 c 1
 453 245 l 1
 430 245 l 2
 425 245 423 249 423 252 c 2
 423 283 l 2
 422 312 414 327 380 327 c 2
 240 327 l 1
 195 72 l 2
 194 68 194 65 194 62 c 0
 194 44 206 39 225 39 c 2
 417 39 l 2
 482 39 520 92 548 165 c 1
 574 160 l 1
 521 0 l 1
 219 0 l 1xbb80
 142 1 l 1
 12 -1 l 1
 16 20 l 2
 16 23 19 27 25 27 c 2
 55 27 l 2
 95 27 109 44 114 72 c 2
 203 574 l 2
 204 579 204 583 204 587 c 0
 204 609 191 619 159 619 c 2
 129 619 l 2
 122 619 122 623 123 625 c 1
 126 646 l 1x7780
 256 645 l 1
 333 646 l 1x3b80
 594 646 l 1x3780
EndSplineSet
LCarets2: 1 0 
EndChar

StartChar: uni1E19
Encoding: 7705 7705 155
Width: 455
VWidth: 999
Flags: W
HStem: -12 48<219.262 334.236> 411 31<303.207 406.806>
VStem: 93 83<81.9025 213.539> 417 69<311.048 403.909>
LayerCount: 2
Fore
SplineSet
258 -57 m 1
 276 -104 302 -146 329 -187 c 1
 305 -200 l 1
 273 -171 245 -146 220 -110 c 1
 174 -148 135 -173 92 -200 c 1
 75 -187 l 1
 120 -147 168 -103 208 -57 c 1
 258 -57 l 1
417 371 m 0
 417 400 391 411 356 411 c 0
 307 411 216 363 182 211 c 1
 258 218 417 260 417 371 c 0
177 185 m 1
 176 177 176 170 176 165 c 0
 176 74 230 36 275 36 c 0
 323 36 367 64 420 122 c 1
 442 106 l 1
 386 29 320 -12 239 -12 c 0
 137 -12 93 57 93 142 c 0
 93 269 208 442 378 442 c 0
 459 442 486 405 486 370 c 0
 486 332 451 219 177 185 c 1
EndSplineSet
LCarets2: 1 0 
EndChar

StartChar: uni1E1A
Encoding: 7706 7706 156
Width: 572
VWidth: 999
Flags: W
HStem: -162 44<286.392 370.221> -114 46<165.599 252.719> 0 39<194.217 477.406> 1 26<14.875 98.4677> 327 34<246 416.832> 423 20G<463 488.5> 606 40<287.062 526.105> 619 27<126 199.148>
VStem: 423 34<248 320.676> 457 33<435 443> 556 27<506 560.717>
DStem2: 114 72 195 72 0.174569 0.984645<4.2575 273.08 307.605 522.619>
LayerCount: 2
Fore
SplineSet
333 -118 m 0xcce0
 355 -118 371 -107 395 -65 c 1
 418 -72 l 1
 392 -132 356 -162 310 -162 c 0
 288 -162 270 -149 253 -136 c 0
 237 -125 220 -114 203 -114 c 0
 177 -114 160 -128 143 -162 c 1
 121 -157 l 1
 148 -98 177 -68 220 -68 c 0
 251 -68 270 -82 286 -96 c 0
 300 -107 314 -118 333 -118 c 0xcce0
594 646 m 1xcde0
 583 506 l 1
 556 503 l 1
 556 546 533 606 481 606 c 2
 325 606 l 2
 301 606 288 598 283 574 c 2
 246 361 l 1
 386 361 l 2
 421 361 433 378 444 405 c 2
 457 435 l 2
 458 439 461 443 465 443 c 2
 487 443 l 2
 490 443 490 441 490 439 c 1
 482 407 471 377 465 344 c 0
 459 310 458 280 457 248 c 1
 453 245 l 1
 430 245 l 2
 425 245 423 249 423 252 c 2
 423 283 l 2
 422 312 414 327 380 327 c 2
 240 327 l 1
 195 72 l 2
 194 68 194 65 194 62 c 0
 194 44 206 39 225 39 c 2
 417 39 l 2
 482 39 520 92 548 165 c 1
 574 160 l 1
 521 0 l 1
 219 0 l 1xeee0
 142 1 l 1
 12 -1 l 1
 16 20 l 2
 16 23 19 27 25 27 c 2
 55 27 l 2
 95 27 109 44 114 72 c 2
 203 574 l 2
 204 579 204 583 204 587 c 0
 204 609 191 619 159 619 c 2
 129 619 l 2
 122 619 122 623 123 625 c 1
 126 646 l 1xdde0
 256 645 l 1
 333 646 l 1xcee0
 594 646 l 1xcde0
EndSplineSet
LCarets2: 1 0 
EndChar

StartChar: uni1E1B
Encoding: 7707 7707 157
Width: 454
VWidth: 999
Flags: W
HStem: -149 44<241.023 324.308> -101 46<120.35 205.262> -12 48<218.262 333.236> 411 31<302.207 405.806>
VStem: 92 83<81.9025 213.539> 416 69<311.048 403.909>
LayerCount: 2
Fore
SplineSet
288 -105 m 0
 309 -105 326 -95 350 -53 c 1
 372 -59 l 1
 346 -119 311 -149 264 -149 c 0
 242 -149 225 -137 207 -124 c 0
 191 -112 175 -101 157 -101 c 0
 131 -101 115 -116 98 -149 c 1
 75 -144 l 1
 103 -85 132 -55 175 -55 c 0
 206 -55 224 -69 241 -83 c 0
 254 -95 269 -105 288 -105 c 0
416 371 m 0
 416 400 390 411 355 411 c 0
 306 411 215 363 181 211 c 1
 257 218 416 260 416 371 c 0
176 185 m 1
 175 177 175 170 175 165 c 0
 175 74 229 36 274 36 c 0
 322 36 366 64 419 122 c 1
 441 106 l 1
 385 29 319 -12 238 -12 c 0
 136 -12 92 57 92 142 c 0
 92 269 207 442 377 442 c 0
 458 442 485 405 485 370 c 0
 485 332 450 219 176 185 c 1
EndSplineSet
LCarets2: 1 0 
EndChar

StartChar: uni1E1C
Encoding: 7708 7708 158
Width: 582
VWidth: 999
Flags: W
HStem: -181 26<176.482 281.123> -79 31<250.375 317.506> 0 39<194.217 273 307 477.406> 1 26<14.875 98.4677> 327 34<246 416.832> 423 20G<463 488.5> 606 40<287.062 526.105> 619 27<126 199.148> 691 53<361.073 510.693>
VStem: 305 55<-141.239 -80.9865> 312 28<773.209 805> 423 34<248 320.676> 457 33<435 443> 556 27<506 560.717 784.627 805>
DStem2: 114 72 195 72 0.174569 0.984645<4.2575 273.08 307.605 522.619> 273 0 275 -51 0.559473 0.828849<-41.1523 0>
LayerCount: 2
Fore
SplineSet
428 691 m 0xccbc
 348 691 312 737 312 794 c 0
 312 797 312 801 312 805 c 1
 340 805 l 1
 340 801 342 744 438 744 c 0
 488 744 542 767 556 805 c 1
 583 805 l 1
 566 729 489 691 428 691 c 0xccbc
270 -79 m 0
 250 -79 241 -81 224 -86 c 1
 219 -80 l 1
 273 0 l 1
 219 0 l 1xeedc
 142 1 l 1
 12 -1 l 1
 16 20 l 2
 16 23 19 27 25 27 c 2
 55 27 l 2
 95 27 109 44 114 72 c 2
 203 574 l 2
 204 579 204 583 204 587 c 0
 204 609 191 619 159 619 c 2
 129 619 l 2
 122 619 122 623 123 625 c 1
 126 646 l 1xdddc
 256 645 l 1
 333 646 l 1xcedc
 594 646 l 1xcddc
 583 506 l 1
 556 503 l 1
 556 546 533 606 481 606 c 2
 325 606 l 2
 301 606 288 598 283 574 c 2
 246 361 l 1
 386 361 l 2
 421 361 433 378 444 405 c 2
 457 435 l 2
 458 439 461 443 465 443 c 2
 487 443 l 2
 490 443 490 441 490 439 c 1
 482 407 471 377 465 344 c 0
 459 310 458 280 457 248 c 1
 453 245 l 1
 430 245 l 2
 425 245 423 249 423 252 c 2
 423 283 l 2
 422 312 414 327 380 327 c 2
 240 327 l 1
 195 72 l 2
 194 68 194 65 194 62 c 0
 194 44 206 39 225 39 c 2
 417 39 l 2
 482 39 520 92 548 165 c 1
 574 160 l 1
 521 0 l 1
 307 0 l 1
 275 -51 l 1
 283 -49 292 -48 301 -48 c 0
 333 -48 360 -63 360 -95 c 0
 360 -146 302 -181 235 -181 c 0
 204 -181 188 -175 164 -164 c 1
 178 -146 l 1
 205 -154 211 -155 234 -155 c 0
 268 -155 305 -137 305 -106 c 0xeedc
 305 -90 290 -79 270 -79 c 0
EndSplineSet
EndChar

StartChar: uni1E1D
Encoding: 7709 7709 159
Width: 437
VWidth: 999
Flags: W
HStem: -188 26<111.001 215.123> -86 31<184.039 252.006> 411 31<285.04 388.453> 500 58<305.149 431.004> 629 20G<252 281.5 490.5 522>
VStem: 75 83<81.8824 213.539> 239 55<-148.239 -87.9865> 250 30<590.028 638.6> 398 70<311.048 403.909> 499 23<622.339 639.957>
LayerCount: 2
Fore
SplineSet
282 649 m 1xfdc0
 281 644 280 639 280 633 c 0
 280 590 315 558 370 558 c 0
 416 558 482 587 499 649 c 1
 522 636 l 1
 489 535 406 500 356 500 c 0
 288 500 250 546 250 610 c 0
 250 619 251 627 252 636 c 1
 282 649 l 1xfdc0
398 371 m 0
 398 400 373 411 338 411 c 0
 289 411 198 363 164 211 c 1
 240 218 398 260 398 371 c 0
204 -86 m 0
 185 -86 175 -88 158 -93 c 1
 153 -86 l 1
 204 -12 l 1
 114 -4 75 62 75 142 c 0
 75 269 189 442 360 442 c 0
 441 442 468 405 468 370 c 0
 468 332 433 219 159 185 c 1
 158 177 158 170 158 165 c 0
 158 74 212 36 257 36 c 0
 305 36 349 64 402 122 c 1
 424 106 l 1
 372 34 311 -6 238 -12 c 1
 209 -58 l 1
 217 -56 226 -55 235 -55 c 0
 268 -55 294 -70 294 -102 c 0
 294 -153 236 -188 169 -188 c 0
 138 -188 122 -182 98 -170 c 1
 112 -152 l 1
 139 -161 146 -162 168 -162 c 0
 202 -162 239 -144 239 -113 c 0xfec0
 239 -97 224 -86 204 -86 c 0
EndSplineSet
EndChar

StartChar: uni1E1E
Encoding: 7710 7710 160
Width: 503
VWidth: 999
Flags: W
HStem: -1 29<15.0156 99.9487 198.734 270> 327 34<246 416.832> 423 20G<463 488.5> 606 40<287.062 526.105> 618 28<126 200.411> 704 96<397.441 469.845>
VStem: 385 97<715.875 787.227> 423 34<248 320.676> 457 33<435 443> 556 27<506 560.717>
DStem2: 114 72 195 72 0.174569 0.984645<2.28893 273.08 307.605 524.542>
LayerCount: 2
Fore
SplineSet
441 800 m 0xe640
 463 800 482 784 482 759 c 0
 482 729 456 704 427 704 c 0
 402 704 385 722 385 745 c 0
 385 772 409 800 441 800 c 0xe640
283 574 m 2
 246 361 l 1
 386 361 l 2
 421 361 433 378 444 405 c 2
 457 435 l 2
 458 439 461 443 465 443 c 2
 487 443 l 2
 490 443 490 441 490 439 c 1xf5c0
 482 407 471 377 465 344 c 0
 459 310 458 280 457 248 c 1
 453 245 l 1
 430 245 l 2
 425 245 423 249 423 252 c 2
 423 283 l 2
 422 312 414 327 380 327 c 2
 240 327 l 1
 195 72 l 2
 194 67 194 63 194 60 c 0
 194 38 208 28 242 28 c 2
 268 28 l 2
 272 28 276 25 275 20 c 2
 271 1 l 1
 270 -1 l 1
 270 -1 183 1 144 1 c 0
 108 1 15 -1 15 -1 c 1
 13 1 l 1
 16 20 l 2
 17 25 21 28 25 28 c 2
 52 28 l 2
 93 28 109 44 114 72 c 2
 203 574 l 2
 204 579 204 584 204 589 c 0
 204 608 193 618 159 618 c 2
 129 618 l 2
 122 618 122 623 123 625 c 1
 126 646 l 1xed40
 130 647 l 1
 254 645 l 1
 329 646 l 1xf540
 594 646 l 1xed40
 583 506 l 1
 556 503 l 1
 556 546 533 606 481 606 c 2
 325 606 l 2xf540
 301 606 288 598 283 574 c 2
EndSplineSet
LCarets2: 1 0 
EndChar

StartChar: uni1E1F
Encoding: 7711 7711 161
Width: 304
VWidth: 999
Flags: W
HStem: -244 37<-22.4942 43.2092> 391 39<114.205 186 266 379.686> 676 29<361.912 421.074> 765 96<353.035 425.536>
VStem: 341 97<777.681 849.081>
DStem2: 45.2754 -244 115.993 -244 0.21644 0.976296<419.947 650.406 705.797 867.978>
LayerCount: 2
Fore
SplineSet
396 861 m 0
 419 861 438 845 438 820 c 0
 438 790 411 765 383 765 c 0
 357 765 341 783 341 806 c 0
 341 833 364 861 396 861 c 0
186 391 m 1
 115 391 l 2
 112 391 110 391 110 393 c 0
 110 395 113 407 114 410 c 0
 116 418 124 430 142 430 c 2
 193 430 l 1
 248 681 360 705 402 705 c 0
 473 705 505 676 505 633 c 0
 505 624 498 601 469 601 c 0
 437 601 429 627 425 648 c 0
 421 667 417 676 394 676 c 0
 377 676 336 654 311 592 c 0
 299 565 290 530 281 493 c 2
 266 430 l 1
 376 430 l 2
 381 430 383 428 383 425 c 0
 383 424 378 403 378 403 c 2
 376 395 361 391 352 391 c 2
 257 391 l 1
 253 374 l 2
 206 136 159 -78 87 -181 c 0
 59 -221 26 -244 -12 -244 c 0
 -81 -244 -92 -211 -92 -195 c 0
 -92 -182 -83 -166 -58 -166 c 0
 -41 -166 -33 -176 -25 -187 c 0
 -18 -197 -9 -207 7 -207 c 0
 21 -207 32 -204 48 -188 c 0
 78 -159 122 42 137 141 c 0
 144 188 155 252 161 278 c 2
 186 391 l 1
EndSplineSet
LCarets2: 1 0 
EndChar

StartChar: uni1E20
Encoding: 7712 7712 162
Width: 687
VWidth: 999
Flags: W
HStem: -12 36<309.594 493.296> 271 36<507 578.281 670.422 724.875> 621 37<384.151 569.881> 730 44<349.081 626.298>
VStem: 81 91<164.407 366.727> 581 59<109.859 149.667> 661 31<448 521.28>
DStem2: 533.934 -12 612.732 -12 0.21644 0.976296<138.16 255.054>
LayerCount: 2
Fore
SplineSet
599 730 m 2
 354 730 l 2
 348 730 345 735 345 740 c 0
 345 742 345 743 346 745 c 0
 349 756 363 774 375 774 c 2
 619 774 l 2
 627 774 630 769 630 763 c 0
 630 762 630 761 629 759 c 1
 627 748 612 730 599 730 c 2
491 658 m 0
 613 658 640 613 699 613 c 1
 692 448 l 1
 661 444 l 1
 654 543 616 621 470 621 c 0
 335 621 207 502 176 327 c 0
 173 310 172 292 172 274 c 0
 172 154 242 24 397 24 c 0
 452 24 513 42 553 74 c 1
 580 227 l 2
 581 231 581 235 581 239 c 0
 581 261 567 271 533 271 c 2
 507 271 l 2
 502 271 499 274 500 279 c 2
 504 305 l 1
 507 307 l 1
 507 307 593 305 632 305 c 0
 668 305 726 307 726 307 c 1
 728 305 l 1
 723 279 l 2
 722 274 719 271 714 271 c 2
 713 271 l 2
 678 271 666 255 661 227 c 2
 640 111 l 2
 640 109 640 108 640 106 c 0
 640 97 644 90 651 83 c 1
 573 25 486 -12 368 -12 c 0
 189 -12 81 104 81 251 c 0
 81 269 83 288 86 307 c 0
 125 527 319 658 491 658 c 0
EndSplineSet
LCarets2: 1 0 
EndChar

StartChar: uni1E21
Encoding: 7713 7713 163
Width: 467
VWidth: 999
Flags: W
HStem: -237 39<120.5 306.645> -10 53<140.75 299.242> 125 28<225.297 314.71> 415 27<250.743 339.234> 418 40<439.612 513> 550 44<215.762 493.455>
VStem: 9 60<-160.262 -67.8978> 81 56<47.9506 113.761> 118 73<179.254 347.54> 374 72<219.173 387.467> 387 55<-133.207 -45.6507>
LayerCount: 2
Fore
SplineSet
466 550 m 2xe6
 222 550 l 2
 215 550 212 555 212 561 c 0
 212 562 212 563 213 565 c 1
 216 577 230 594 242 594 c 2
 486 594 l 2
 494 594 497 589 497 583 c 0
 497 582 497 581 497 580 c 0
 494 568 479 550 466 550 c 2xe6
126 -9 m 1
 102 -27 69 -68 69 -116 c 0
 69 -168 133 -198 245 -198 c 0
 346 -198 387 -135 387 -97 c 0xe620
 387 -62 368 -10 220 -10 c 2
 163 -12 l 2
 148 -12 139 -12 126 -9 c 1
446 307 m 0xeec0
 446 185 347 125 256 125 c 0
 219 125 190 132 169 146 c 1
 151 125 137 105 137 82 c 0
 137 54 158 43 188 43 c 0
 197 43 214 44 233 47 c 0
 257 49 284 51 300 51 c 0
 421 51 442 -34 442 -60 c 0
 442 -159 331 -237 194 -237 c 0
 133 -237 9 -214 9 -133 c 0
 9 -73 56 -30 109 -1 c 1
 83 14 81 40 81 50 c 0xef20
 81 90 113 137 148 164 c 1
 127 197 118 230 118 273 c 0
 118 363 209 442 312 442 c 0xf680
 358 442 384 427 405 410 c 1
 443 453 492 458 501 458 c 0
 525 458 541 443 541 424 c 0
 541 404 528 391 510 391 c 0
 492 391 486 400 482 408 c 0
 479 413 476 418 467 418 c 0
 458 418 439 406 424 389 c 1
 441 365 446 330 446 307 c 0xeec0
374 307 m 0xf6c0
 374 367 350 415 299 415 c 0
 229 415 191 346 191 271 c 0
 191 221 202 153 266 153 c 0
 339 153 374 226 374 307 c 0xf6c0
EndSplineSet
LCarets2: 1 0 
EndChar

StartChar: uni1E22
Encoding: 7714 7714 164
Width: 700
VWidth: 999
Flags: W
HStem: -1 29<20.0156 104.949 203.734 274 427.016 511.949 610.734 682> 324 39<251 571> 618 28<133 202.834 303.305 387.25 540 610.793 710.305 794.25> 699 95<444.035 515.92>
VStem: 432 96<710.847 782.375>
DStem2: 119 72 200 72 0.174569 0.984645<2.28893 269.952 309.575 521.644> 526 72 607 72 0.174569 0.984645<2.28893 255.986 295.609 521.634>
LayerCount: 2
Fore
SplineSet
487 794 m 0
 510 794 528 779 528 754 c 0
 528 724 502 699 474 699 c 0
 448 699 432 717 432 739 c 0
 432 767 455 794 487 794 c 0
526 72 m 2
 571 324 l 1
 244 324 l 1
 200 72 l 2
 199 67 199 63 199 60 c 0
 199 38 213 28 247 28 c 2
 273 28 l 2
 277 28 281 25 280 20 c 2
 276 1 l 1
 274 -1 l 1
 274 -1 188 1 148 1 c 0
 113 1 20 -1 20 -1 c 1
 18 1 l 1
 21 20 l 2
 22 25 25 28 30 28 c 2
 57 28 l 2
 98 28 114 44 119 72 c 2
 208 574 l 2
 208 578 208 582 208 586 c 0
 208 608 194 618 161 618 c 2
 134 618 l 2
 130 618 126 621 127 626 c 2
 131 645 l 1
 133 646 l 1
 133 646 220 645 259 645 c 0
 294 645 388 646 388 646 c 1
 390 645 l 1
 386 626 l 2
 385 621 382 618 377 618 c 2
 351 618 l 2
 310 618 293 602 288 574 c 2
 251 363 l 1
 578 363 l 1
 615 574 l 2
 616 578 616 582 616 586 c 0
 616 608 602 618 568 618 c 2
 542 618 l 2
 537 618 534 621 535 626 c 2
 538 645 l 1
 540 646 l 1
 540 646 627 645 666 645 c 0
 702 645 795 646 795 646 c 1
 797 645 l 1
 793 626 l 2
 792 621 789 618 784 618 c 2
 758 618 l 2
 717 618 700 602 695 574 c 2
 607 72 l 2
 606 67 606 63 606 60 c 0
 606 38 620 28 654 28 c 2
 680 28 l 2
 685 28 688 25 687 20 c 2
 684 1 l 1
 682 -1 l 1
 682 -1 595 1 556 1 c 0
 520 1 427 -1 427 -1 c 1
 425 1 l 1
 428 20 l 2
 429 25 433 28 438 28 c 2
 464 28 l 2
 505 28 521 44 526 72 c 2
EndSplineSet
LCarets2: 1 0 
EndChar

StartChar: uni1E23
Encoding: 7715 7715 165
Width: 518
VWidth: 999
Flags: W
HStem: -12 53<396 467.676> 393 49<358.84 460> 522 96<389.118 461.536> 642 30<173 225.459> 678 20G<290 323>
VStem: 363 80<13.4059 144.414> 377 97<534.764 606.049> 431 79<252.586 389.376>
DStem2: 83.3397 -12 158.679 -12 0.21644 0.976296<40.8892 322.392 347.736 644.724> 349.066 -12 424.293 -12 0.21644 0.976296<90.111 368.372>
LayerCount: 2
Fore
SplineSet
433 618 m 0xfa
 455 618 474 603 474 578 c 0
 474 547 447 522 419 522 c 0
 394 522 377 541 377 563 c 0
 377 591 400 618 433 618 c 0xfa
86 0 m 1
 221 578 l 2
 225 594 227 607 227 617 c 0
 227 636 220 646 207 646 c 1
 174 642 l 2
 171 642 169 644 169 647 c 2
 173 672 l 1
 188 672 227 678 244 681 c 0
 264 685 279 689 301 698 c 1
 323 698 l 1
 233 311 l 1
 325 419 389 442 441 442 c 0
 479 442 510 424 510 364 c 0xf9
 510 343 503 312 496 283 c 2
 454 122 l 2
 445 86 443 69 443 59 c 0
 443 49 446 41 453 41 c 0
 468 41 489 60 522 100 c 1
 544 83 l 1
 485 13 444 -12 407 -12 c 0
 385 -12 363 3 363 33 c 0xfc
 363 55 367 77 377 114 c 2xfa
 419 275 l 2
 427 306 431 330 431 348 c 0xf9
 431 379 414 393 393 393 c 0
 357 393 297 351 220 252 c 1
 164 12 l 1
 91 -12 l 1
 86 0 l 1
EndSplineSet
LCarets2: 1 0 
EndChar

StartChar: uni1E24
Encoding: 7716 7716 166
Width: 700
VWidth: 999
Flags: W
HStem: -164 96<297.035 368.92> -1 29<20.0156 104.949 203.734 274 427.016 511.949 610.734 682> 324 39<251 571> 618 28<133 202.834 303.305 387.25 540 610.793 710.305 794.25>
VStem: 285 96<-152.078 -79.6249>
DStem2: 119 72 200 72 0.174569 0.984645<2.28893 269.952 309.575 521.644> 526 72 607 72 0.174569 0.984645<2.28893 255.986 295.609 521.634>
LayerCount: 2
Fore
SplineSet
526 72 m 2
 571 324 l 1
 244 324 l 1
 200 72 l 2
 199 67 199 63 199 60 c 0
 199 38 213 28 247 28 c 2
 273 28 l 2
 277 28 281 25 280 20 c 2
 276 1 l 1
 274 -1 l 1
 274 -1 188 1 148 1 c 0
 113 1 20 -1 20 -1 c 1
 18 1 l 1
 21 20 l 2
 22 25 25 28 30 28 c 2
 57 28 l 2
 98 28 114 44 119 72 c 2
 208 574 l 2
 208 578 208 582 208 586 c 0
 208 608 194 618 161 618 c 2
 134 618 l 2
 130 618 126 621 127 626 c 2
 131 645 l 1
 133 646 l 1
 133 646 220 645 259 645 c 0
 294 645 388 646 388 646 c 1
 390 645 l 1
 386 626 l 2
 385 621 382 618 377 618 c 2
 351 618 l 2
 310 618 293 602 288 574 c 2
 251 363 l 1
 578 363 l 1
 615 574 l 2
 616 578 616 582 616 586 c 0
 616 608 602 618 568 618 c 2
 542 618 l 2
 537 618 534 621 535 626 c 2
 538 645 l 1
 540 646 l 1
 540 646 627 645 666 645 c 0
 702 645 795 646 795 646 c 1
 797 645 l 1
 793 626 l 2
 792 621 789 618 784 618 c 2
 758 618 l 2
 717 618 700 602 695 574 c 2
 607 72 l 2
 606 67 606 63 606 60 c 0
 606 38 620 28 654 28 c 2
 680 28 l 2
 685 28 688 25 687 20 c 2
 684 1 l 1
 682 -1 l 1
 682 -1 595 1 556 1 c 0
 520 1 427 -1 427 -1 c 1
 425 1 l 1
 428 20 l 2
 429 25 433 28 438 28 c 2
 464 28 l 2
 505 28 521 44 526 72 c 2
340 -68 m 0
 363 -68 381 -83 381 -108 c 0
 381 -139 355 -164 327 -164 c 0
 301 -164 285 -146 285 -123 c 0
 285 -95 308 -68 340 -68 c 0
EndSplineSet
LCarets2: 1 0 
EndChar

StartChar: uni1E25
Encoding: 7717 7717 167
Width: 539
VWidth: 999
Flags: W
HStem: -164 96<217.035 288.92> -12 53<396 467.676> 393 49<358.84 460> 642 30<173 225.459> 678 20G<290 323>
VStem: 205 96<-152.078 -79.6249> 363 80<13.4059 144.414> 431 79<252.586 389.376>
DStem2: 49.6421 -164 124.982 -164 0.21644 0.976296<196.58 478.082 503.427 800.414> 315.369 -164 390.595 -164 0.21644 0.976296<245.801 524.062>
LayerCount: 2
Fore
SplineSet
86 0 m 1xfd
 221 578 l 2
 225 594 227 607 227 617 c 0
 227 636 220 646 207 646 c 1
 174 642 l 2
 171 642 169 644 169 647 c 2
 173 672 l 1
 188 672 227 678 244 681 c 0
 264 685 279 689 301 698 c 1
 323 698 l 1
 233 311 l 1
 325 419 389 442 441 442 c 0
 479 442 510 424 510 364 c 0xfd
 510 343 503 312 496 283 c 2
 454 122 l 2
 445 86 443 69 443 59 c 0
 443 49 446 41 453 41 c 0
 468 41 489 60 522 100 c 1
 544 83 l 1
 485 13 444 -12 407 -12 c 0
 385 -12 363 3 363 33 c 0xfe
 363 55 367 77 377 114 c 2
 419 275 l 2
 427 306 431 330 431 348 c 0
 431 379 414 393 393 393 c 0
 357 393 297 351 220 252 c 1
 164 12 l 1
 91 -12 l 1
 86 0 l 1xfd
260 -68 m 0
 283 -68 301 -83 301 -108 c 0
 301 -139 275 -164 247 -164 c 0
 221 -164 205 -146 205 -123 c 0
 205 -95 228 -68 260 -68 c 0
EndSplineSet
LCarets2: 1 0 
EndChar

StartChar: uni1E26
Encoding: 7718 7718 168
Width: 700
VWidth: 999
Flags: W
HStem: -1 29<20.0156 104.949 203.734 274 427.016 511.949 610.734 682> 324 39<251 571> 618 28<133 202.834 303.305 387.25 540 610.793 710.305 794.25> 708 91<357.97 426.349 517.75 586.854>
VStem: 347 91<719.777 787.456> 507 92<720.777 788.223>
DStem2: 119 72 200 72 0.174569 0.984645<2.28893 269.952 309.575 521.644> 526 72 607 72 0.174569 0.984645<2.28893 255.986 295.609 521.634>
LayerCount: 2
Fore
SplineSet
400 799 m 0
 423 799 438 783 438 762 c 0
 438 730 409 708 384 708 c 0
 362 708 347 725 347 746 c 0
 347 777 375 799 400 799 c 0
561 800 m 0
 583 800 599 783 599 762 c 0
 599 731 570 709 545 709 c 0
 523 709 507 726 507 747 c 0
 507 778 536 800 561 800 c 0
526 72 m 2
 571 324 l 1
 244 324 l 1
 200 72 l 2
 199 67 199 63 199 60 c 0
 199 38 213 28 247 28 c 2
 273 28 l 2
 277 28 281 25 280 20 c 2
 276 1 l 1
 274 -1 l 1
 274 -1 188 1 148 1 c 0
 113 1 20 -1 20 -1 c 1
 18 1 l 1
 21 20 l 2
 22 25 25 28 30 28 c 2
 57 28 l 2
 98 28 114 44 119 72 c 2
 208 574 l 2
 208 578 208 582 208 586 c 0
 208 608 194 618 161 618 c 2
 134 618 l 2
 130 618 126 621 127 626 c 2
 131 645 l 1
 133 646 l 1
 133 646 220 645 259 645 c 0
 294 645 388 646 388 646 c 1
 390 645 l 1
 386 626 l 2
 385 621 382 618 377 618 c 2
 351 618 l 2
 310 618 293 602 288 574 c 2
 251 363 l 1
 578 363 l 1
 615 574 l 2
 616 578 616 582 616 586 c 0
 616 608 602 618 568 618 c 2
 542 618 l 2
 537 618 534 621 535 626 c 2
 538 645 l 1
 540 646 l 1
 540 646 627 645 666 645 c 0
 702 645 795 646 795 646 c 1
 797 645 l 1
 793 626 l 2
 792 621 789 618 784 618 c 2
 758 618 l 2
 717 618 700 602 695 574 c 2
 607 72 l 2
 606 67 606 63 606 60 c 0
 606 38 620 28 654 28 c 2
 680 28 l 2
 685 28 688 25 687 20 c 2
 684 1 l 1
 682 -1 l 1
 682 -1 595 1 556 1 c 0
 520 1 427 -1 427 -1 c 1
 425 1 l 1
 428 20 l 2
 429 25 433 28 438 28 c 2
 464 28 l 2
 505 28 521 44 526 72 c 2
EndSplineSet
LCarets2: 1 0 
EndChar

